<?xml version="1.0" standalone="no"?>
<!DOCTYPE svg PUBLIC "-//W3C//DTD SVG 20010904//EN"
 "http://www.w3.org/TR/2001/REC-SVG-20010904/DTD/svg10.dtd">
<svg version="1.0" xmlns="http://www.w3.org/2000/svg"
 width="1654.000000pt" height="2204.000000pt" viewBox="0 0 1654.000000 2204.000000"
 preserveAspectRatio="xMidYMid meet">
<metadata>
Created by potrace 1.16, written by Peter Selinger 2001-2019
</metadata>
<g transform="translate(0.000000,2204.000000) scale(0.100000,-0.100000)"
fill="#000000" stroke="none">
<path d="M11325 19970 c-955 -38 -3378 -49 -4635 -21 -697 15 -692 16 -803
-42 -65 -33 -114 -77 -129 -116 -12 -32 -33 -128 -43 -199 -8 -61 -22 -72 -89
-72 -56 0 -84 -10 -118 -45 -37 -37 -139 -207 -165 -275 -24 -64 -56 -208 -74
-333 -7 -48 -16 -90 -21 -93 -5 -3 -33 -8 -63 -11 -46 -5 -63 -13 -102 -46
-39 -35 -61 -72 -149 -252 -56 -116 -106 -223 -109 -238 -4 -15 -10 -27 -14
-27 -20 0 -35 -82 -34 -187 l1 -111 -67 -17 c-152 -39 -237 -66 -261 -83 -26
-20 -97 -132 -176 -279 -72 -136 -154 -286 -164 -303 -6 -8 -16 -28 -25 -45
-8 -16 -35 -66 -60 -110 -63 -112 -509 -1009 -611 -1230 -8 -16 -18 -37 -23
-45 -4 -8 -17 -35 -29 -60 -11 -25 -51 -107 -87 -183 -37 -76 -89 -187 -117
-245 -145 -310 -161 -338 -253 -467 -11 -16 -27 -48 -34 -70 -17 -48 -74 -134
-130 -194 -49 -53 -136 -205 -145 -255 -4 -19 -22 -59 -41 -88 -20 -29 -38
-61 -41 -70 -3 -10 -9 -18 -14 -18 -8 0 -80 -115 -80 -128 0 -4 -6 -18 -13
-32 -17 -34 -44 -108 -51 -145 -11 -48 -59 -159 -74 -168 -28 -18 -80 -158
-122 -327 -12 -47 -36 -114 -54 -150 -41 -80 -77 -210 -86 -305 -6 -70 -29
-158 -57 -225 -20 -47 -57 -225 -56 -275 0 -67 -18 -209 -28 -221 -19 -24 -31
-134 -33 -321 -1 -141 -5 -196 -14 -201 -18 -12 -20 -258 -3 -347 8 -41 11
-93 7 -125 -19 -168 -18 -193 9 -325 18 -87 28 -168 30 -245 3 -137 19 -248
44 -310 27 -65 41 -133 41 -194 0 -91 53 -299 80 -316 15 -9 50 -144 59 -225
11 -98 66 -241 108 -283 7 -7 13 -21 13 -31 0 -9 8 -35 19 -57 10 -21 22 -61
26 -88 8 -57 75 -212 120 -276 42 -60 95 -167 95 -191 0 -35 116 -245 157
-286 38 -38 77 -109 108 -195 14 -36 86 -145 137 -206 29 -34 48 -41 48 -17 0
8 -4 15 -9 15 -4 0 -6 11 -3 25 2 14 0 31 -5 38 -25 32 -73 127 -65 127 5 0
15 -13 22 -30 7 -16 16 -30 20 -30 4 0 11 -10 15 -22 3 -14 8 -18 11 -11 3 7
-7 28 -21 48 -15 19 -24 35 -21 35 4 0 -2 14 -14 31 -12 16 -20 33 -17 36 3 3
1 17 -4 31 -8 21 -6 31 11 55 24 32 22 60 -7 95 -10 11 -27 32 -38 46 -11 14
-24 25 -29 26 -5 0 -28 -21 -53 -48 l-43 -47 -20 23 c-21 25 -17 46 14 71 12
10 10 20 -18 69 -17 31 -40 77 -50 102 -10 25 -23 48 -29 52 -8 5 0 19 22 42
l34 35 -18 47 c-26 68 -66 107 -100 98 -15 -4 -30 -15 -32 -25 -7 -24 -8 -24
-34 2 -19 19 -19 22 -4 33 16 12 16 15 -2 57 -11 24 -31 70 -44 101 -13 32
-30 58 -36 58 -21 0 -15 14 23 50 30 28 35 39 31 64 -15 87 -66 148 -106 127
-21 -12 -71 -15 -71 -5 0 4 8 12 17 19 16 12 15 17 -9 81 -15 38 -30 80 -34
94 -3 14 -13 33 -22 43 -14 16 -13 21 22 56 35 36 38 43 32 78 -4 21 -14 55
-23 76 -16 37 -27 42 -84 38 -23 -2 -26 2 -26 31 0 53 -42 200 -61 214 -15 11
-14 14 14 30 51 29 65 64 52 134 -12 72 -27 90 -74 90 -30 0 -34 3 -34 28 0
15 -9 61 -20 102 -10 41 -17 76 -15 79 3 2 -3 13 -12 24 -17 19 -17 20 1 31
64 38 71 50 71 129 -1 79 -13 107 -46 107 -34 0 -46 27 -59 130 -7 55 -16 103
-21 106 -21 12 -6 37 30 51 49 19 61 46 61 131 0 72 -10 92 -45 92 -28 0 -45
59 -45 157 0 55 -4 81 -16 94 -14 16 -12 18 39 33 53 15 54 16 65 67 7 28 12
70 12 94 0 37 -4 45 -22 50 -13 4 -32 18 -43 32 -18 21 -20 36 -17 138 4 127
-5 113 76 130 28 6 41 35 56 123 11 64 8 82 -14 82 -7 0 -23 12 -37 26 -25 27
-27 49 -9 134 5 25 11 63 13 85 3 39 3 39 57 50 l55 10 24 84 23 84 -41 35
c-41 34 -42 35 -35 81 4 25 15 73 25 105 11 33 17 68 13 78 -5 16 1 18 59 18
l63 0 28 84 c27 81 28 106 3 106 -21 0 -57 61 -47 79 5 9 21 54 36 100 31 94
55 124 91 115 56 -14 57 -13 126 130 7 15 0 27 -32 60 l-41 42 40 85 c22 46
45 92 51 102 5 10 8 26 5 35 -3 9 -1 24 4 32 8 12 10 12 15 -2 4 -9 13 -14 20
-12 7 3 25 -2 39 -11 35 -23 48 -16 84 48 47 84 48 96 7 140 -34 37 -44 57
-27 57 4 0 12 8 17 19 6 10 25 47 43 81 18 35 40 69 50 76 16 12 16 14 -3 28
-26 18 -11 34 16 17 25 -15 36 -9 14 9 -17 14 -20 30 -6 30 5 0 29 -18 52 -40
24 -22 46 -40 50 -40 4 0 10 14 14 30 4 17 10 30 14 30 5 0 21 18 36 39 26 39
26 67 -1 57 -21 -8 -27 11 -7 23 17 9 16 11 -4 26 -26 18 -32 65 -8 65 8 0 15
4 15 9 0 5 25 41 55 80 57 74 63 87 43 93 -6 2 -9 12 -5 21 4 11 12 14 23 10
13 -5 15 -2 9 15 -9 29 20 30 35 2 6 -11 21 -20 33 -20 18 0 23 -6 22 -27 0
-49 28 -37 74 33 l43 65 -30 49 -31 49 27 32 c15 18 51 57 80 88 48 50 52 58
41 78 -11 20 -9 26 15 49 15 16 30 23 34 18 5 -5 27 -32 51 -61 40 -50 43 -51
61 -35 11 9 20 22 20 29 0 7 5 13 10 13 6 0 13 8 17 18 3 9 12 24 20 33 11 14
10 22 -7 60 -21 48 -25 75 -11 81 5 2 41 34 80 71 63 60 70 70 60 88 -6 12 -9
30 -6 40 3 10 2 19 -2 19 -13 0 -178 -175 -204 -217 -15 -24 -32 -43 -37 -43
-6 0 -10 -6 -10 -12 0 -7 -18 -26 -40 -42 -21 -16 -63 -53 -92 -82 -29 -30
-56 -54 -60 -54 -4 0 29 75 73 168 45 92 98 203 119 247 133 282 325 679 363
750 17 33 55 110 85 170 29 61 60 124 69 140 9 17 34 64 56 105 22 41 67 127
99 190 155 299 213 409 292 550 20 36 41 82 46 103 6 20 15 37 20 37 5 0 33
11 62 24 29 14 91 37 138 51 47 14 105 32 130 39 89 28 232 57 247 52 13 -5
14 -16 9 -59 -4 -28 -13 -59 -21 -67 -7 -8 -25 -80 -40 -160 -14 -80 -32 -176
-40 -215 -14 -65 -26 -140 -60 -370 -7 -50 -20 -107 -28 -127 -13 -31 -44
-324 -35 -333 2 -2 30 13 62 33 38 23 61 32 64 24 2 -6 12 -22 22 -34 l19 -23
1 42 c0 41 1 42 49 58 27 9 54 21 59 28 5 7 13 54 17 106 l7 93 47 -6 c25 -4
88 -9 139 -13 103 -6 101 -5 132 -106 14 -46 25 -42 13 5 -4 18 -7 48 -5 66 3
26 8 32 26 32 12 0 26 3 30 7 9 10 78 33 98 33 9 0 17 -8 16 -17 -1 -44 16
-144 25 -150 6 -4 8 30 5 96 l-5 103 26 9 c14 6 39 16 56 24 135 59 179 66
181 30 1 -11 3 -38 5 -60 3 -33 1 -40 -13 -39 -24 2 -22 -5 7 -41 l25 -30 0
25 c-1 14 1 61 3 104 l5 80 63 19 c108 32 103 35 109 -63 6 -103 20 -83 20 28
l0 77 73 22 c193 60 192 60 192 -22 0 -54 -3 -65 -17 -65 -14 0 -13 -6 9 -40
15 -22 31 -40 36 -40 5 0 4 7 -3 15 -8 10 -9 28 -4 57 10 50 11 59 13 114 1
47 -10 41 129 60 l52 7 1 -89 c1 -74 3 -82 10 -49 4 22 8 64 8 93 1 41 5 54
19 58 9 3 26 9 37 14 24 9 155 30 190 30 23 0 24 -2 21 -62 -4 -63 -4 -63 -32
-60 -27 3 -27 2 -12 -15 8 -10 23 -32 31 -49 9 -17 26 -34 38 -37 20 -5 20 -5
3 14 -14 16 -15 25 -6 57 13 43 27 132 24 148 -3 16 32 24 110 24 l67 0 -4
-82 c-3 -55 -2 -75 4 -58 5 14 9 48 10 76 1 42 5 54 24 66 24 16 238 44 255
34 7 -4 8 -16 2 -34 -5 -15 -11 -44 -15 -65 -5 -34 -8 -36 -26 -26 -30 16 -36
3 -11 -24 12 -13 27 -37 33 -55 9 -25 16 -32 37 -31 27 0 27 0 5 11 -27 13
-28 19 -8 76 9 24 19 67 23 95 l7 52 230 3 c243 3 270 0 241 -21 -10 -7 -20
-32 -23 -55 -5 -40 -7 -42 -40 -42 l-35 0 31 -29 c19 -18 31 -39 31 -55 0 -19
7 -29 26 -36 44 -17 62 -12 29 9 -28 16 -46 61 -25 61 10 0 50 120 50 150 0
21 4 21 83 16 226 -14 354 -24 369 -31 17 -7 17 -9 -2 -35 -11 -15 -20 -43
-20 -60 0 -31 -1 -32 -32 -26 -18 4 -67 9 -108 11 -61 4 -67 3 -35 -5 22 -5
55 -9 73 -9 44 -1 92 -47 92 -89 0 -25 6 -32 31 -41 18 -6 50 -11 73 -10 41 1
41 1 -14 12 -52 11 -55 14 -58 45 -2 19 3 41 11 50 17 21 43 78 52 115 4 15
11 29 15 32 5 3 46 -2 92 -11 46 -8 112 -19 148 -24 36 -4 90 -13 120 -20 59
-13 117 -39 89 -40 -12 0 -63 -78 -64 -97 0 -1 -29 5 -65 12 -36 8 -83 14
-105 13 -25 0 -31 -2 -15 -5 63 -10 137 -37 157 -56 13 -11 23 -32 23 -47 0
-37 24 -56 96 -74 72 -19 74 -19 74 -7 0 4 -15 11 -33 14 -18 3 -50 12 -71 21
-35 15 -38 19 -32 47 3 18 2 28 -4 24 -6 -3 -10 -1 -10 5 0 7 6 10 14 7 18 -7
34 13 71 89 29 61 30 62 65 57 19 -3 43 -10 52 -14 9 -5 28 -9 42 -9 14 0 27
-4 30 -9 3 -5 57 -21 121 -36 63 -15 122 -33 132 -40 15 -11 14 -14 -6 -34
-12 -12 -26 -33 -32 -48 -9 -24 -12 -25 -57 -18 -26 3 -71 13 -100 21 -28 9
-60 14 -70 11 -20 -5 -20 -5 86 -38 92 -29 126 -58 117 -99 -6 -25 -2 -32 32
-54 23 -15 59 -28 88 -31 l50 -5 -60 22 c-73 26 -92 42 -75 63 9 11 9 15 1 15
-6 0 -11 11 -11 25 0 31 17 33 22 3 3 -19 10 -11 41 42 64 111 55 106 136 80
38 -11 75 -28 82 -36 6 -8 22 -14 34 -14 39 0 215 -75 215 -92 0 -4 -4 -8 -9
-8 -5 0 -18 -16 -30 -35 -25 -43 -44 -44 -139 -10 -38 14 -79 25 -91 25 -36 0
-23 -19 20 -30 58 -16 144 -58 165 -81 12 -14 21 -16 30 -8 8 7 14 7 19 0 3
-6 -5 -16 -19 -23 -19 -8 -26 -19 -26 -38 0 -22 9 -31 53 -53 28 -15 68 -29
87 -33 33 -5 34 -5 16 10 -11 9 -26 16 -34 16 -20 0 -92 42 -92 53 0 6 11 25
25 43 14 18 25 35 25 38 0 3 19 31 43 61 46 60 48 60 120 24 21 -10 46 -19 57
-19 13 0 20 -7 20 -20 0 -14 7 -20 21 -20 20 0 119 -40 149 -60 8 -6 26 -16
40 -22 l26 -11 -39 -40 c-33 -34 -42 -39 -71 -34 -18 3 -53 14 -77 25 -67 30
-109 37 -109 18 0 -9 6 -16 14 -16 32 0 174 -73 179 -91 4 -16 11 -18 32 -13
25 6 26 5 16 -14 -6 -11 -20 -24 -31 -27 -27 -8 -25 -37 3 -62 27 -25 120 -73
142 -73 30 0 14 15 -47 45 -83 41 -90 55 -51 95 17 18 49 56 70 86 21 29 43
55 49 57 20 9 135 -55 145 -80 5 -13 17 -23 28 -23 10 0 48 -13 83 -30 72 -34
93 -37 102 -13 7 17 18 137 36 398 6 77 15 185 20 240 6 55 15 141 20 190 37
370 69 509 129 556 32 25 115 25 234 -1 51 -11 146 -31 212 -45 169 -36 240
-61 260 -91 20 -31 12 -43 -45 -69 -29 -13 -40 -24 -40 -40 0 -22 35 -145 91
-322 16 -51 29 -99 29 -107 0 -7 7 -19 15 -26 8 -7 15 -22 15 -34 0 -11 14
-59 30 -106 33 -91 35 -104 20 -95 -5 3 -10 17 -10 30 0 13 -9 30 -20 38 -24
17 -61 88 -53 101 4 5 1 6 -5 2 -7 -4 -12 -18 -12 -32 0 -13 -4 -24 -10 -24
-5 0 -10 11 -10 25 0 18 -7 28 -25 35 -25 10 -34 43 -15 55 6 4 8 11 5 16 -7
10 -35 -14 -35 -30 0 -6 -11 -11 -25 -11 -21 0 -25 -5 -25 -31 0 -27 -2 -30
-15 -19 -13 11 -13 15 1 41 12 24 12 29 1 29 -8 0 -17 -3 -21 -7 -4 -5 -29 -8
-54 -8 -39 0 -48 -4 -58 -24 l-13 -25 -7 28 c-4 16 -1 37 6 52 8 13 10 27 6
31 -4 4 -9 -3 -13 -15 -3 -12 -9 -22 -14 -22 -5 0 -9 -18 -9 -40 0 -22 -4 -40
-10 -40 -5 0 -10 15 -10 34 0 19 -4 38 -10 41 -5 3 -10 -1 -10 -9 0 -9 -4 -16
-10 -16 -5 0 -10 14 -10 31 0 17 -4 28 -10 24 -5 -3 -10 -15 -10 -27 0 -14 -5
-18 -16 -14 -9 3 -22 6 -30 6 -8 0 -18 10 -23 22 -7 20 -9 18 -15 -15 -4 -22
-14 -41 -24 -44 -25 -10 -33 -25 -27 -54 7 -30 -20 -63 -30 -37 -3 8 -1 27 4
41 11 29 4 87 -10 87 -9 0 -11 -20 -13 -112 -1 -38 -6 -47 -44 -76 -23 -18
-40 -37 -37 -43 4 -5 -4 -9 -16 -9 -12 0 -31 -8 -41 -17 -18 -16 -19 -16 -25
5 -3 13 -11 21 -17 19 -17 -6 -19 -60 -3 -91 12 -21 12 -34 4 -56 -14 -38 -21
-30 -20 23 0 23 -4 45 -10 49 -19 11 -20 137 -3 236 19 110 20 135 1 67 -7
-27 -21 -115 -30 -195 -18 -168 -52 -416 -64 -478 -7 -34 -5 -45 5 -49 19 -7
18 -23 -1 -23 -9 0 -18 7 -21 15 -8 21 -21 19 -29 -5 -3 -11 -22 -32 -40 -46
l-34 -26 -74 41 c-41 23 -84 41 -95 41 -33 0 -36 -19 -5 -31 70 -29 118 -56
151 -86 19 -18 38 -30 43 -28 4 3 10 1 14 -5 3 -5 -5 -21 -19 -34 -14 -13 -26
-28 -26 -34 0 -38 122 -122 175 -122 18 1 -1 13 -91 61 -12 6 -27 22 -33 35
-9 20 -8 26 5 31 17 6 64 50 64 59 0 3 12 21 26 40 17 22 35 34 50 34 25 0 33
15 12 23 -7 2 -10 8 -6 12 4 4 28 -8 53 -27 26 -18 55 -37 63 -43 9 -5 24 -20
34 -31 10 -12 40 -36 68 -54 27 -18 50 -36 50 -41 0 -5 7 -9 15 -9 11 0 13 -8
8 -32 -14 -74 -44 -80 -132 -28 -68 41 -110 49 -119 23 -2 -7 4 -13 13 -13 24
0 132 -69 160 -102 13 -15 31 -28 39 -28 23 0 19 -16 -9 -38 -39 -31 -33 -64
23 -112 51 -46 88 -67 99 -57 3 4 4 8 2 10 -82 56 -131 123 -79 110 16 -4 20
0 20 21 0 17 4 24 13 20 7 -2 24 4 38 15 13 12 29 25 35 30 6 5 31 13 57 19
36 7 47 7 51 -4 3 -8 15 -14 26 -14 13 0 24 -10 31 -27 11 -28 20 -41 78 -100
32 -32 33 -37 18 -48 -12 -8 -13 -15 -6 -22 8 -8 5 -14 -9 -22 -17 -9 -28 -5
-65 23 -64 49 -86 59 -114 51 -30 -7 -25 -28 9 -35 34 -7 136 -90 140 -115 2
-13 9 -19 21 -17 26 4 21 -30 -8 -58 -14 -13 -25 -30 -25 -38 0 -30 132 -154
147 -138 6 6 -49 73 -75 89 -7 5 -10 13 -6 18 4 6 10 6 19 -1 9 -8 14 -6 19 5
3 9 10 14 15 11 5 -4 23 5 39 19 16 14 35 25 40 25 6 0 18 7 27 17 19 19 105
20 116 1 4 -6 7 -26 7 -45 0 -29 -3 -33 -20 -27 -17 5 -19 2 -16 -23 3 -25 0
-28 -22 -25 -33 4 -70 -6 -70 -18 0 -6 8 -10 18 -10 22 -1 142 -114 142 -135
0 -12 6 -15 21 -10 20 7 21 5 16 -24 -4 -17 -19 -42 -33 -55 -21 -17 -26 -28
-21 -48 8 -31 104 -128 126 -128 14 1 14 2 -1 14 -10 7 -18 21 -18 30 0 9 -4
16 -10 16 -5 0 -10 4 -10 8 0 5 12 7 28 4 19 -2 33 3 46 17 11 12 25 21 31 21
7 0 29 11 50 25 20 14 50 29 66 32 24 5 29 2 29 -15 0 -24 -67 -92 -91 -92 -9
0 -22 -6 -28 -14 -10 -12 -8 -17 11 -26 27 -14 68 -59 104 -114 15 -21 29 -35
33 -29 3 5 15 13 25 16 14 6 16 4 9 -5 -6 -7 -13 -24 -16 -38 -4 -14 -20 -40
-37 -58 -34 -37 -37 -54 -15 -72 8 -7 15 -18 15 -24 0 -14 66 -86 78 -86 5 0
7 11 4 25 -3 20 0 25 17 25 11 0 21 -4 21 -10 0 -5 5 -10 11 -10 8 0 7 5 -1
15 -14 17 -16 16 25 34 17 7 37 17 45 22 84 49 110 58 110 38 0 -17 -83 -89
-102 -89 -30 0 -31 -21 -1 -48 33 -30 76 -87 86 -115 5 -14 11 -16 26 -7 41
22 66 7 37 -22 -7 -8 -16 -24 -20 -36 -4 -12 -23 -37 -42 -57 -19 -19 -34 -42
-34 -49 0 -20 64 -115 90 -133 12 -8 24 -12 28 -8 3 3 0 10 -7 14 -19 12 -6
28 30 36 17 4 64 25 105 47 67 36 94 41 94 19 0 -10 -114 -81 -129 -81 -17 0
-13 -10 12 -30 12 -10 35 -45 52 -77 l29 -60 46 5 45 5 -22 -24 c-59 -63 -93
-103 -93 -110 0 -4 -7 -15 -16 -23 -14 -15 -14 -20 1 -59 9 -23 27 -55 41 -72
22 -27 26 -28 37 -13 8 10 22 14 38 11 16 -3 33 3 52 20 16 13 52 31 81 40 62
20 66 20 66 7 0 -6 -30 -25 -67 -43 -63 -30 -91 -57 -61 -57 14 0 68 -99 68
-125 0 -11 13 -15 50 -15 28 0 50 -2 50 -5 0 -13 -89 -95 -103 -95 -11 0 -17
-8 -17 -24 0 -14 -9 -31 -20 -39 -18 -12 -19 -18 -8 -48 26 -75 42 -94 83 -96
46 -1 89 13 80 27 -3 5 2 10 12 10 10 0 36 7 58 15 70 25 108 13 43 -13 -55
-23 -98 -46 -95 -52 5 -9 34 -74 40 -92 4 -10 17 -18 29 -18 l23 -1 -22 -18
-22 -19 22 -6 c12 -3 36 -6 53 -6 17 0 34 -3 37 -7 10 -9 -13 -33 -33 -33 -9
0 -29 -13 -43 -30 -15 -16 -34 -30 -41 -30 -8 0 -18 -5 -22 -12 -5 -8 11 -9
64 -5 40 4 72 4 72 0 0 -8 -82 -35 -142 -48 -33 -6 -34 -20 -13 -93 16 -53 28
-68 46 -57 6 4 32 8 57 9 26 2 61 6 77 10 28 7 29 6 11 -8 -10 -8 -23 -17 -28
-18 -5 -2 -2 -20 7 -40 8 -21 15 -46 15 -57 0 -11 9 -22 20 -26 11 -3 20 -13
20 -21 0 -9 18 -23 40 -32 44 -19 53 -42 17 -42 -13 0 -31 -8 -41 -18 -9 -11
-34 -25 -56 -32 -70 -23 -45 -31 72 -24 83 5 109 4 104 -4 -4 -7 -16 -12 -26
-12 -10 0 -22 -5 -25 -10 -4 -6 -10 -8 -15 -5 -5 3 -21 0 -37 -6 -15 -6 -46
-13 -68 -15 -63 -7 -65 -9 -65 -66 0 -77 5 -82 89 -76 58 4 69 3 60 -8 -13
-16 -3 -34 20 -34 13 0 23 -20 41 -80 20 -65 29 -82 47 -86 32 -8 31 -44 -1
-44 -13 0 -43 -9 -67 -20 -24 -11 -54 -20 -66 -20 -13 0 -23 -5 -23 -11 0 -7
35 -10 107 -8 102 3 106 2 115 -20 7 -20 5 -21 -14 -16 -18 6 -20 4 -15 -14 4
-17 1 -21 -16 -21 -12 0 -44 -7 -71 -15 -61 -19 -58 -19 -84 5 l-22 20 -7 -27
c-3 -16 -7 -46 -7 -67 l-1 -40 55 -3 c34 -2 59 -9 66 -19 7 -8 16 -14 20 -13
30 5 41 -7 64 -63 13 -35 23 -72 22 -84 -2 -11 4 -26 12 -33 38 -32 -29 -66
-144 -74 -23 -1 -36 -8 -38 -18 -3 -14 12 -17 109 -18 62 -1 114 -3 116 -4 1
-2 -1 -23 -5 -48 -5 -28 -13 -44 -22 -45 -35 -2 -40 -5 -40 -20 0 -13 -11 -15
-67 -13 -60 4 -69 7 -79 28 -10 22 -12 21 -27 -25 -9 -27 -14 -50 -12 -53 3
-2 28 -6 57 -8 32 -2 56 -10 61 -19 4 -7 21 -14 36 -14 19 0 34 -8 44 -24 19
-28 43 -194 31 -206 -11 -10 -129 -30 -177 -30 -20 0 -37 -4 -37 -8 0 -10 137
-32 198 -32 l43 0 -6 -35 c-3 -19 -7 -51 -10 -70 -4 -21 -12 -35 -20 -35 -8 0
-15 5 -15 11 0 6 -6 9 -12 6 -7 -2 -12 -13 -10 -23 2 -11 0 -15 -5 -8 -4 6
-47 14 -94 17 -68 6 -88 4 -92 -6 -7 -20 7 -39 24 -32 8 3 32 -4 54 -15 21
-11 53 -20 71 -20 50 0 64 -25 63 -111 -2 -124 -6 -133 -64 -141 -28 -5 -76
-10 -108 -12 -31 -3 -58 -8 -60 -13 -1 -4 25 -11 58 -15 33 -5 85 -11 115 -16
l55 -7 -3 -35 c-2 -19 -8 -52 -13 -72 l-9 -37 -73 4 c-39 3 -89 9 -109 14 -27
6 -42 5 -54 -4 -23 -16 -9 -35 26 -35 16 0 35 -6 42 -13 7 -8 35 -16 62 -19
26 -3 53 -11 59 -17 14 -14 -7 -209 -25 -227 -9 -10 -46 -14 -121 -15 -59 0
-107 -5 -107 -9 0 -12 24 -19 105 -29 74 -10 125 -25 125 -38 -1 -5 -7 -35
-13 -68 l-13 -60 -69 4 c-39 2 -90 10 -113 18 -43 14 -72 12 -72 -5 0 -10 87
-47 153 -64 l49 -13 -5 -50 c-4 -55 -33 -165 -47 -179 -4 -4 -31 -6 -58 -5
-28 2 -48 0 -45 -5 3 -4 -3 -6 -13 -3 -39 12 -107 12 -111 1 -4 -13 28 -24 69
-24 28 0 126 -35 142 -50 6 -7 -18 -112 -30 -128 -6 -8 -161 21 -181 34 -28
18 -63 18 -63 1 0 -14 81 -57 148 -77 l43 -14 -7 -40 c-3 -23 -10 -46 -14 -51
-5 -6 -14 -30 -20 -55 -19 -74 -27 -80 -113 -81 -41 -1 -92 4 -112 11 -24 8
-40 9 -47 2 -13 -13 -1 -19 75 -42 72 -21 133 -46 141 -58 2 -4 -4 -32 -14
-62 l-19 -55 -44 2 c-25 2 -66 12 -92 23 -25 11 -53 20 -61 20 -8 0 -14 5 -14
10 0 6 -7 10 -15 10 -8 0 -15 -6 -15 -12 0 -14 30 -33 123 -80 31 -16 57 -30
57 -31 0 -2 -12 -28 -26 -58 -14 -30 -35 -75 -47 -101 -18 -38 -27 -47 -47
-48 -15 0 -31 5 -38 12 -6 6 -15 8 -19 4 -4 -4 1 -12 11 -18 15 -8 16 -12 5
-19 -10 -6 -8 -9 10 -9 20 0 21 -2 11 -15 -19 -23 -34 -18 -53 15 -14 22 -26
30 -47 30 -16 0 -32 4 -35 10 -8 13 -62 13 -70 0 -9 -14 39 -41 85 -47 22 -3
51 -16 65 -29 15 -13 33 -24 41 -24 15 0 11 -35 -7 -72 -5 -9 -9 -26 -9 -37 0
-12 -6 -21 -14 -21 -18 0 -119 32 -126 40 -10 12 -83 51 -87 46 -10 -9 24 -49
57 -65 99 -51 99 -51 92 -71 -4 -10 -10 -18 -15 -17 -4 1 -14 -10 -21 -25 -34
-65 -52 -94 -63 -101 -7 -4 -13 -15 -13 -22 0 -18 -9 -18 -47 -5 -26 9 -26 8
10 -24 25 -22 34 -36 25 -39 -9 -3 -7 -9 7 -21 37 -29 -7 -18 -58 14 -26 16
-51 30 -54 30 -4 0 -19 11 -33 25 -15 14 -41 29 -58 34 -31 9 -32 8 -32 -20 0
-23 4 -29 21 -29 11 0 17 -5 14 -10 -3 -6 2 -13 12 -16 10 -3 26 -10 35 -15
10 -5 25 -9 34 -9 11 0 14 -5 10 -16 -4 -11 1 -22 14 -31 17 -12 19 -21 14
-51 -3 -20 -10 -41 -14 -45 -8 -9 -133 50 -182 85 -16 11 -28 15 -28 11 0 -12
56 -63 107 -97 39 -26 48 -46 22 -46 -14 0 -48 -41 -49 -57 0 -7 -9 -17 -20
-23 -11 -6 -20 -15 -20 -20 0 -19 -40 -50 -65 -50 -31 0 -31 -5 0 -33 26 -23
45 -77 27 -77 -6 0 -14 5 -18 11 -3 6 -21 17 -38 25 -45 21 -100 54 -111 67
-5 7 -23 18 -38 25 -24 10 -28 10 -33 -6 -3 -9 -13 -30 -21 -46 -13 -23 -13
-28 -2 -24 8 3 19 -2 26 -11 6 -8 21 -16 34 -16 17 0 25 -8 31 -34 5 -19 23
-46 39 -60 26 -22 39 -51 23 -51 -16 0 -133 65 -156 87 -15 15 -31 23 -35 19
-5 -4 24 -37 62 -72 63 -57 67 -63 44 -64 -17 0 -45 -19 -88 -61 -58 -57 -65
-61 -97 -56 l-35 6 45 -47 c44 -45 61 -92 34 -92 -14 0 -112 62 -187 118 l-44
32 -16 -27 c-45 -78 -46 -81 -20 -102 13 -11 29 -20 35 -21 6 0 33 -21 60 -47
46 -45 47 -48 26 -51 -13 -2 -29 3 -35 10 -22 26 -108 90 -114 85 -3 -3 18
-30 46 -60 28 -30 51 -57 51 -60 0 -4 -13 -4 -30 0 -19 3 -30 1 -30 -6 0 -6
-5 -11 -11 -11 -10 0 -50 -30 -99 -74 -8 -7 -25 -12 -37 -10 -34 6 -31 -1 38
-84 6 -7 14 -25 18 -39 7 -25 10 -23 91 62 105 108 133 135 141 135 12 0 135
129 146 152 11 24 49 69 156 182 130 137 231 264 343 429 14 22 27 37 30 34 5
-4 -43 -136 -56 -152 -4 -5 -10 -21 -13 -35 -3 -14 -37 -108 -77 -210 -39
-102 -75 -196 -80 -210 -4 -14 -25 -68 -45 -120 -20 -52 -52 -138 -72 -190
-49 -132 -55 -148 -113 -295 -28 -71 -65 -166 -81 -210 -17 -44 -50 -132 -76
-195 -25 -63 -48 -124 -52 -135 -4 -11 -17 -40 -28 -65 -12 -25 -27 -63 -34
-85 -6 -22 -18 -49 -25 -60 -7 -11 -16 -37 -19 -57 -4 -20 -18 -58 -31 -84
-13 -26 -24 -55 -24 -64 0 -10 -7 -23 -15 -30 -8 -7 -15 -26 -15 -42 0 -16 -6
-41 -13 -56 -8 -15 -26 -65 -42 -112 -15 -47 -36 -107 -45 -135 -45 -125 -129
-409 -130 -434 0 -8 16 -29 36 -46 40 -36 40 -64 0 -90 -26 -17 -153 -45 -311
-69 -60 -9 -126 -21 -146 -26 -41 -11 -119 -13 -144 -4 -30 12 -56 83 -66 183
-23 228 -28 283 -38 411 -21 254 -41 505 -47 600 -7 118 -27 238 -44 269 -10
19 -10 25 1 32 8 5 19 9 25 9 6 0 21 9 34 20 16 14 18 20 9 20 -8 0 -19 -4
-25 -9 -5 -5 -27 -12 -49 -15 -38 -7 -41 -5 -52 24 -6 17 -19 30 -28 30 -11 0
-15 5 -12 14 3 8 -2 20 -11 28 -13 11 -14 11 -7 -1 5 -10 4 -12 -3 -7 -7 4
-12 15 -13 24 0 9 -13 27 -30 40 l-29 23 -10 -26 c-13 -34 -13 -35 4 -35 15 0
76 -64 76 -80 0 -21 -20 -8 -42 28 -17 28 -24 33 -26 19 -2 -10 3 -29 12 -42
9 -13 16 -37 17 -52 1 -15 4 -38 7 -49 l7 -22 43 20 c23 11 46 18 50 14 8 -9
-15 -24 -48 -32 -31 -7 -75 -28 -159 -76 -36 -21 -73 -38 -82 -38 -9 0 -19 -9
-22 -20 -3 -11 -13 -23 -24 -26 -10 -3 -32 -12 -50 -20 -17 -8 -37 -14 -45
-14 -15 0 -127 142 -135 170 -2 9 -12 21 -22 27 -16 10 -18 7 -19 -28 -2 -33
1 -39 16 -37 11 2 16 -2 13 -12 -4 -14 -4 -24 0 -67 1 -10 13 -33 26 -51 13
-17 21 -37 18 -42 -9 -14 -121 -70 -140 -70 -8 0 -15 -4 -15 -9 0 -5 -20 -15
-45 -22 -25 -7 -45 -19 -45 -26 0 -7 -12 -15 -27 -19 -16 -3 -42 -12 -60 -20
-17 -8 -39 -14 -48 -14 -23 0 -63 43 -71 76 -5 18 -10 22 -17 15 -8 -8 -18 -3
-34 16 l-23 28 7 -35 c4 -19 15 -48 25 -65 26 -43 23 -61 -14 -75 -18 -6 -53
-20 -78 -30 -57 -24 -99 -34 -127 -31 -15 2 -23 -3 -23 -12 0 -10 -23 -23 -62
-36 -90 -31 -105 -28 -124 18 -8 22 -22 42 -30 45 -8 3 -14 18 -14 33 0 22 -2
25 -10 13 -11 -17 -11 -17 -15 30 -4 50 -4 50 -15 50 -18 0 1 -123 26 -169 13
-24 24 -45 24 -48 0 -7 -54 -25 -135 -45 -136 -33 -133 -33 -144 -5 -5 14 -15
28 -22 33 -9 5 -10 2 -4 -12 4 -10 10 -29 12 -40 5 -23 1 -24 -117 -40 l-45
-6 -29 64 c-16 34 -35 82 -42 106 -7 23 -18 50 -24 60 -9 14 -10 13 -4 -8 4
-14 7 -43 6 -65 -1 -22 8 -66 19 -98 12 -33 17 -62 13 -67 -10 -8 -161 -32
-219 -34 -36 -1 -42 2 -57 32 -31 62 -34 55 -12 -24 5 -20 0 -23 -66 -35 -46
-8 -78 -9 -87 -3 -13 8 -58 118 -70 172 l-5 23 -14 -27 c-12 -23 -11 -34 6
-87 11 -33 20 -66 20 -72 0 -14 -39 -21 -166 -31 -89 -7 -92 -6 -107 17 -8 13
-21 49 -28 79 -11 45 -14 50 -17 27 -2 -16 3 -48 11 -72 9 -24 13 -46 9 -49
-3 -3 -42 -6 -87 -6 l-81 0 -24 93 c-12 50 -27 97 -33 102 -7 7 -8 4 -4 -8 4
-10 1 -26 -5 -37 -11 -17 -2 -79 19 -137 7 -18 -262 -19 -273 -1 -4 7 -16 48
-26 93 l-18 80 6 -94 5 -94 -83 8 c-95 8 -98 9 -98 37 0 42 -24 148 -33 148
-6 0 -8 -35 -5 -86 l5 -86 -66 6 c-36 3 -94 9 -128 12 -35 4 -67 12 -73 19 -6
7 -15 50 -20 95 -13 113 -23 115 -19 2 l4 -92 -37 0 c-20 0 -59 5 -87 11 l-50
10 -5 52 c-3 29 -7 66 -8 82 -2 17 -7 29 -13 27 -6 -1 -9 -33 -7 -78 l4 -76
-54 7 c-63 8 -167 31 -203 45 -24 9 -25 13 -25 94 0 46 -3 91 -6 100 -14 37
-19 10 -16 -85 3 -93 2 -100 -15 -96 -53 14 -111 27 -133 29 -24 3 -25 6 -28
83 -3 112 -16 126 -22 25 -5 -78 -7 -85 -25 -82 -50 6 -91 14 -105 20 -8 3
-42 15 -75 26 l-60 21 -3 108 c-1 59 -7 107 -12 107 -5 0 -9 -8 -10 -17 0 -10
-3 -53 -6 -95 -7 -90 -5 -89 -100 -56 l-64 22 0 77 c0 42 -3 90 -6 108 -6 26
-3 32 20 41 20 7 42 4 98 -15 66 -22 71 -22 50 -5 -41 34 -152 54 -167 30 -4
-6 -11 -8 -16 -5 -5 4 -9 -1 -9 -9 0 -31 -107 -16 -131 17 -4 5 -15 7 -25 5
-17 -3 -16 -6 7 -21 15 -10 52 -25 84 -34 49 -14 58 -14 67 -2 6 9 8 -13 5
-70 -3 -46 -10 -88 -16 -94 -9 -9 -22 -6 -98 24 -13 5 -33 13 -45 18 -13 4
-44 18 -70 30 -45 21 -47 23 -40 54 11 52 8 170 -4 174 -7 2 -12 -6 -13 -19
-5 -136 -19 -187 -44 -161 -19 18 -110 41 -149 36 -69 -8 -92 -21 -113 -65
-28 -57 -45 -61 -45 -8 0 23 -5 73 -12 111 -11 67 -13 71 -50 90 -21 11 -38
23 -38 27 0 4 6 39 13 77 18 93 16 129 -4 133 -13 2 -18 -8 -24 -50 -3 -29
-11 -69 -16 -88 -7 -28 -6 -37 8 -48 16 -11 16 -12 0 -12 -9 0 -17 3 -17 8 0
9 -118 68 -124 61 -2 -2 0 -26 5 -54 5 -27 14 -84 19 -125 5 -41 14 -106 20
-145 6 -38 15 -101 20 -140 28 -234 71 -562 74 -571 9 -25 37 -306 32 -312 -9
-8 -189 25 -253 48 -57 20 -70 20 -58 0 4 -6 15 -8 26 -5 18 6 19 0 19 -112
l0 -119 63 -175 c34 -96 71 -201 81 -234 11 -33 32 -94 47 -135 16 -41 29 -81
29 -87 0 -7 4 -13 8 -13 4 0 14 -15 20 -34 19 -53 84 -106 130 -106 20 0 42
-4 48 -8 17 -11 34 -126 34 -226 0 -48 4 -106 9 -129 5 -23 15 -76 21 -117 14
-89 34 -145 110 -305 81 -173 124 -215 218 -215 55 0 62 -12 62 -108 0 -46 4
-102 9 -125 5 -23 15 -69 22 -102 7 -33 21 -78 31 -100 24 -54 144 -168 208
-199 l51 -25 1497 1 c872 0 1645 -4 1852 -11 195 -6 549 -15 785 -21 237 -5
558 -15 715 -20 157 -6 416 -15 576 -21 l291 -10 49 27 c27 15 50 28 52 29 14
12 43 132 52 220 13 121 28 170 89 290 22 44 41 84 41 88 0 5 7 23 14 40 24
51 58 150 63 182 3 17 9 35 13 40 3 6 12 37 19 70 7 33 17 71 22 85 11 32 76
307 98 415 41 198 88 539 141 1025 6 52 13 109 16 125 3 17 14 111 24 210 11
99 24 220 30 270 6 49 15 146 20 215 6 69 15 179 20 245 5 66 14 181 19 255 6
74 12 149 15 165 2 17 10 109 16 205 6 96 15 203 20 236 6 34 10 82 10 107 0
43 27 147 41 157 3 3 10 16 14 30 9 33 108 293 137 360 6 14 14 33 19 42 5 10
9 26 9 35 0 10 8 32 18 48 10 17 22 44 26 60 4 17 13 44 21 60 18 41 89 227
115 300 12 33 25 69 30 80 5 11 57 139 115 285 58 146 112 279 119 295 8 17
44 105 80 197 37 93 86 210 110 260 47 100 66 119 246 249 41 30 87 64 101 76
14 13 55 44 91 70 36 27 112 85 169 131 57 46 122 97 144 115 53 42 135 124
165 165 14 19 34 46 46 60 29 37 60 170 113 493 6 37 11 88 11 115 -1 81 -10
84 -278 95 -125 6 -237 14 -249 19 -17 7 -23 18 -23 39 0 16 4 32 9 35 5 3
105 8 222 11 271 7 349 13 366 27 8 6 30 35 49 64 19 29 50 62 69 72 29 18 37
32 60 108 35 113 42 161 56 367 23 345 -16 735 -90 899 -15 33 -32 52 -55 63
-20 9 -39 29 -46 46 -8 19 -20 29 -33 29 -36 0 -106 31 -101 45 7 17 -90 25
-313 25 -156 0 -183 2 -183 15 0 8 5 15 10 15 6 0 10 14 10 30 l0 30 123 0
c86 0 135 -5 167 -16 67 -24 169 -14 215 22 33 25 35 30 35 86 0 33 -9 106
-19 162 -69 358 -85 434 -96 456 -23 44 -209 226 -273 268 -25 16 -41 29 -83
67 -9 8 -18 15 -22 15 -3 0 -46 29 -94 66 -101 74 -97 72 -221 159 -51 36 -97
65 -102 65 -5 0 -13 6 -17 13 -9 15 -118 87 -132 87 -8 0 -61 112 -61 129 0 6
-29 81 -63 168 -87 215 -147 371 -147 379 0 3 -7 20 -15 37 -8 18 -27 68 -43
112 -26 69 -81 214 -179 465 -14 36 -32 80 -41 99 -10 24 -16 81 -18 190 -11
449 -40 1352 -54 1681 -6 135 -13 344 -16 465 -5 246 -19 404 -39 452 -16 38
-83 113 -101 113 -7 0 -19 6 -26 13 -29 30 -158 60 -327 79 -88 9 -118 16
-131 31 -21 22 -29 66 -36 197 -3 52 -9 104 -14 115 -5 11 -16 61 -25 110 -10
50 -23 108 -30 130 -7 22 -18 66 -25 98 -8 32 -17 60 -22 63 -4 3 -8 20 -8 38
0 18 -3 36 -7 40 -9 8 -33 77 -33 94 0 7 -9 31 -19 55 -30 65 -38 106 -33 177
2 36 -1 108 -8 160 -6 52 -17 157 -24 232 -11 123 -15 142 -42 185 -16 26 -43
54 -58 62 -37 17 -180 21 -431 11z m2252 -6515 c27 -19 57 -44 68 -55 12 -11
24 -20 28 -20 21 0 77 -47 77 -65 0 -15 2 -17 9 -6 7 11 16 8 47 -15 22 -16
45 -35 52 -41 7 -7 17 -13 22 -13 4 0 26 -15 48 -32 22 -18 66 -53 97 -78 31
-25 62 -51 69 -58 6 -7 27 -30 47 -50 20 -21 47 -67 64 -109 22 -58 31 -71 42
-62 17 14 17 -3 1 -20 -9 -8 -9 -11 -1 -9 12 3 14 -8 5 -30 -2 -7 0 -23 6 -35
9 -19 10 -17 5 13 -4 25 -3 32 6 25 6 -6 20 -60 30 -120 11 -61 25 -138 32
-171 7 -34 9 -69 6 -77 -10 -26 -68 -35 -234 -36 -175 -2 -285 -15 -321 -39
-29 -19 -39 -7 -40 47 -1 68 -48 307 -87 446 -8 28 -22 84 -30 125 -9 41 -19
82 -22 90 -3 8 -5 21 -4 28 1 6 -3 12 -9 12 -5 0 -10 7 -10 15 0 8 5 15 11 15
6 0 9 6 6 13 -2 6 -9 11 -15 10 -12 -3 -24 51 -15 74 4 11 3 14 -5 9 -7 -4
-10 -2 -6 7 4 11 -9 47 -44 121 -3 5 0 6 7 2 14 -9 14 14 1 49 -9 23 -5 75 6
75 2 0 25 -16 51 -35z m849 -1291 c-3 -9 -6 -24 -6 -34 0 -14 -8 -18 -37 -19
-21 0 -139 -4 -263 -8 -237 -8 -303 -7 -294 8 3 5 92 9 197 9 226 0 289 6 315
31 12 11 28 16 41 12 12 -3 21 -1 21 6 0 6 7 11 16 11 11 0 14 -5 10 -16z m20
-99 c21 -46 9 -98 -23 -103 -12 -2 -25 -12 -28 -23 -4 -12 -13 -18 -20 -15 -8
3 -15 1 -17 -3 -4 -11 -83 -19 -273 -26 -88 -4 -172 -8 -187 -10 -15 -2 -29 2
-31 8 -7 19 -17 3 -23 -34 l-6 -34 224 0 c237 0 320 -10 343 -41 17 -22 21
-149 5 -139 -5 3 -10 23 -10 43 -1 104 -9 107 -313 98 -133 -4 -251 -7 -262
-7 -48 2 -65 -9 -65 -39 0 -19 -7 -33 -20 -40 -17 -9 -20 -8 -20 10 0 28 50
90 73 90 23 0 40 45 34 95 -4 40 31 144 40 118 2 -7 0 -21 -6 -32 -6 -11 -11
-21 -11 -23 0 -2 87 0 192 4 106 4 223 8 261 8 l67 2 0 44 c0 40 2 44 25 44
14 0 25 5 25 11 0 6 -12 9 -27 7 -22 -2 -33 -13 -51 -50 -16 -34 -28 -48 -43
-48 -16 0 -19 4 -14 23 4 12 14 28 23 35 13 10 -30 12 -224 13 -140 0 -231 4
-219 9 11 5 110 9 220 9 143 1 213 5 245 15 76 24 97 21 116 -19z m-78 -324
c10 -6 12 -25 8 -70 -4 -49 -2 -63 9 -67 38 -15 7 -24 -82 -25 -113 0 -100
-15 23 -26 77 -6 84 -12 84 -71 0 -13 8 -46 17 -74 14 -43 18 -48 24 -30 4 11
12 82 17 157 5 75 12 138 14 141 3 2 12 2 20 -1 24 -10 29 -75 37 -485 4 -212
9 -389 10 -395 6 -18 1 -55 -7 -55 -27 0 -49 138 -34 220 6 31 7 73 2 95 -7
36 -8 34 -9 -30 -3 -89 -15 -64 -32 69 -7 53 -16 93 -20 89 -4 -5 -13 -55 -19
-113 -6 -58 -16 -109 -21 -114 -15 -17 -10 -26 15 -26 19 0 24 -6 30 -37 10
-64 7 -88 -18 -137 -17 -34 -23 -58 -19 -81 4 -23 1 -34 -10 -38 -21 -8 -77 9
-91 28 -17 24 -109 44 -251 55 -71 5 -152 12 -179 15 l-48 6 6 -48 c6 -46 6
-47 -7 -18 -8 17 -13 41 -13 55 1 20 6 25 26 23 14 -2 140 -6 280 -9 235 -7
254 -6 241 9 -11 15 -10 18 15 28 25 10 26 13 10 17 -11 2 -26 -4 -35 -16 -14
-17 -30 -19 -146 -20 -71 -1 -137 3 -145 8 -10 7 15 10 80 10 52 1 113 5 135
9 27 6 -20 9 -147 10 -181 1 -188 2 -188 21 0 17 -5 19 -36 15 -20 -2 -34 -2
-31 2 7 6 -22 32 -35 33 -5 0 -8 -16 -8 -35 0 -29 -4 -35 -21 -35 -17 0 -19 4
-13 18 13 29 9 80 -9 100 -11 11 -17 36 -17 63 0 24 -5 51 -11 59 -7 11 -9
-14 -4 -88 3 -56 8 -109 11 -117 4 -8 2 -15 -2 -15 -17 0 -44 62 -44 98 0 19
-6 43 -13 51 -20 24 -8 150 15 165 14 8 20 7 31 -7 10 -15 17 -16 40 -8 37 14
49 -12 18 -40 -16 -15 -21 -32 -21 -74 l0 -55 173 -2 c94 -2 204 0 242 5 39 4
87 8 108 8 20 1 39 5 42 8 2 4 -2 25 -10 47 -8 21 -14 35 -15 30 0 -6 -6 -1
-14 9 -8 12 -26 19 -50 19 -58 1 -41 16 19 16 56 0 73 15 33 28 -13 4 -120 5
-238 2 -118 -3 -218 -4 -223 -2 -4 2 -5 8 -2 13 4 5 112 9 253 9 298 1 287 -3
284 102 -2 39 -5 75 -8 80 -3 5 -123 6 -270 3 -232 -5 -264 -4 -264 10 0 13
25 15 178 15 97 0 207 3 245 7 l67 6 0 33 c0 18 -4 36 -10 39 -5 3 -10 22 -10
41 0 27 -4 34 -20 34 -14 0 -20 -7 -20 -22 0 -16 -3 -19 -11 -11 -13 13 -87 6
-107 -10 -10 -8 -16 -7 -22 2 -10 17 -30 6 -30 -16 0 -13 -3 -13 -16 -2 -12
10 -17 10 -23 0 -5 -7 -17 -11 -27 -9 -13 2 -20 -4 -22 -19 -2 -13 -8 -23 -13
-23 -6 0 -8 9 -4 19 6 21 -10 38 -20 21 -3 -5 -26 -8 -50 -5 -42 3 -61 -7 -32
-18 9 -4 8 -8 -3 -16 -24 -17 -29 -13 -41 31 -8 31 -8 43 0 46 17 6 13 19 -20
65 -30 41 -30 42 -9 45 20 3 21 8 15 60 -4 31 -9 65 -11 74 -5 15 7 18 103 21
242 7 409 6 421 -2z m-578 -188 c0 -5 -7 -48 -14 -98 -8 -49 -12 -92 -10 -94
12 -13 33 14 43 56 7 26 17 53 23 60 5 7 7 17 3 23 -3 5 -3 10 2 10 4 0 8 -42
9 -92 0 -51 2 -129 4 -173 l4 -80 -29 3 c-17 2 -31 5 -32 6 -2 1 -4 33 -5 71
-3 66 -2 69 22 76 21 5 22 8 8 13 -9 4 -29 6 -45 4 -30 -3 -31 -5 -22 -107 3
-28 0 -46 -8 -48 -13 -5 -24 156 -11 172 12 14 10 125 -2 125 -5 0 -10 -11
-10 -25 0 -14 -7 -37 -16 -50 -9 -14 -14 -34 -11 -45 3 -11 1 -18 -4 -14 -14
8 -10 56 7 89 9 17 17 48 17 70 2 33 6 40 27 46 35 10 50 10 50 2z m-26 -1148
c1 -10 11 -19 22 -21 10 -1 45 -9 77 -17 33 -9 116 -21 185 -27 146 -12 258
-35 266 -56 3 -8 1 -38 -4 -66 -5 -29 -14 -93 -20 -143 -19 -145 -39 -254 -51
-277 -40 -75 -187 -194 -469 -380 -97 -64 -182 -123 -189 -132 -7 -9 -17 -16
-22 -16 -15 0 -98 -61 -123 -91 -14 -16 -34 -50 -45 -74 -11 -25 -24 -45 -30
-45 -10 0 -8 14 9 55 4 11 18 47 30 80 23 63 30 82 49 128 6 15 11 36 10 45
-1 21 -37 -56 -38 -80 -1 -10 -5 -18 -11 -18 -12 0 -12 6 -1 44 5 17 22 76 37
131 15 55 40 142 56 193 17 51 38 126 48 165 10 40 32 128 49 197 49 193 60
240 71 315 12 78 13 80 43 80 16 0 23 7 25 24 4 26 22 16 26 -14z m-128 -102
c-19 -112 -36 -189 -78 -358 -16 -66 -35 -142 -42 -170 -29 -119 -147 -486
-162 -504 -2 -2 -7 -2 -10 1 -3 3 17 74 45 157 28 83 51 166 51 184 1 54 56
267 73 280 20 15 48 123 46 179 -3 67 41 279 65 310 11 15 22 26 24 23 2 -2
-3 -48 -12 -102z"/>
<path d="M7340 17027 c-3 -3 -59 -10 -125 -17 -201 -20 -267 -28 -330 -39 -33
-6 -87 -15 -120 -21 -33 -5 -80 -15 -105 -20 -25 -6 -64 -13 -88 -15 -24 -2
-49 -8 -55 -13 -7 -5 -25 -12 -42 -15 -87 -17 -129 -28 -225 -57 -58 -18 -122
-35 -142 -37 -21 -3 -35 -9 -32 -14 3 -5 -8 -9 -25 -9 -16 0 -33 -4 -36 -10
-3 -5 -15 -10 -26 -10 -10 0 -27 -4 -37 -10 -9 -5 -46 -19 -82 -30 -36 -12
-74 -25 -85 -30 -11 -5 -45 -19 -75 -30 -138 -55 -197 -79 -270 -112 -111 -51
-155 -73 -158 -80 -2 -5 -11 -8 -19 -8 -9 0 -50 -19 -92 -41 -137 -75 -186
-102 -216 -121 -16 -10 -41 -23 -55 -30 -14 -7 -56 -33 -95 -59 -38 -25 -91
-58 -118 -75 -63 -39 -269 -186 -296 -212 -8 -7 -26 -21 -40 -30 -31 -20 -32
-21 -186 -152 -66 -56 -121 -106 -123 -111 -2 -5 -8 -9 -13 -9 -10 0 -8 2
-153 -140 -59 -57 -149 -149 -199 -204 -146 -158 -162 -176 -232 -264 -27 -34
-53 -62 -57 -62 -5 0 -8 -5 -8 -11 0 -6 -15 -28 -32 -48 -18 -21 -58 -73 -88
-116 -30 -43 -63 -86 -72 -96 -10 -11 -18 -21 -18 -23 0 -2 -29 -47 -65 -100
-36 -53 -65 -101 -65 -107 0 -5 -7 -12 -15 -15 -8 -3 -17 -15 -21 -26 -5 -18
-24 -49 -66 -110 -36 -53 -220 -412 -291 -568 -88 -195 -155 -364 -202 -510
-16 -47 -36 -107 -46 -134 -11 -27 -19 -56 -19 -65 0 -19 -24 -88 -33 -97 -4
-4 -7 -19 -7 -32 0 -24 -12 -71 -31 -117 -4 -11 -10 -36 -13 -55 -7 -51 -16
-92 -26 -115 -5 -11 -11 -40 -14 -65 -2 -25 -9 -65 -15 -90 -7 -25 -16 -74
-21 -110 -5 -36 -14 -92 -20 -125 -6 -33 -16 -100 -21 -150 -5 -49 -11 -112
-14 -140 -30 -263 -35 -341 -35 -527 0 -354 45 -808 110 -1108 7 -30 18 -84
25 -120 37 -190 168 -633 226 -765 5 -11 18 -47 30 -80 11 -33 29 -79 40 -102
10 -24 19 -45 19 -48 0 -2 16 -40 36 -82 19 -43 41 -91 49 -108 26 -57 132
-270 162 -325 55 -100 115 -203 123 -210 3 -3 14 -21 24 -40 32 -59 193 -298
269 -399 40 -53 75 -100 79 -106 4 -5 27 -33 50 -62 24 -28 70 -84 103 -124
125 -151 398 -432 549 -564 38 -33 83 -74 102 -91 18 -17 68 -57 111 -90 43
-32 80 -61 83 -65 25 -28 414 -298 503 -348 18 -10 77 -44 132 -76 100 -58
482 -250 520 -261 11 -4 34 -12 50 -20 167 -74 562 -211 665 -230 19 -4 40
-10 45 -15 6 -4 42 -14 80 -23 39 -8 99 -22 135 -30 165 -38 219 -49 275 -56
33 -4 105 -14 160 -23 55 -9 146 -21 203 -27 56 -5 146 -15 200 -21 113 -13
749 -6 882 10 47 5 130 14 185 20 55 6 125 15 155 21 30 7 82 15 115 20 64 8
207 35 265 50 19 5 76 19 125 30 50 12 98 25 107 31 10 5 25 9 34 9 15 0 199
53 239 69 11 5 61 22 110 39 105 36 260 94 307 116 18 8 83 37 145 65 219 99
510 255 656 352 32 21 61 39 63 39 14 0 360 244 384 270 4 5 93 74 145 112
112 83 586 548 701 688 130 156 274 340 274 348 0 5 8 17 18 28 16 17 172 247
209 309 7 11 38 63 70 115 125 206 290 539 383 775 17 44 37 94 44 110 15 35
23 58 75 215 115 344 214 765 246 1050 4 30 11 87 15 125 17 130 35 469 34
640 -1 186 -18 517 -34 635 -5 41 -14 111 -19 155 -5 44 -16 114 -24 155 -8
41 -21 107 -27 145 -6 39 -14 77 -18 85 -3 8 -7 27 -9 43 -10 88 -137 523
-208 712 -96 256 -124 321 -253 585 -47 96 -103 204 -124 239 -21 34 -38 65
-38 66 0 2 -22 39 -48 82 -27 43 -64 103 -82 133 -19 30 -37 57 -40 60 -3 3
-34 46 -67 97 -92 138 -219 302 -386 498 -106 124 -388 412 -492 501 -173 148
-209 178 -272 226 -290 220 -339 254 -623 426 -179 108 -627 332 -664 332 -6
0 -16 4 -22 9 -5 4 -52 25 -104 46 -52 20 -104 41 -115 45 -143 59 -674 211
-780 224 -16 2 -65 11 -107 20 -113 24 -279 47 -473 68 -98 10 -896 23 -905
15z m770 -186 c156 -10 291 -29 304 -42 6 -5 2 -15 -11 -26 -11 -10 -44 -52
-74 -93 -29 -41 -57 -79 -61 -85 -12 -14 -72 -95 -158 -211 -113 -152 -193
-257 -210 -275 -13 -14 -54 -17 -297 -21 l-283 -5 -60 81 c-33 44 -64 86 -68
91 -4 6 -30 42 -57 80 -27 39 -55 76 -62 83 -7 7 -13 18 -13 24 0 6 -8 18 -18
27 -9 9 -35 42 -56 73 -21 32 -47 66 -57 77 -11 11 -19 23 -19 26 0 7 -73 109
-84 116 -5 4 -6 14 -3 22 3 9 28 16 74 21 37 4 100 11 138 16 39 5 151 14 250
20 99 5 194 12 210 14 46 6 463 -3 615 -13z m66 -496 c-4 -19 -11 -70 -17
-112 -5 -43 -13 -98 -17 -123 l-7 -45 -40 3 c-22 2 -43 7 -47 11 -4 3 -4 42 1
85 7 64 15 86 42 124 68 98 96 116 85 57z m502 9 c24 -7 27 -22 12 -68 -5 -17
-21 -79 -35 -139 -38 -160 -35 -155 -87 -148 -49 7 -48 0 -19 131 11 52 26
120 32 150 6 30 13 61 15 68 4 13 44 16 82 6z m500 -131 c26 -6 28 -27 6 -79
-9 -22 -20 -52 -24 -69 -7 -27 -32 -101 -51 -150 -4 -11 -10 -28 -13 -37 -5
-17 -34 -18 -83 -2 -15 4 -17 55 -4 70 5 5 16 34 26 64 10 30 23 69 30 85 7
17 18 50 25 75 18 61 19 63 44 55 11 -4 31 -9 44 -12z m1062 -13 c0 -5 20 -16
45 -26 25 -9 45 -19 45 -23 0 -3 29 -22 65 -41 36 -19 65 -41 65 -49 0 -7 -13
-30 -30 -51 -16 -21 -30 -43 -30 -49 0 -6 -4 -11 -9 -11 -5 0 -12 -8 -15 -18
-4 -10 -14 -27 -24 -38 -10 -10 -47 -62 -82 -114 -69 -103 -211 -302 -220
-310 -4 -3 -9 -13 -13 -22 -8 -24 -30 -23 -52 2 -10 11 -24 20 -30 20 -7 0
-23 8 -36 19 -13 10 -33 20 -43 22 -46 9 -41 29 65 234 57 110 133 259 169
330 36 72 69 133 73 136 11 8 57 -1 57 -11z m-5108 -147 c31 -65 81 -170 111
-233 30 -63 78 -164 107 -223 l53 -109 -29 -24 c-16 -13 -32 -23 -36 -24 -4 0
-33 -16 -63 -36 -37 -23 -62 -33 -75 -29 -11 4 -38 37 -61 75 -22 38 -47 74
-55 81 -8 6 -14 15 -14 19 0 4 -42 70 -92 146 -100 150 -113 171 -124 194 -4
8 -10 17 -13 20 -4 3 -18 24 -33 46 l-27 42 57 39 c31 22 89 57 127 77 39 21
74 42 80 47 20 20 33 4 87 -108z m4528 -18 c17 -9 30 -21 30 -27 0 -6 -15 -43
-33 -82 -19 -39 -51 -108 -72 -153 -27 -57 -45 -83 -56 -83 -10 0 -21 5 -24
10 -3 6 -15 10 -26 10 -32 0 -30 5 73 230 48 105 51 110 65 110 8 0 27 -7 43
-15z m-1550 -265 c138 -10 286 -27 355 -40 219 -41 301 -59 330 -69 17 -6 68
-20 115 -32 145 -36 370 -115 370 -130 0 -4 -27 3 -60 16 -65 26 -211 71 -335
105 -44 11 -94 25 -111 31 -62 19 -345 70 -504 90 -134 18 -220 22 -460 23
-162 1 -344 -3 -405 -7 -60 -5 -107 -6 -103 -2 20 21 593 31 808 15z m2450
-250 c13 -11 27 -20 32 -20 11 0 11 -27 -1 -32 -4 -1 -50 -59 -101 -128 -51
-69 -96 -129 -100 -133 -8 -9 -80 30 -80 44 0 9 137 194 172 233 10 11 18 25
18 32 0 11 13 21 31 23 3 1 16 -8 29 -19z m-2850 -251 l50 -11 0 -533 c0 -518
-1 -535 -19 -545 -29 -15 -256 -13 -269 3 -10 12 -45 145 -126 487 -25 107
-62 260 -82 340 -44 176 -51 232 -32 248 23 18 401 27 478 11z m681 -16 c10
-10 2 -56 -39 -220 -28 -115 -71 -293 -97 -398 -25 -104 -54 -224 -65 -265
-10 -41 -24 -98 -30 -127 -14 -60 -17 -62 -174 -64 -86 -1 -101 1 -113 17 -10
14 -13 114 -13 490 0 507 5 569 43 577 12 3 124 4 249 3 164 -1 230 -4 239
-13z m2575 -58 c3 -8 15 -17 25 -20 11 -4 19 -10 17 -15 -2 -5 -43 -52 -93
-106 -141 -152 -152 -164 -157 -164 -10 0 -58 49 -58 60 0 11 22 37 120 143
30 32 66 72 80 88 27 31 57 38 66 14z m390 -380 l26 -35 -33 -27 c-19 -16 -64
-55 -102 -88 -129 -113 -135 -117 -157 -110 -11 3 -20 12 -20 20 0 7 -7 16
-16 19 -9 3 -14 10 -12 14 2 5 43 44 93 87 49 42 107 95 130 116 22 21 45 39
52 39 7 0 24 -16 39 -35z m-1701 -154 c72 -32 141 -117 165 -204 17 -63 8
-165 -19 -218 -29 -55 -93 -115 -154 -145 -69 -33 -196 -34 -265 -3 -60 28
-118 89 -150 158 -35 77 -34 193 4 264 28 55 89 119 136 143 71 37 206 39 283
5z m-3428 -8 c35 -16 104 -78 144 -129 38 -49 50 -174 24 -262 -17 -55 -83
-137 -139 -171 -54 -33 -141 -45 -218 -31 -38 7 -73 19 -79 27 -6 7 -16 13
-21 13 -14 0 -70 48 -85 74 -28 47 -45 90 -55 142 -27 134 67 296 195 337 29
9 59 18 67 21 27 10 127 -3 167 -21z m-2867 -193 c19 -11 62 -34 95 -51 33
-17 62 -35 65 -39 3 -4 17 -13 32 -21 97 -50 225 -129 254 -157 56 -54 49 -89
-60 -279 -51 -89 -94 -143 -122 -153 -30 -12 -108 11 -173 50 -27 15 -75 43
-107 61 -33 17 -61 35 -64 38 -3 4 -16 12 -30 19 -14 7 -46 24 -71 40 -144 86
-169 116 -149 180 26 81 163 314 192 325 32 13 105 6 138 -13z m8821 -54 c29
-55 25 -60 -77 -117 -40 -22 -76 -44 -79 -50 -4 -5 -12 -9 -19 -9 -7 0 -51
-23 -97 -51 -46 -28 -102 -60 -124 -70 -22 -11 -56 -28 -75 -40 -99 -59 -157
-87 -167 -81 -13 9 -53 83 -53 99 0 7 6 13 14 13 8 0 16 4 18 8 3 9 48 35 158
95 41 23 156 87 255 144 99 57 189 103 201 103 15 0 28 -13 45 -44z m-517 28
c9 -3 16 -12 16 -20 0 -8 5 -14 10 -14 19 0 10 -42 -10 -47 -11 -3 -20 -9 -20
-13 0 -6 -52 -45 -102 -75 -9 -5 -44 -29 -77 -52 -33 -24 -64 -43 -67 -43 -8
0 -54 52 -54 60 0 3 43 37 96 75 53 39 115 84 138 102 45 35 47 36 70 27z
m598 -206 c30 -18 53 -47 108 -138 52 -87 90 -170 90 -197 0 -29 -55 -76 -155
-134 -145 -83 -157 -90 -215 -122 -30 -17 -66 -38 -80 -47 -42 -28 -118 -60
-143 -60 -26 0 -97 55 -97 76 0 8 -4 14 -8 14 -5 0 -15 12 -23 28 -7 15 -30
54 -50 87 -45 72 -63 133 -50 167 14 36 46 60 176 133 66 36 138 78 160 91 71
43 179 97 210 105 45 11 53 10 77 -3z m-9215 -245 c29 -26 17 -60 -68 -205
-16 -27 -29 -53 -29 -58 0 -4 -4 -10 -9 -12 -5 -1 -11 -17 -15 -33 -6 -29 -3
-32 50 -63 31 -17 59 -32 63 -32 4 0 13 10 19 23 7 12 30 54 52 92 22 39 43
77 47 85 23 47 98 70 160 48 48 -16 190 -102 222 -133 41 -40 34 -94 -29 -200
-16 -27 -43 -77 -60 -109 -47 -90 -76 -116 -127 -116 -54 0 -118 27 -134 57
-10 19 -8 30 12 70 30 61 36 65 81 58 34 -5 37 -3 59 38 12 23 28 53 35 67 23
42 17 59 -33 90 -26 17 -52 30 -59 30 -11 0 -69 -91 -127 -200 -52 -99 -70
-107 -135 -67 -20 13 -62 37 -92 54 -30 16 -71 40 -90 51 -19 12 -52 31 -72
42 -46 25 -49 49 -12 117 15 26 34 62 42 78 8 17 19 32 23 35 5 3 15 21 24 40
9 19 25 51 37 70 11 19 29 50 38 68 29 53 49 64 85 44 16 -10 35 -22 42 -29z
m-272 -139 c-41 -80 -81 -166 -91 -192 -9 -26 -29 -74 -44 -107 -94 -199 -224
-601 -294 -907 -19 -79 -43 -185 -56 -245 -6 -23 -11 -54 -11 -70 -1 -23 -3
-24 -6 -6 -10 53 154 738 186 777 5 6 13 29 17 51 4 22 27 94 51 160 49 134
49 134 92 226 17 37 31 72 31 78 0 6 4 19 9 29 6 9 46 92 90 185 44 92 85 167
90 167 5 0 -24 -65 -64 -146z m1404 18 c-13 -15 -33 -45 -44 -65 -11 -20 -28
-40 -37 -43 -10 -3 -16 -10 -12 -15 3 -5 -32 -76 -79 -157 -46 -81 -103 -187
-127 -235 -24 -49 -48 -90 -52 -93 -4 -3 -8 -14 -8 -24 0 -11 -17 -57 -39
-102 -21 -46 -41 -92 -44 -103 -3 -11 -20 -56 -37 -100 -17 -44 -35 -93 -40
-110 -5 -16 -20 -63 -34 -103 -14 -41 -26 -82 -26 -91 0 -9 -4 -21 -9 -26 -4
-6 -23 -73 -40 -150 -18 -77 -36 -150 -41 -161 -5 -12 -11 -43 -15 -70 -4 -27
-9 -60 -11 -74 -76 -463 -88 -745 -48 -1180 23 -259 60 -476 116 -677 11 -40
18 -81 16 -90 -3 -17 -30 74 -48 162 -4 22 -15 65 -23 95 -8 30 -20 91 -27
135 -6 44 -15 96 -20 115 -23 89 -50 438 -50 652 0 231 24 533 57 708 9 47 19
110 24 140 12 91 75 363 89 391 5 10 4 21 -1 26 -6 6 -4 14 6 23 8 7 15 25 15
41 0 16 3 29 8 29 7 0 18 27 47 120 30 95 81 236 96 270 9 19 29 61 44 93 15
32 24 65 21 73 -3 8 -2 12 3 9 6 -3 21 17 35 45 14 27 22 50 19 50 -4 0 0 6 9
13 9 6 19 25 22 41 4 16 26 56 49 90 23 33 53 81 66 106 14 25 33 56 43 70 10
14 20 36 23 50 3 14 9 26 15 28 5 2 10 10 10 18 0 8 7 14 15 14 8 0 15 4 15 8
0 13 62 93 67 88 3 -3 -5 -18 -18 -34z m6261 -156 c0 -3 -26 -22 -57 -43 -68
-45 -108 -81 -100 -89 3 -3 -14 -36 -37 -73 -24 -37 -47 -77 -50 -89 -4 -12
-12 -22 -17 -22 -5 0 -9 -6 -9 -14 0 -37 -91 -146 -195 -231 -27 -22 -77 -65
-111 -95 -34 -30 -114 -100 -179 -155 -65 -55 -157 -134 -204 -175 -48 -41
-114 -97 -149 -124 -34 -27 -62 -52 -62 -56 0 -4 -27 -28 -60 -54 -34 -25 -58
-51 -55 -56 3 -5 0 -12 -6 -16 -8 -5 -9 -3 -4 6 5 8 3 11 -6 8 -8 -3 -13 -12
-13 -21 1 -9 -2 -14 -6 -12 -5 3 -20 -5 -33 -17 -13 -13 -43 -39 -67 -58 -23
-19 -54 -46 -70 -60 -15 -14 -60 -53 -101 -86 -41 -34 -90 -76 -109 -94 -19
-18 -55 -49 -80 -68 -25 -20 -50 -41 -55 -46 -19 -20 -111 -101 -156 -136 -24
-19 -55 -47 -70 -62 l-27 -27 -37 57 c-39 60 -41 50 -8 -45 10 -29 23 -53 29
-53 7 0 30 18 53 40 22 22 46 40 53 40 16 0 58 41 58 57 0 7 7 13 15 13 9 0
18 7 21 15 3 8 14 17 24 20 10 3 30 24 46 46 20 29 30 36 36 27 6 -10 10 -7
14 10 4 12 11 22 16 22 6 0 30 18 55 40 25 22 49 37 54 34 5 -3 9 0 9 5 0 12
100 110 127 125 31 17 62 49 57 58 -3 5 -2 8 3 7 24 -4 43 3 43 16 0 8 18 27
40 41 22 15 40 31 40 37 0 6 2 8 5 5 7 -7 47 27 136 114 38 36 69 64 69 62 0
-3 10 4 22 16 26 24 38 26 38 5 0 -8 -4 -15 -8 -15 -5 0 -29 -19 -53 -42 -52
-50 -181 -164 -218 -193 -23 -18 -50 -42 -129 -112 -13 -13 -28 -20 -33 -17
-5 3 -9 1 -9 -5 0 -5 -17 -24 -37 -43 -20 -18 -52 -48 -71 -65 -19 -18 -38
-33 -42 -33 -4 0 -31 -25 -61 -55 -30 -30 -57 -55 -62 -55 -4 0 -24 -15 -44
-32 -19 -18 -56 -52 -82 -75 -93 -84 -134 -114 -149 -108 -12 4 -12 3 -3 -9
17 -21 -2 -29 -48 -21 -35 6 -42 3 -106 -52 -38 -32 -93 -80 -122 -107 l-53
-49 0 -62 c0 -132 -83 -238 -208 -266 -42 -9 -87 -37 -141 -88 -15 -13 -42
-34 -61 -46 -19 -12 -68 -50 -109 -84 -40 -34 -76 -60 -78 -57 -3 2 13 27 34
55 21 28 57 76 81 108 23 32 63 85 87 117 50 66 53 76 28 76 -17 0 -123 -105
-123 -121 0 -4 -14 -23 -31 -41 -17 -18 -37 -49 -46 -68 -8 -19 -17 -29 -20
-22 -3 6 -9 9 -15 6 -6 -4 -5 -9 3 -15 10 -6 9 -12 -5 -28 -11 -12 -25 -21
-32 -21 -8 0 -11 -6 -8 -15 4 -8 2 -15 -3 -15 -13 0 -96 -111 -88 -118 3 -3
12 3 20 14 8 10 15 14 15 8 0 -6 -9 -19 -20 -29 -12 -11 -20 -13 -20 -6 0 7
-5 9 -10 6 -6 -4 -8 -15 -5 -25 3 -10 1 -21 -4 -25 -7 -3 -8 0 -5 9 3 9 1 16
-5 16 -6 0 -11 -6 -11 -14 0 -7 -7 -19 -15 -26 -8 -6 -13 -15 -12 -19 4 -12
-38 -58 -51 -53 -7 2 -10 -2 -6 -11 11 -29 -46 -111 -61 -87 -3 5 -15 10 -25
10 -14 0 -18 5 -13 18 7 18 48 76 71 101 15 15 10 24 -16 26 -40 4 -110 17
-149 28 l-43 11 0 115 0 114 123 121 c68 67 169 165 225 219 56 55 102 102
102 105 0 4 -12 15 -28 24 -45 28 -146 97 -167 114 -20 16 -98 72 -149 109
-55 38 -202 147 -325 238 -184 137 -184 137 -202 137 -9 0 -21 -12 -27 -27 -5
-16 -17 -49 -27 -75 -9 -26 -20 -50 -25 -53 -11 -7 -40 5 -40 16 0 9 -39 69
-51 79 -3 3 -14 19 -23 35 -9 17 -30 48 -47 70 -16 22 -33 47 -37 56 -4 8 -35
55 -70 105 -34 49 -112 161 -172 249 -60 88 -113 165 -117 170 -5 6 -27 39
-50 74 -42 64 -42 65 -25 93 30 52 33 53 154 18 62 -17 117 -36 123 -41 5 -5
17 -9 27 -9 10 0 71 -16 136 -36 64 -20 126 -38 137 -41 11 -3 74 -21 140 -41
66 -19 131 -37 145 -39 14 -3 34 -8 45 -12 31 -13 85 -28 145 -42 30 -7 59
-16 63 -19 4 -4 -9 -20 -30 -35 -66 -50 -105 -94 -96 -110 10 -18 150 -125
163 -125 6 0 13 -7 16 -15 4 -8 13 -15 20 -15 8 0 17 -7 20 -15 3 -8 14 -17
23 -20 10 -3 26 -13 37 -23 10 -9 39 -30 64 -46 25 -17 56 -40 70 -52 14 -12
57 -43 95 -70 39 -26 75 -52 80 -56 6 -5 62 -46 125 -92 63 -46 129 -96 146
-110 28 -23 41 -26 106 -26 81 0 94 -5 75 -28 -10 -13 -9 -14 11 -3 12 6 36
35 53 64 17 29 54 89 83 134 132 211 172 275 186 301 47 83 71 112 93 112 13
0 28 -5 33 -10 6 -6 24 -12 40 -14 16 -2 32 -4 36 -5 11 -2 68 -88 68 -102 0
-10 -3 -10 -12 -1 -7 7 -16 12 -22 12 -6 0 -5 -5 2 -12 16 -16 15 -28 -3 -28
-8 0 -15 -9 -15 -21 0 -11 -4 -17 -10 -14 -5 3 -10 -1 -10 -9 0 -9 -6 -16 -13
-16 -6 0 -18 -14 -26 -31 -8 -18 -34 -52 -59 -78 -24 -25 -52 -58 -61 -73 -10
-15 -38 -50 -64 -78 -26 -28 -47 -57 -47 -65 0 -8 -8 -20 -18 -27 -10 -7 -21
-21 -25 -31 -3 -9 -12 -16 -19 -15 -7 2 -12 -5 -10 -14 2 -12 -2 -16 -13 -12
-15 6 -22 -10 -7 -19 4 -2 2 -2 -5 -1 -15 4 -37 -22 -29 -35 3 -5 -1 -11 -9
-15 -8 -3 -15 -12 -15 -21 0 -8 -7 -15 -15 -15 -8 0 -15 -7 -15 -15 0 -8 -9
-20 -20 -27 -23 -15 -25 -43 -8 -100 9 -31 9 -44 0 -59 -15 -23 -16 -49 -2
-49 6 0 10 7 10 15 0 8 5 15 10 15 6 0 10 -6 10 -13 0 -16 -38 -40 -50 -32 -6
4 -10 -1 -10 -10 0 -21 -24 -45 -44 -45 -8 0 -18 -4 -21 -10 -3 -5 -26 -10
-51 -10 -32 0 -44 -4 -44 -15 0 -11 11 -13 53 -9 81 7 98 13 139 46 71 56 98
154 63 222 -8 15 -12 34 -7 41 17 32 154 186 237 267 81 79 89 90 78 108 -14
21 -8 47 16 71 32 32 71 79 71 85 0 4 12 19 28 34 39 39 62 69 62 80 0 6 9 10
19 10 31 0 34 17 9 51 l-23 31 35 31 c53 48 150 131 160 137 4 3 43 37 85 75
43 39 85 74 94 79 9 5 36 28 61 51 25 23 77 68 115 100 39 32 77 65 86 74 25
25 135 120 166 144 15 12 44 38 63 57 19 19 46 44 61 55 26 20 141 119 165
143 7 6 15 12 18 12 3 0 18 12 34 28 15 15 57 52 92 82 34 30 75 66 89 80 62
58 154 130 167 130 7 0 37 11 66 24 29 13 85 36 123 51 39 15 84 33 100 40 17
7 57 23 90 35 33 12 67 25 75 30 16 9 50 13 50 6z m-46 -70 c-3 -9 -10 -16
-15 -16 -5 0 -9 -7 -9 -15 0 -8 -4 -15 -10 -15 -5 0 -10 -9 -10 -19 0 -11 -5
-23 -11 -27 -6 -3 -17 -21 -25 -38 -8 -17 -26 -49 -40 -71 -13 -22 -30 -51
-37 -65 -6 -14 -14 -27 -17 -30 -3 -3 -11 -14 -17 -25 -7 -11 -27 -43 -44 -71
-18 -29 -55 -67 -86 -90 -30 -21 -60 -46 -66 -54 -17 -22 -102 -90 -113 -90
-5 0 -20 -14 -33 -30 -23 -29 -51 -40 -51 -20 0 6 4 10 10 10 5 0 22 11 37 25
16 14 37 32 48 41 11 8 14 13 8 9 -7 -3 -13 -2 -13 2 0 12 22 33 35 33 5 0 3
-4 -5 -10 -8 -5 -11 -13 -6 -17 4 -4 16 3 27 17 35 46 108 110 125 110 6 0 18
7 25 17 12 13 12 17 1 21 -9 3 -2 11 17 23 17 10 31 25 31 33 0 7 7 19 15 26
8 7 15 21 15 31 0 11 7 19 15 19 8 0 15 6 15 14 0 7 7 19 15 26 17 14 21 35 5
25 -5 -3 -10 -2 -10 3 0 14 26 33 33 25 4 -3 7 3 7 15 0 12 5 22 10 22 6 0 10
7 10 15 0 8 5 15 10 15 6 0 10 9 10 20 0 10 7 23 16 28 9 5 16 13 16 18 2 25
12 44 22 44 6 0 17 9 24 21 15 24 26 21 16 -5z m1821 -144 l14 -32 -92 -43
c-51 -24 -108 -49 -127 -57 -19 -7 -40 -17 -47 -22 -6 -5 -25 -13 -42 -18 -28
-8 -33 -6 -47 22 -8 16 -13 35 -11 42 3 6 65 38 138 70 74 32 141 62 149 66
27 16 52 6 65 -28z m-1338 -83 c32 -12 69 -30 81 -40 40 -31 100 -124 113
-173 26 -102 -7 -237 -72 -293 -18 -15 -41 -36 -51 -46 -24 -23 -129 -57 -175
-57 -125 0 -248 83 -292 196 -45 119 -18 246 72 337 91 91 208 119 324 76z
m-5919 -14 c29 -9 52 -20 52 -25 0 -6 4 -10 8 -10 18 0 91 -77 113 -120 20
-38 24 -60 24 -135 0 -141 -46 -221 -165 -284 -50 -27 -68 -31 -135 -31 -144
0 -244 73 -295 216 -26 76 -23 134 14 217 21 48 94 137 112 137 4 0 15 7 24
15 37 34 166 44 248 20z m2667 -35 c8 -16 15 -34 15 -39 0 -9 65 -155 91 -203
14 -26 12 -28 -25 -28 -28 0 -37 5 -48 28 -13 27 -15 27 -108 27 -87 0 -95 -2
-99 -20 -2 -11 -8 -23 -15 -27 -11 -8 -76 -11 -76 -5 0 2 18 39 39 83 38 77
72 152 84 186 4 12 20 18 54 21 26 2 54 4 60 5 7 1 19 -11 28 -28z m405 15
c17 -9 30 -21 30 -28 0 -6 3 -22 6 -34 6 -21 3 -23 -30 -23 -29 0 -36 4 -36
20 0 18 -7 20 -79 20 -82 0 -110 -13 -97 -45 4 -11 23 -15 79 -15 45 0 89 -6
111 -15 61 -26 79 -101 34 -142 -16 -15 -41 -19 -132 -21 -125 -3 -152 8 -158
63 -3 26 0 30 25 33 22 3 30 -1 34 -17 6 -25 61 -35 137 -26 59 8 69 20 40 49
-11 12 -35 16 -87 16 -96 0 -141 21 -145 69 -6 56 5 77 45 94 51 21 185 22
223 2z m174 -12 c0 -13 -1 -80 -2 -149 l-2 -125 -32 3 c-18 2 -32 6 -30 11 1
4 2 70 2 148 l0 140 33 -3 c26 -2 32 -7 31 -25z m350 13 c52 -22 66 -50 66
-131 0 -122 -40 -155 -187 -155 -130 0 -156 25 -156 148 0 92 8 111 56 133 51
23 172 26 221 5z m-1258 -6 c38 -13 54 -35 54 -75 0 -24 -3 -26 -32 -23 -26 2
-34 8 -36 26 -3 22 -6 23 -100 20 l-97 -3 0 -80 0 -80 98 -3 c91 -3 97 -2 97
17 0 21 27 41 56 41 14 0 16 -7 11 -42 -10 -71 -30 -80 -169 -76 -106 3 -120
5 -140 26 -20 20 -23 32 -23 116 0 135 5 139 169 144 43 2 93 -2 112 -8z
m5107 -352 c2 -13 8 -31 12 -40 4 -12 2 -19 -6 -22 -8 -2 -61 -18 -119 -36
-58 -17 -114 -35 -125 -39 -28 -11 -90 -31 -97 -31 -6 0 -33 79 -27 83 2 1 45
16 94 31 50 16 122 39 160 52 88 29 101 30 108 2z m140 -525 c4 -21 3 -41 -1
-44 -8 -8 -93 -28 -167 -40 -27 -4 -68 -12 -90 -17 -22 -6 -55 -13 -72 -17
l-33 -7 0 51 c0 46 2 51 22 51 27 0 120 18 213 41 110 27 121 26 128 -18z m80
-500 c-2 -7 2 -24 7 -37 5 -14 6 -28 1 -30 -4 -3 -64 -10 -132 -16 -68 -7
-150 -14 -182 -17 l-58 -5 3 42 c3 38 6 44 28 46 14 1 81 7 149 13 68 6 127
13 130 16 10 11 56 0 54 -12z m-1811 -190 c2 -5 1 -190 -2 -413 l-5 -405 -185
-1 c-102 -1 -322 -3 -490 -5 l-305 -4 -3 405 c-1 223 0 411 3 417 3 10 111 13
494 13 269 0 491 -3 493 -7z m-5782 -167 c14 -18 10 -490 -5 -505 -7 -7 -190
-11 -514 -11 -500 -2 -504 -1 -525 19 -20 20 -21 34 -24 213 -3 159 -1 198 13
234 9 24 17 45 18 46 3 4 477 13 759 15 213 2 269 -1 278 -11z m6608 0 c26 -9
25 11 22 -261 -1 -128 -6 -225 -12 -232 -7 -9 -84 -12 -286 -13 -152 0 -286
-2 -296 -3 -29 -3 -34 43 -32 291 1 158 4 215 13 220 16 10 561 7 591 -2z
m1432 -201 l0 -156 -102 6 c-129 7 -337 22 -493 35 -66 6 -135 12 -154 13
l-34 2 0 105 -1 105 100 6 c54 4 194 12 309 18 116 6 224 13 240 15 17 1 54 4
83 4 l52 2 0 -155z m-10213 56 c84 -4 155 -9 157 -12 2 -2 6 -55 8 -116 5 -98
3 -113 -11 -117 -21 -7 -204 -25 -366 -36 -71 -5 -181 -14 -244 -20 -91 -8
-116 -8 -123 2 -4 7 -8 82 -8 167 l0 154 218 -8 c119 -4 286 -10 369 -14z
m5278 -51 c3 -6 39 -38 78 -71 40 -34 92 -80 117 -103 25 -23 58 -51 74 -64
15 -12 50 -41 76 -66 27 -24 60 -52 73 -62 24 -18 25 -24 29 -149 l3 -130 -45
-14 c-25 -8 -54 -17 -65 -22 -11 -4 -33 -10 -50 -13 -16 -3 -42 -8 -56 -11
-22 -6 -58 13 -205 101 -99 59 -188 112 -199 118 -11 6 -34 21 -52 34 -17 12
-34 22 -38 22 -4 0 -18 9 -32 20 -15 11 -41 20 -62 20 -34 1 -35 1 -16 15 11
8 29 23 40 33 11 11 37 21 57 25 46 7 138 65 167 105 29 42 51 116 51 178 0
28 3 54 6 57 8 7 40 -8 49 -23z m3941 -927 c-30 -156 -94 -406 -135 -528 -73
-219 -247 -627 -313 -735 -12 -19 -36 -64 -55 -99 -32 -59 -106 -184 -164
-274 -40 -61 -268 -369 -302 -407 -18 -19 -49 -56 -70 -82 -64 -80 -364 -375
-476 -468 -30 -25 -61 -52 -70 -60 -41 -37 -56 -44 -31 -15 30 37 46 52 95 90
57 44 195 175 305 289 123 128 111 115 260 290 14 16 32 37 41 46 8 9 19 23
22 31 4 8 23 34 42 59 19 25 46 61 59 80 13 19 38 52 55 74 17 21 52 74 78
118 27 43 60 97 75 121 31 48 38 62 98 172 89 166 200 400 234 493 7 20 30 82
50 137 46 123 71 199 96 290 10 39 25 93 33 120 13 45 36 149 66 293 6 30 11
66 11 81 0 31 13 51 18 27 2 -8 -8 -73 -22 -143z m-3978 -321 c42 -33 86 -61
97 -65 195 -55 281 -133 324 -294 18 -70 21 -103 19 -235 -3 -128 -5 -153 -18
-153 -12 0 -16 19 -20 90 -7 115 -31 169 -93 208 -24 15 -56 27 -70 27 -28 0
-77 19 -77 30 0 4 11 12 24 19 23 13 77 11 123 -4 17 -5 25 -3 30 10 18 48
-121 94 -185 61 -17 -9 -46 -16 -64 -16 -42 0 -121 -30 -212 -81 -119 -66
-125 -77 -65 -111 17 -10 27 -22 24 -28 -10 -17 -30 -11 -74 20 -35 26 -47 29
-80 24 l-38 -6 -7 48 c-4 27 -13 58 -21 68 -20 26 -19 46 1 46 9 0 28 13 43
30 14 16 53 43 85 60 85 44 105 31 66 -43 -11 -20 -20 -39 -20 -42 0 -12 34
-3 57 15 14 11 32 20 39 20 8 0 14 4 14 9 0 5 34 23 76 41 99 41 190 49 268
25 31 -10 58 -16 61 -13 19 18 -80 81 -175 109 -58 18 -175 16 -266 -3 -81
-18 -239 -82 -270 -110 -25 -22 -34 -15 -34 26 0 17 -4 37 -9 45 -5 7 -4 25 2
42 10 25 22 33 92 54 63 20 93 36 145 80 88 74 106 73 208 -3z m-3141 -242
c54 -24 143 -112 167 -165 27 -59 32 -161 11 -228 -19 -61 -95 -151 -156 -184
-55 -31 -203 -32 -261 -2 -55 28 -108 71 -108 87 0 6 -4 12 -9 12 -5 0 -21 23
-35 52 -34 69 -37 198 -5 268 35 77 105 139 199 173 37 14 156 6 197 -13z
m5928 -15 c120 -54 188 -164 184 -295 -2 -79 -21 -131 -67 -189 -45 -55 -89
-82 -172 -102 -113 -27 -236 11 -305 95 -87 106 -101 240 -38 361 32 61 91
111 163 139 78 31 155 28 235 -9z m-3249 -20 c3 -7 -6 -29 -20 -48 -31 -41
-35 -77 -7 -77 11 0 23 5 26 10 3 6 15 10 25 10 15 0 20 -10 25 -44 12 -77 6
-82 -92 -90 -47 -3 -96 -9 -109 -12 -42 -11 -27 22 16 36 22 7 40 19 40 27 0
7 -3 13 -6 13 -16 0 -290 -150 -422 -232 -31 -19 -65 -23 -60 -7 2 6 21 20 43
32 22 12 43 26 46 30 3 4 20 16 37 25 218 120 343 212 403 300 31 44 46 52 55
27z m-3834 -355 c53 -115 154 -313 204 -398 27 -45 56 -94 64 -110 23 -40 50
-81 92 -137 21 -27 38 -55 38 -62 0 -7 6 -16 13 -20 18 -12 70 -83 60 -83 -11
0 -26 18 -92 110 -30 41 -57 77 -60 80 -3 3 -13 17 -21 32 -17 31 -128 222
-147 253 -18 29 -158 315 -177 360 -9 20 -16 45 -15 54 0 13 1 14 6 1 3 -8 19
-44 35 -80z m2564 -77 c54 -44 48 -70 -38 -150 -39 -38 -79 -75 -87 -83 -41
-39 -103 -82 -108 -76 -7 7 8 52 71 214 20 51 36 99 36 107 0 11 12 15 46 15
34 0 53 -7 80 -27z m5644 11 c8 -8 27 -22 44 -30 72 -33 188 -112 206 -139 11
-17 20 -42 20 -57 0 -24 -33 -104 -49 -118 -4 -3 -21 -35 -39 -72 -40 -82 -36
-95 43 -134 76 -39 96 -30 146 65 26 50 37 81 33 97 -3 13 -11 22 -17 21 -28
-6 -15 61 21 104 12 15 16 16 45 1 54 -26 87 -52 102 -83 15 -27 14 -32 -13
-87 -16 -31 -43 -81 -61 -110 -17 -29 -31 -56 -32 -60 -1 -19 -69 -99 -93
-110 -25 -13 -33 -11 -89 17 -34 17 -80 42 -102 56 -22 13 -51 29 -65 35 -44
20 -69 51 -76 96 -7 46 -6 47 76 199 17 31 30 67 28 78 -3 22 -91 87 -135 101
-18 6 -25 2 -33 -16 -5 -13 -14 -30 -19 -38 -6 -8 -36 -61 -67 -117 -71 -128
-74 -131 -120 -107 -54 29 -57 37 -32 80 12 22 26 44 31 49 4 6 22 38 40 72
18 33 52 98 76 142 44 79 46 81 82 81 21 0 42 -7 49 -16z m-8589 -75 c15 -16
34 -42 42 -57 8 -15 23 -44 35 -64 127 -222 126 -231 -31 -334 -177 -116 -239
-154 -252 -154 -7 0 -15 -4 -17 -8 -6 -16 -93 -68 -134 -81 -35 -11 -45 -11
-72 3 -18 9 -32 23 -32 30 0 8 -7 16 -15 20 -8 3 -15 10 -15 15 0 5 -18 39
-40 75 -22 36 -40 68 -40 71 0 3 -11 23 -25 43 -18 26 -25 50 -25 84 0 43 3
50 43 82 43 37 204 136 219 136 4 0 8 4 8 8 0 5 10 14 23 21 12 6 34 19 48 29
71 46 152 92 164 92 8 0 17 5 20 10 13 22 67 10 96 -21z m3819 -28 c0 -27 21
-81 31 -81 5 0 15 11 21 25 9 19 9 28 0 37 -21 21 -13 38 17 38 27 0 29 -2 29
-46 1 -26 4 -49 7 -53 12 -11 35 33 35 66 0 30 3 33 28 33 l29 0 -28 -57 c-16
-32 -29 -65 -29 -73 0 -9 -7 -26 -16 -38 l-16 -23 -14 26 c-8 15 -14 34 -14
41 0 27 -19 14 -30 -21 -11 -34 -37 -48 -44 -22 -20 77 -48 147 -58 147 -5 0
-8 5 -8 10 0 6 14 10 30 10 23 0 30 -5 30 -19z m362 2 c22 -20 23 -36 2 -68
-17 -26 -8 -56 24 -74 13 -7 14 -13 6 -21 -16 -16 -44 0 -78 45 -32 42 -48 37
-44 -13 2 -29 -1 -37 -16 -40 -26 -6 -42 13 -27 32 13 15 12 124 -1 133 -23
13 -1 23 54 23 43 0 67 -5 80 -17z m363 -3 c13 -14 18 -36 18 -77 0 -47 -4
-60 -23 -75 -21 -17 -63 -18 -79 -2 -3 3 -5 36 -5 74 -1 58 2 72 19 84 27 21
49 20 70 -4z m154 -6 c36 -46 23 -146 -20 -157 -49 -13 -79 22 -79 92 0 44 31
91 60 91 10 0 28 -12 39 -26z m123 9 c10 -9 18 -26 18 -37 0 -12 7 -29 15 -40
13 -17 16 -15 42 38 24 49 31 56 56 56 24 0 28 -3 22 -17 -15 -36 -18 -123 -4
-139 10 -13 10 -17 -2 -25 -17 -11 -21 -11 -38 0 -11 7 -11 15 -2 41 6 20 7
38 2 48 -7 13 -13 10 -30 -19 -11 -19 -21 -42 -21 -52 0 -31 -35 -16 -38 17
-4 30 -25 60 -36 49 -11 -11 -6 -61 6 -65 20 -7 -2 -28 -29 -28 -20 0 -24 3
-17 18 13 29 17 133 5 145 -29 29 19 39 51 10z m3523 -416 c22 -11 86 -46 142
-78 56 -33 107 -59 112 -59 6 0 11 -3 11 -7 0 -5 39 -28 86 -53 47 -25 97 -55
111 -67 13 -13 28 -23 32 -23 4 0 13 -12 20 -26 13 -30 2 -80 -29 -129 -11
-16 -32 -55 -47 -85 -86 -167 -112 -186 -201 -150 -31 13 -73 34 -92 47 -19
13 -38 23 -41 23 -4 0 -56 30 -116 66 -123 76 -163 99 -216 126 -46 25 -77 63
-77 95 0 20 58 138 105 214 6 9 20 34 31 55 48 86 80 96 169 51z m-8056 -40
c32 -53 30 -67 -14 -93 -35 -20 -40 -27 -38 -55 1 -19 6 -35 12 -37 6 -2 11
-8 11 -13 0 -6 16 -35 35 -65 19 -30 35 -57 35 -60 0 -3 11 -22 25 -42 14 -20
25 -42 25 -49 0 -7 -21 -26 -47 -43 l-48 -30 -287 0 -287 0 -35 60 c-19 32
-36 66 -38 74 -2 8 25 33 65 60 38 25 70 46 72 46 2 0 44 27 94 60 50 33 94
60 98 60 22 1 63 48 61 69 -4 31 77 79 104 62 24 -15 45 -14 55 3 10 18 53 35
70 29 7 -3 21 -19 32 -36z m2476 -252 c63 -19 141 -91 175 -160 21 -42 25 -64
25 -140 -1 -74 -5 -97 -23 -131 -26 -48 -58 -79 -89 -87 -30 -7 -30 5 -1 18
13 6 27 19 33 31 6 11 18 28 28 38 9 10 17 26 17 37 0 10 5 19 11 19 8 0 7 6
-2 17 -10 11 -10 14 -1 9 19 -11 16 113 -3 141 -8 12 -12 28 -9 37 4 10 1 16
-10 16 -10 0 -13 5 -9 17 4 11 3 14 -6 9 -6 -4 -11 -4 -10 1 4 15 -13 43 -25
43 -7 0 -25 14 -39 30 -25 28 -56 43 -42 20 4 -6 -8 -2 -27 10 -40 24 -122 27
-164 5 -16 -8 -39 -15 -51 -15 -12 0 -26 -8 -32 -17 -8 -14 -12 -15 -22 -6
-10 10 -9 16 7 28 10 8 30 18 44 21 14 3 39 12 55 20 34 17 94 13 170 -11z
m3417 -5 c60 -17 143 -92 174 -157 100 -204 -42 -445 -267 -452 -116 -4 -232
64 -281 165 -41 84 -51 142 -34 204 22 86 33 107 77 155 49 53 99 86 148 96
44 9 132 4 183 -11z m-3391 -61 c55 -28 106 -95 124 -165 14 -55 14 -64 -2
-122 -13 -44 -29 -75 -58 -106 -61 -65 -93 -78 -191 -77 -79 0 -87 2 -138 36
-43 28 -61 49 -83 93 -31 64 -33 90 -14 255 1 4 6 7 12 7 7 0 28 16 47 36 76
79 199 96 303 43z m1821 -40 c17 -9 18 -42 17 -526 0 -284 -5 -527 -10 -540
l-9 -23 -240 0 -240 0 -10 26 c-15 38 -13 1047 1 1061 15 15 465 16 491 2z
m-2217 -81 c-4 -24 -7 -74 -6 -113 2 -57 8 -79 32 -120 41 -70 89 -118 145
-145 65 -32 122 -30 214 8 76 31 99 34 64 7 -34 -26 -128 -58 -174 -59 -132
-2 -274 104 -304 228 -12 51 -8 163 8 200 20 49 30 45 21 -6z m4265 -1108 c0
-13 131 -203 147 -213 7 -4 13 -15 13 -22 0 -8 3 -15 8 -15 4 0 16 -16 26 -35
11 -19 22 -35 26 -35 5 0 11 -11 14 -25 4 -14 11 -25 16 -25 5 0 17 -15 26
-32 9 -18 23 -37 30 -41 8 -4 14 -13 14 -18 0 -6 11 -25 25 -43 14 -18 25 -38
25 -44 0 -6 6 -15 13 -19 11 -8 37 -47 37 -58 0 -3 -7 -5 -15 -5 -8 0 -24 -9
-34 -19 -22 -22 -112 -76 -153 -92 -16 -6 -28 -15 -28 -20 0 -5 -6 -9 -12 -9
-18 0 -40 38 -143 242 -50 97 -111 216 -137 265 -87 163 -91 174 -71 189 10 7
24 14 31 14 7 0 25 8 40 19 76 52 102 62 102 41z m-4798 -8 c2 -5 32 -25 68
-45 102 -58 96 -49 73 -98 -20 -43 -26 -56 -78 -174 -39 -90 -65 -146 -86
-186 -11 -20 -19 -41 -19 -47 0 -6 -17 -48 -39 -94 -21 -46 -44 -98 -51 -115
-7 -18 -16 -33 -21 -33 -11 0 -162 81 -169 90 -3 4 -26 17 -52 29 -55 25 -59
39 -24 90 40 61 139 220 216 351 41 69 80 131 87 138 7 7 13 18 13 23 0 6 12
26 26 45 25 33 49 43 56 26z m2288 -690 c26 -13 37 -27 47 -60 18 -62 30 -567
14 -614 -18 -55 -42 -61 -245 -56 -161 3 -176 5 -190 23 -28 37 -35 118 -38
396 -3 255 -2 277 15 294 27 27 67 33 222 33 112 1 147 -2 175 -16z m541 1
c48 -19 69 -57 69 -127 0 -52 -6 -57 -70 -62 -52 -4 -66 5 -72 46 -3 24 -5 25
-99 28 l-97 3 -6 -53 c-3 -29 -2 -69 2 -88 l8 -35 74 -5 75 -5 0 -60 0 -60
-55 -3 c-101 -4 -100 -3 -100 -79 0 -92 11 -103 109 -103 42 0 81 4 87 8 6 4
15 22 19 40 6 31 9 32 54 32 26 0 55 -6 64 -12 26 -20 29 -95 5 -145 -24 -52
-39 -55 -238 -52 -163 2 -177 6 -204 61 -19 38 -22 220 -5 279 9 29 9 42 0 52
-19 23 -33 219 -20 272 19 75 41 83 226 84 102 1 142 -3 174 -16z"/>
<path d="M6038 14652 c-10 -2 -15 -9 -11 -18 3 -8 1 -14 -5 -14 -6 0 -12 5
-14 12 -3 8 -12 5 -28 -10 -13 -12 -29 -22 -35 -22 -15 0 -70 -58 -62 -66 3
-4 1 -16 -5 -28 -6 -11 -17 -41 -25 -66 l-13 -45 5 50 c5 43 4 47 -7 30 -8
-13 -12 -52 -10 -110 3 -120 33 -176 115 -221 32 -16 63 -36 69 -42 16 -16
143 -15 188 1 39 14 140 103 140 123 0 8 4 14 9 14 15 0 41 90 41 139 0 63
-16 113 -46 147 -48 56 -89 96 -106 105 -21 11 -34 -5 -16 -20 7 -6 28 -22 45
-37 18 -14 41 -39 50 -55 10 -16 23 -27 29 -25 13 5 16 -20 17 -129 0 -93 -44
-158 -156 -229 -41 -25 -138 -24 -200 3 -27 12 -54 21 -60 21 -19 1 -51 29
-43 37 4 4 11 1 16 -7 5 -8 12 -11 16 -8 3 4 -1 15 -10 24 -22 22 -62 101 -70
140 -10 43 24 143 65 194 47 58 107 84 198 85 49 0 76 5 79 13 2 7 -2 12 -10
13 -101 4 -136 4 -150 1z"/>
<path d="M3278 14288 c-7 -13 -20 -36 -29 -53 -29 -49 -39 -76 -34 -85 2 -4
35 -26 72 -49 38 -23 75 -46 83 -51 60 -37 180 -100 191 -100 14 0 89 128 89
152 0 16 -23 32 -135 93 -27 15 -82 47 -121 71 -80 50 -98 53 -116 22z"/>
<path d="M12030 14040 c-74 -44 -159 -92 -189 -107 -72 -37 -87 -60 -66 -105
18 -37 28 -55 69 -115 33 -49 60 -54 111 -23 35 22 230 132 295 168 83 44 86
56 42 141 -42 78 -79 121 -105 120 -12 0 -83 -36 -157 -79z"/>
<path d="M10707 13394 c5 -14 3 -15 -16 -5 -19 10 -29 8 -64 -12 -23 -14 -53
-37 -66 -51 -20 -21 -22 -28 -11 -41 11 -13 10 -19 -5 -35 -24 -26 -31 -173
-10 -214 16 -31 19 -56 7 -56 -21 0 -39 78 -36 160 2 68 0 81 -9 65 -6 -11
-11 -51 -11 -90 1 -77 29 -152 71 -192 32 -31 42 -29 14 1 -18 19 -21 28 -12
43 10 17 10 16 11 -4 0 -13 5 -23 10 -23 6 0 15 -11 20 -26 6 -14 23 -29 40
-35 16 -6 30 -15 30 -20 0 -4 10 -5 22 0 13 5 35 4 51 -2 40 -14 122 -2 156
23 16 11 32 20 36 20 20 0 74 56 95 97 34 67 35 187 2 257 -12 27 -25 47 -28
43 -3 -3 1 -18 9 -34 31 -61 38 -118 23 -188 -8 -37 -23 -76 -34 -88 -11 -12
-17 -28 -15 -34 3 -8 -4 -13 -16 -13 -12 0 -21 -4 -21 -9 0 -15 -116 -61 -153
-61 -51 0 -136 36 -175 73 -92 88 -104 242 -27 343 79 103 237 128 338 54 45
-33 72 -30 36 4 -44 40 -122 66 -198 66 -61 0 -70 -2 -64 -16z"/>
<path d="M8375 13331 c-29 -6 -30 -7 -33 -76 -2 -57 0 -72 14 -82 21 -15 161
-17 184 -3 21 13 16 140 -5 156 -17 12 -112 15 -160 5z"/>
<path d="M9878 11754 c-4 -3 -7 -165 -7 -360 l-2 -354 435 0 c277 0 437 4 441
10 3 5 9 167 12 360 l5 350 -439 0 c-242 0 -442 -3 -445 -6z m750 -151 c9 -24
8 -431 -2 -440 -9 -10 -528 -17 -572 -8 -41 7 -42 13 -50 216 -8 182 -2 235
24 242 9 3 147 5 305 6 265 1 288 0 295 -16z"/>
<path d="M10106 11479 c-4 -39 -10 -78 -13 -86 -7 -18 28 -15 117 11 66 19
105 20 183 4 49 -10 61 -17 74 -42 12 -23 13 -33 3 -51 -22 -42 -61 -55 -162
-55 -106 0 -161 19 -166 58 -5 33 -42 30 -42 -3 0 -38 41 -71 107 -84 66 -13
176 -15 201 -2 9 4 34 16 54 26 49 24 65 62 48 116 -20 59 -56 71 -205 72 -78
1 -128 -3 -142 -11 -21 -12 -23 -11 -23 13 0 15 5 35 10 46 10 18 23 19 185
19 168 0 175 1 175 20 0 19 -7 20 -199 20 l-198 0 -7 -71z"/>
<path d="M4188 11603 c40 -3 60 -8 56 -14 -4 -8 39 -9 137 -5 79 3 245 6 369
7 129 0 214 4 200 9 -14 4 -205 8 -425 7 -220 0 -372 -2 -337 -4z"/>
<path d="M11064 11629 c-8 -14 -2 -469 7 -469 5 0 9 14 9 31 0 17 4 28 10 24
5 -3 7 -12 4 -19 -3 -8 -1 -17 5 -21 19 -11 541 -11 542 0 0 6 3 108 5 228 3
172 1 219 -9 223 -19 7 -568 10 -573 3z m564 -240 l-3 -192 -100 -4 c-55 -3
-169 -2 -252 2 l-153 7 0 199 0 199 248 2 c184 2 249 0 255 -9 4 -7 6 -98 5
-204z"/>
<path d="M5036 9852 c-3 -6 6 -24 20 -42 15 -17 31 -52 36 -78 32 -172 -79
-318 -242 -317 -55 1 -150 30 -150 46 0 5 -7 9 -15 9 -9 0 -21 11 -27 25 -6
14 -17 25 -25 25 -22 0 -15 -15 17 -40 18 -13 28 -30 25 -37 -2 -8 -1 -11 5
-8 9 6 110 -23 110 -32 0 -3 -6 -3 -13 0 -8 3 -20 1 -28 -4 -9 -5 20 -9 79 -9
50 0 92 4 92 8 0 5 11 14 25 20 16 7 25 8 25 1 0 -5 -10 -14 -22 -19 -18 -7
-19 -9 -5 -9 20 -1 101 80 123 122 9 16 20 25 26 21 7 -5 9 -2 5 9 -3 9 -2 19
3 22 6 4 10 37 10 75 0 45 4 70 13 73 10 4 10 6 0 6 -7 1 -13 12 -13 25 0 14
-11 37 -23 53 -13 15 -28 36 -34 47 -6 11 -13 14 -17 8z"/>
<path d="M10664 9936 c-32 -12 -64 -38 -64 -54 0 -5 -10 -17 -21 -28 -29 -26
-69 -117 -76 -173 -3 -29 1 -63 11 -91 8 -24 13 -47 10 -49 -9 -9 -23 22 -34
76 -9 43 -8 63 6 113 9 33 21 63 25 66 5 3 9 14 9 24 0 11 11 27 25 36 14 9
25 21 25 28 -1 25 -69 -65 -89 -118 -25 -66 -26 -115 -7 -180 17 -56 63 -126
82 -126 8 0 21 -11 30 -26 22 -33 61 -51 102 -47 23 2 31 -1 26 -9 -7 -11 9
-10 126 8 44 7 112 44 111 60 0 5 13 24 30 43 45 51 56 79 58 149 4 128 -57
235 -158 279 -23 10 -41 21 -41 25 0 12 -151 7 -186 -6z m181 -32 c44 -8 130
-56 119 -67 -4 -4 1 -9 10 -13 30 -11 56 -87 56 -161 0 -86 -15 -128 -62 -176
-128 -131 -342 -91 -423 79 -22 47 -19 145 5 197 24 49 56 87 94 112 30 20
123 45 146 40 8 -2 33 -7 55 -11z"/>
<path d="M11948 9483 c-11 -3 -18 -14 -18 -29 0 -13 -4 -24 -10 -24 -5 0 -7 8
-4 18 3 9 -2 4 -11 -12 -13 -22 -14 -31 -4 -40 9 -8 10 -7 5 9 -5 14 -4 17 4
9 6 -6 8 -18 4 -28 -6 -15 -7 -15 -19 1 -21 29 -27 9 -8 -25 15 -26 16 -33 5
-44 -11 -11 -13 -9 -10 12 2 16 -2 25 -11 25 -16 0 -49 -51 -50 -77 -1 -10 -5
-18 -11 -18 -5 0 -10 -7 -10 -15 0 -8 -11 -31 -25 -51 -14 -20 -25 -46 -24
-58 0 -12 3 -15 6 -8 2 6 9 12 14 12 6 0 8 -4 5 -9 -6 -9 21 -38 28 -30 1 2
17 31 34 63 25 46 29 62 20 68 -9 6 -7 8 6 6 15 -2 25 10 44 57 33 82 57 108
97 99 46 -10 107 -40 137 -68 25 -24 28 -25 37 -8 9 15 13 14 35 -13 28 -33
28 -48 3 -53 -13 -3 -17 4 -17 23 0 31 -23 30 -28 -1 -2 -10 -6 -26 -9 -34 -3
-8 -5 -19 -4 -24 1 -5 -5 -16 -12 -25 -8 -9 -23 -34 -33 -56 -10 -22 -26 -47
-36 -55 -48 -42 -22 -136 45 -164 19 -8 38 -19 41 -25 4 -6 14 -11 23 -11 8 0
35 -13 60 -30 24 -16 50 -30 58 -30 8 0 17 -5 20 -10 4 -6 12 -7 18 -3 7 4 15
8 19 8 12 0 49 55 44 64 -4 5 6 18 22 29 31 22 78 113 70 134 -3 7 -18 20 -32
28 -24 12 -28 12 -36 0 -6 -8 -10 -25 -10 -37 0 -14 -6 -23 -15 -23 -8 0 -14
-3 -13 -7 3 -18 -23 -63 -47 -79 -23 -15 -33 -15 -81 -5 -29 7 -60 19 -68 27
-8 8 -19 14 -25 14 -6 0 -11 9 -11 20 0 23 -10 26 -28 8 -9 -9 -12 -9 -12 0 0
7 4 12 8 12 5 0 9 6 9 13 0 7 10 35 23 63 12 27 28 60 34 74 5 14 23 43 38 65
19 27 26 47 22 63 -4 12 -10 22 -14 22 -4 0 -12 11 -18 25 -7 16 -17 23 -27
19 -9 -4 -15 -1 -15 8 0 8 -9 23 -20 33 -18 16 -20 16 -20 2 0 -10 5 -17 10
-17 6 0 10 -10 10 -22 -1 -19 -5 -16 -26 19 -17 28 -42 50 -77 68 -29 15 -56
34 -60 41 -8 14 -18 15 -49 7z"/>
<path d="M3270 9275 c-25 -13 -103 -62 -175 -107 -168 -108 -168 -108 -52
-273 14 -19 15 -19 56 -1 22 11 46 25 52 33 6 7 20 13 30 13 11 0 19 3 19 8 0
4 39 32 88 61 121 75 152 100 152 118 0 8 -13 35 -30 60 -16 24 -30 48 -30 52
0 11 -47 61 -57 61 -4 -1 -28 -12 -53 -25z"/>
<path d="M11684 8981 c4 -5 -3 -7 -14 -4 -13 4 -20 0 -20 -10 0 -8 -6 -17 -12
-20 -7 -3 -22 -19 -32 -37 -10 -18 -14 -30 -7 -26 6 4 11 2 11 -3 0 -6 -7 -11
-16 -11 -11 0 -15 -6 -11 -19 3 -13 0 -18 -7 -15 -19 7 -67 -91 -53 -106 9 -9
7 -11 -9 -6 -22 7 -24 1 -26 -56 -1 -38 17 -56 89 -90 35 -16 63 -33 63 -38 0
-6 6 -10 13 -10 8 0 22 -9 32 -20 10 -11 21 -20 25 -20 9 0 114 -62 135 -80 9
-8 15 -8 15 -2 0 6 -12 20 -27 31 -16 11 -22 21 -15 21 8 0 27 -13 42 -30 15
-16 31 -30 35 -30 4 0 28 -15 54 -34 25 -18 57 -39 70 -46 22 -11 23 -11 17 6
-7 18 -6 18 10 2 13 -13 21 -14 40 -6 13 6 24 17 24 25 0 7 4 13 8 13 7 0 31
43 72 130 13 27 35 65 53 89 27 37 22 77 -13 103 -16 12 -30 28 -30 35 0 15
-16 17 -25 3 -9 -15 -25 -2 -19 15 4 9 -4 16 -23 21 -15 4 -40 15 -55 25 -14
11 -29 19 -34 19 -4 0 -21 10 -38 23 -67 50 -107 68 -122 56 -19 -16 -30 -3
-14 16 10 13 9 15 -9 15 -11 0 -21 5 -21 10 0 6 -7 10 -15 10 -8 0 -15 5 -15
11 0 5 -5 7 -11 4 -5 -4 -18 -1 -27 7 -41 32 -102 53 -88 29z m104 -100 c23
-7 42 -16 42 -22 0 -6 4 -8 9 -5 5 3 11 -1 15 -9 3 -8 12 -15 21 -15 8 0 15
-4 15 -10 0 -5 5 -10 12 -10 6 0 26 -11 44 -25 30 -23 34 -24 49 -9 12 13 19
14 28 5 8 -8 7 -11 -6 -11 -22 0 -22 -19 1 -26 50 -15 122 -57 127 -74 4 -11
10 -20 14 -20 13 0 7 -69 -6 -75 -7 -2 -13 -14 -13 -25 0 -11 -4 -20 -9 -20
-5 0 -12 -11 -15 -24 -3 -14 -18 -38 -34 -53 -30 -32 -82 -59 -82 -43 0 6 -7
10 -16 10 -10 0 -14 -5 -10 -16 3 -9 2 -12 -5 -9 -6 4 -8 13 -5 21 3 9 -2 17
-12 20 -44 14 -121 57 -116 65 3 5 -2 6 -10 3 -8 -3 -27 5 -42 19 -17 16 -33
23 -47 19 -13 -3 -18 -1 -13 6 7 12 -29 38 -88 65 -29 13 -36 21 -28 29 9 9
16 8 29 -4 10 -8 34 -23 53 -32 19 -10 53 -28 75 -41 22 -13 51 -30 65 -38 14
-8 53 -30 87 -50 75 -43 98 -51 117 -40 21 12 80 101 100 152 17 44 17 45 -6
65 -13 12 -43 31 -68 44 -25 12 -52 27 -60 32 -65 39 -168 98 -180 103 -8 5
-26 14 -40 22 -14 8 -38 15 -55 15 -27 0 -34 -8 -73 -78 -24 -42 -46 -89 -49
-104 -7 -35 -23 -37 -23 -3 0 26 19 75 29 75 4 0 20 26 36 58 33 62 44 74 63
67 6 -2 12 3 12 12 0 11 3 13 13 5 6 -5 31 -15 55 -21z"/>
<path d="M3475 8717 c-22 -13 -62 -39 -90 -58 -27 -20 -65 -42 -82 -50 -18 -7
-33 -19 -33 -26 0 -9 41 -11 172 -7 95 3 174 7 177 9 2 3 -7 19 -21 37 -14 18
-33 52 -43 76 -10 23 -24 42 -29 42 -6 0 -29 -11 -51 -23z"/>
<path d="M9465 8669 c-22 -4 -44 -4 -49 -1 -5 3 -14 -2 -20 -10 -6 -9 -20 -17
-30 -19 -22 -5 -105 -115 -105 -141 -1 -9 -6 -20 -13 -24 -11 -7 -9 7 7 51 7
16 6 18 -5 8 -20 -18 -23 -181 -4 -210 16 -26 18 -43 4 -43 -5 0 -10 8 -10 17
0 9 -3 14 -6 10 -12 -11 8 -48 24 -45 10 2 22 -9 30 -26 14 -27 52 -72 52 -60
0 3 17 -3 38 -14 20 -11 48 -24 62 -30 18 -8 20 -11 7 -11 -10 -1 -36 8 -57
19 -22 11 -40 17 -40 12 0 -4 19 -17 42 -27 50 -22 153 -22 175 1 16 16 33 18
33 5 0 -5 -8 -12 -17 -14 -15 -4 -15 -5 -2 -6 9 0 22 6 29 14 7 8 16 15 21 15
12 0 61 51 54 58 -3 3 -18 -4 -33 -15 -70 -52 -191 -50 -288 4 -60 34 -109
131 -107 212 4 140 113 251 250 254 57 1 110 -17 171 -60 13 -9 22 -11 22 -5
0 6 -21 24 -47 39 -27 15 -50 30 -53 34 -8 10 -92 16 -135 8z"/>
<path d="M7570 8055 c0 -317 3 -485 10 -485 7 0 10 168 10 485 0 317 -3 485
-10 485 -7 0 -10 -168 -10 -485z"/>
<path d="M9995 7344 c-33 -18 -64 -35 -68 -37 -4 -1 0 -20 9 -42 9 -22 19 -34
21 -27 8 22 19 13 18 -15 -1 -29 23 -83 37 -83 4 0 8 -7 8 -15 0 -8 9 -29 20
-47 11 -18 20 -41 20 -51 0 -10 7 -20 15 -23 8 -4 15 -12 15 -18 0 -18 24 -66
33 -66 4 0 7 -11 7 -25 0 -14 11 -37 24 -50 14 -13 28 -35 31 -47 4 -13 13
-30 20 -38 7 -8 15 -26 17 -40 2 -18 8 -24 22 -22 17 3 18 2 7 -12 -22 -26 -3
-32 23 -7 17 16 25 19 28 9 4 -10 10 -9 25 5 11 9 25 17 31 17 7 0 9 7 5 17
-5 12 -2 15 10 10 25 -9 47 2 47 25 0 14 5 18 15 15 19 -8 30 10 16 27 -6 7
-7 16 -3 20 4 4 0 13 -8 19 -8 7 -21 24 -29 40 -8 15 -27 42 -43 60 -15 17
-32 37 -38 44 -5 7 -10 16 -10 21 0 5 -9 17 -20 27 -11 10 -20 24 -20 32 0 10
-7 12 -22 8 -18 -5 -20 -4 -8 4 13 9 13 15 -4 46 -12 22 -25 34 -33 31 -8 -4
-11 -1 -7 5 3 6 -3 19 -15 30 -12 11 -29 32 -38 47 -10 15 -23 31 -30 35 -7 4
-13 17 -13 27 0 10 -9 25 -20 33 -13 9 -18 20 -14 31 9 24 -14 19 -81 -20z"/>
<path d="M7303 6583 c-23 -4 -23 -5 -23 -205 0 -123 4 -216 12 -239 l11 -39
99 0 c130 0 125 -13 109 257 -10 172 -15 210 -28 221 -16 11 -129 15 -180 5z"/>
<path d="M4405 16335 c-87 -63 -105 -79 -105 -94 0 -6 -5 -11 -10 -11 -12 0
-113 -78 -118 -91 -5 -13 5 -11 49 12 43 21 61 21 34 -1 -19 -16 -19 -34 0
-50 8 -7 13 -16 10 -20 -3 -5 -1 -11 5 -15 5 -3 10 -15 10 -26 0 -28 18 -24
55 13 31 30 32 33 20 67 -26 75 -27 91 -7 91 11 0 27 9 37 20 10 11 13 20 7
20 -6 0 -14 -4 -17 -10 -3 -5 -11 -10 -17 -10 -6 0 -4 8 5 18 10 10 17 23 17
28 0 10 65 65 98 83 22 12 30 31 13 31 -5 0 -44 -25 -86 -55z"/>
<path d="M4057 16079 c-14 -13 -38 -33 -52 -44 -44 -35 -105 -99 -105 -112 0
-7 -4 -13 -9 -13 -4 0 -24 -15 -44 -34 -20 -19 -48 -43 -62 -54 l-25 -20 50
-51 c27 -28 50 -57 50 -66 0 -8 6 -15 13 -15 16 1 47 25 47 38 0 5 7 12 15 16
8 3 15 12 15 20 0 7 7 17 16 20 15 6 15 8 1 24 -8 9 -18 34 -22 55 -8 42 -1
52 101 129 30 22 54 47 54 56 0 13 -3 12 -20 -3 -11 -10 -23 -15 -27 -11 -5 4
-1 12 7 16 42 26 44 28 34 51 l-10 22 -27 -24z"/>
<path d="M12920 13468 c0 -4 4 -17 10 -30 93 -224 230 -707 276 -974 3 -16 14
-76 24 -134 47 -256 63 -449 67 -845 4 -306 2 -411 -12 -540 -9 -88 -20 -198
-25 -245 -9 -94 -56 -388 -69 -435 -5 -16 -14 -57 -21 -90 -13 -61 -42 -178
-84 -340 -36 -136 -148 -465 -194 -565 -11 -25 -32 -74 -47 -110 -15 -36 -31
-69 -36 -75 -5 -5 -9 -14 -9 -21 0 -11 -79 -189 -102 -229 -7 -11 -34 -63 -61
-115 -27 -52 -56 -102 -63 -111 -8 -8 -14 -23 -14 -31 0 -9 -7 -21 -15 -28 -8
-7 -15 -17 -15 -21 0 -5 -15 -31 -32 -58 -32 -47 -151 -230 -193 -296 -45 -72
-80 -121 -97 -140 -11 -11 -47 -57 -81 -101 -178 -235 -279 -348 -529 -594
-165 -163 -219 -213 -308 -285 -34 -27 -86 -70 -115 -95 -29 -25 -87 -70 -129
-100 -43 -30 -96 -69 -119 -86 -88 -65 -265 -182 -322 -214 -33 -18 -66 -38
-74 -43 -17 -14 -46 -31 -96 -57 -22 -11 -56 -30 -75 -42 -19 -11 -73 -41
-120 -65 -47 -25 -89 -49 -95 -54 -5 -5 -15 -9 -22 -9 -7 0 -45 -15 -85 -34
-253 -119 -596 -246 -833 -311 -55 -14 -129 -35 -165 -44 -36 -10 -92 -24
-125 -31 -33 -7 -85 -18 -115 -26 -97 -23 -411 -72 -535 -84 -66 -6 -153 -15
-193 -21 -40 -5 -241 -9 -447 -9 -254 0 -376 -3 -380 -11 -9 -14 1 -23 16 -13
7 4 188 8 403 9 215 2 401 5 414 8 12 3 57 7 100 8 42 1 109 8 149 15 183 34
211 34 277 -1 34 -19 36 -19 72 1 54 28 58 49 5 28 -41 -16 -91 -13 -91 6 0 6
17 10 37 10 20 0 50 4 67 9 40 12 162 41 172 41 4 0 -1 -6 -12 -14 -24 -18
-10 -34 16 -18 11 6 26 9 35 6 9 -4 15 -1 15 9 0 10 -7 13 -20 10 -11 -3 -20
-1 -20 5 0 5 18 12 40 14 22 2 40 0 40 -4 0 -12 51 -8 90 7 33 13 34 14 8 14
-15 1 -30 -3 -33 -9 -3 -5 -13 -10 -21 -10 -28 0 -4 19 39 31 23 6 80 23 126
37 l84 25 19 -23 c10 -13 21 -20 25 -16 4 3 -2 12 -12 20 -18 13 -18 14 4 26
15 8 21 8 17 1 -4 -6 -2 -11 3 -11 6 0 11 4 11 10 0 16 49 23 65 10 11 -9 22
-10 38 -3 12 5 33 8 47 7 14 -1 28 3 32 10 7 11 11 12 44 15 12 1 15 8 12 26
-3 14 -1 25 3 25 5 0 11 0 14 0 3 0 19 7 36 16 17 8 40 14 50 11 11 -3 19 0
19 7 0 16 60 35 97 30 23 -3 24 -2 6 4 -20 6 -19 8 17 24 22 9 40 13 40 8 0
-5 -5 -10 -12 -12 -16 -6 11 -66 33 -73 9 -3 29 -19 45 -35 16 -16 38 -29 49
-29 18 0 18 1 -3 9 -12 5 -25 16 -28 24 -3 8 -22 22 -42 32 -27 13 -32 19 -19
22 24 5 21 22 -4 22 -12 0 -19 5 -16 13 2 6 14 11 26 10 11 -2 21 1 21 6 0 5
16 19 36 30 22 13 34 27 31 35 -4 10 0 12 14 9 15 -4 17 -8 8 -19 -7 -8 -9
-17 -5 -21 9 -10 36 30 31 46 -4 9 1 12 15 8 12 -3 20 0 20 8 0 7 6 12 13 12
19 -1 161 68 176 87 7 9 21 16 30 16 9 0 27 9 41 20 30 24 49 25 56 5 9 -24
37 -19 29 5 -7 21 20 58 32 46 4 -3 1 -12 -5 -18 -7 -7 -12 -18 -12 -26 0 -11
3 -11 15 2 8 8 15 24 15 36 0 11 8 23 18 26 9 3 34 14 55 25 48 24 47 24 47
-3 l0 -22 16 22 c8 12 21 22 28 22 21 0 27 38 7 43 -12 3 -10 6 9 14 14 6 49
27 79 47 29 20 56 36 59 36 3 0 14 8 24 17 14 12 21 14 30 5 8 -8 4 -14 -18
-22 -16 -6 -31 -12 -34 -12 -3 -1 -27 -19 -53 -40 -27 -21 -53 -38 -58 -38 -6
0 -7 -5 -4 -11 5 -7 12 -6 23 4 10 8 23 12 31 9 8 -2 11 0 7 6 -14 23 14 21
42 -3 16 -14 33 -25 37 -25 3 0 -7 12 -24 26 -36 30 -38 40 -11 47 11 3 18 1
15 -3 -3 -5 -1 -11 5 -15 5 -3 10 3 10 14 0 12 6 21 14 21 8 0 28 8 46 18 25
14 30 22 27 44 -3 21 3 32 22 45 25 16 25 16 12 -1 -8 -9 -15 -27 -16 -39 -1
-12 -5 -32 -9 -44 -4 -15 -3 -23 3 -23 6 0 11 11 11 25 0 14 5 25 10 25 6 0
10 9 10 19 0 25 16 36 24 16 3 -8 13 -15 23 -15 14 0 15 2 5 9 -8 4 -12 19
-10 32 4 24 4 24 16 -4 7 -16 16 -25 22 -22 15 10 12 35 -5 35 -8 0 -15 5 -15
10 0 6 12 10 26 10 16 0 24 5 21 13 -5 13 -10 13 -42 1 -20 -7 -20 -7 -1 14
11 12 25 22 33 22 7 0 13 4 13 9 0 5 24 24 53 42 28 18 55 37 58 42 3 4 14 -4
25 -18 21 -28 34 -32 34 -10 0 8 5 15 10 15 6 0 10 7 10 15 0 8 5 15 10 15 13
0 13 -16 0 -41 -13 -24 -2 -25 16 -1 16 20 18 62 4 62 -5 0 -10 8 -10 17 0 15
1 15 13 -1 10 -14 19 -16 38 -10 37 12 49 13 49 3 0 -5 8 -9 17 -9 13 0 14 3
5 12 -7 7 -12 16 -12 20 0 14 22 8 36 -9 13 -17 13 -17 14 2 l1 20 16 -20 16
-20 -8 20 c-4 11 -10 30 -12 42 -8 35 -28 47 -47 27 -10 -9 -19 -14 -22 -12
-7 8 26 32 60 43 17 6 44 28 61 52 19 26 38 42 52 42 12 1 28 7 35 14 7 8 24
19 36 26 12 7 20 16 17 21 -7 11 24 2 43 -13 7 -5 16 -7 19 -3 4 4 1 11 -6 16
-18 10 -7 40 15 40 10 0 14 -5 10 -15 -3 -8 -1 -15 4 -15 5 0 8 17 5 39 -3 34
-1 38 16 34 21 -6 52 14 43 28 -3 5 0 9 5 9 6 0 11 5 11 10 0 6 -7 10 -15 10
-21 0 -19 5 10 34 14 14 25 34 25 46 0 11 7 20 15 20 8 0 15 7 15 16 0 10 6
14 14 11 8 -3 22 3 31 13 12 13 13 19 4 22 -10 3 -10 6 -1 12 7 4 12 2 12 -3
0 -6 12 -11 26 -11 27 0 65 -17 76 -34 4 -6 10 -7 15 -3 4 5 1 12 -6 16 -7 5
-11 13 -7 19 3 6 -1 8 -12 5 -15 -4 -19 1 -19 25 0 23 4 28 18 25 11 -3 23 6
35 26 11 18 27 31 39 31 16 0 17 2 6 9 -12 8 -11 13 10 30 13 11 30 20 37 21
6 0 12 7 12 15 0 9 -6 12 -15 9 -17 -7 -21 11 -5 21 6 3 10 17 10 31 0 14 11
36 25 50 14 14 25 29 25 33 0 15 65 62 93 68 19 4 34 16 44 38 11 24 21 31 34
28 14 -4 19 0 19 15 0 15 5 19 20 15 16 -4 19 -2 14 11 -4 10 0 18 10 22 9 3
16 17 16 31 0 19 4 24 16 19 9 -3 14 -3 12 1 -2 5 -10 20 -17 35 -12 24 -10
32 20 94 19 37 42 69 51 71 9 3 19 11 22 18 2 7 17 16 33 19 29 8 83 52 83 69
0 5 11 20 26 33 14 13 20 24 14 24 -6 0 3 13 19 29 25 24 28 31 16 41 -10 9
-14 7 -17 -7 -2 -10 -5 7 -5 37 -2 57 34 160 56 160 6 0 11 7 11 15 0 18 60
36 77 23 7 -6 18 -8 25 -5 8 4 7 6 -4 6 -24 1 -23 7 7 38 13 15 29 40 36 55 6
15 15 28 19 28 4 0 17 17 27 39 l19 38 -24 29 c-30 34 -27 87 9 163 24 51 64
81 107 81 12 0 24 5 28 12 5 7 2 8 -7 3 -8 -5 -4 3 9 17 12 13 19 28 15 31 -3
4 -1 7 5 7 7 0 12 8 12 18 0 9 9 32 20 50 22 35 19 66 -5 76 -8 3 -15 14 -15
24 0 10 -5 23 -10 28 -23 23 33 185 68 199 9 4 33 9 52 11 40 5 49 16 42 51
-3 17 -1 24 6 19 7 -4 13 7 17 31 4 21 11 51 16 67 12 39 11 46 -4 46 -8 0
-23 10 -35 23 -27 28 -29 85 -7 162 19 64 41 85 94 92 23 3 41 10 41 14 0 5
-4 9 -10 9 -14 0 -13 27 1 32 7 2 12 30 13 66 1 39 6 64 14 67 21 8 13 22 -18
35 -17 7 -35 21 -40 31 -15 27 -12 119 5 176 15 51 24 59 94 79 21 6 22 8 7
16 -9 5 -14 13 -11 19 4 5 1 9 -4 9 -6 0 -11 -5 -11 -11 0 -5 -5 -7 -11 -3 -6
3 -8 17 -5 29 3 13 1 27 -4 30 -15 10 -2 25 22 25 22 0 16 15 -5 15 -7 0 -11
8 -11 17 1 14 -2 15 -16 8 -27 -15 -34 -12 -16 6 22 21 20 29 -11 58 l-27 26
32 -4 c18 -3 32 -1 32 4 0 15 -28 30 -44 24 -17 -7 -22 11 -6 21 6 3 10 28 10
56 0 27 5 49 10 49 6 0 11 -6 11 -12 1 -7 5 12 9 42 5 30 13 56 19 58 14 5 14
22 0 22 -18 0 -41 -30 -50 -63 -6 -22 -7 -14 -2 23 3 30 7 71 8 91 1 19 5 40
8 46 4 7 3 14 -2 17 -11 7 -19 101 -26 301 -4 83 -13 209 -21 280 -8 72 -19
174 -24 229 -5 54 -12 106 -15 115 -2 9 -9 43 -14 76 -22 144 -94 472 -135
610 -81 278 -194 595 -196 553z"/>
<path d="M3022 7998 c-7 -7 -12 -16 -12 -20 0 -5 -16 -24 -35 -44 -19 -19 -35
-40 -35 -48 0 -7 13 -39 29 -72 15 -32 43 -93 61 -134 18 -41 40 -93 50 -115
10 -22 37 -83 60 -135 23 -52 48 -108 55 -125 8 -16 23 -50 34 -75 25 -59 123
-273 173 -380 22 -47 53 -114 69 -150 31 -66 37 -80 132 -280 30 -63 72 -151
92 -195 207 -443 466 -966 553 -1117 12 -21 31 -54 42 -74 39 -68 54 -86 89
-108 40 -26 222 -76 267 -75 l29 1 -30 9 c-16 6 -64 19 -105 30 -86 23 -160
63 -160 85 0 8 4 12 10 9 15 -9 1 23 -35 80 -18 28 -44 76 -58 107 -15 31 -32
60 -37 63 -6 3 -10 12 -10 19 0 8 -44 105 -99 217 -146 303 -201 417 -231 484
-15 33 -50 108 -79 166 -28 58 -51 109 -51 112 0 4 -29 68 -65 142 -36 75 -65
139 -65 142 0 3 -25 58 -55 122 -94 196 -135 289 -135 303 0 6 -8 22 -19 36
-10 15 -22 38 -26 52 -8 26 -76 178 -99 220 -7 14 -19 43 -26 65 -7 22 -16 42
-19 45 -3 3 -18 29 -34 58 -19 36 -25 60 -21 77 4 16 2 25 -6 25 -7 0 -9 8 -5
20 4 13 -7 39 -37 82 -23 35 -51 80 -62 101 -17 34 -17 39 -3 55 9 10 13 27
10 43 -3 16 1 30 11 38 18 15 21 36 6 54 -86 103 -94 109 -118 85z"/>
<path d="M3336 7589 c-9 -20 -35 -55 -56 -78 -43 -46 -49 -61 -25 -61 8 0 15
-3 15 -7 0 -5 19 -28 41 -53 22 -25 47 -58 55 -73 8 -16 53 -66 100 -112 46
-47 85 -90 85 -97 1 -7 5 3 9 22 5 19 11 46 15 60 7 23 7 24 -7 6 -14 -18 -15
-18 -39 5 -14 13 -38 42 -55 64 -16 21 -37 47 -46 57 -23 23 -23 40 2 68 22
26 25 36 10 45 -6 4 -2 15 10 27 11 12 20 26 20 32 0 12 -78 86 -91 86 -5 0
-13 10 -18 22 -8 21 -9 20 -25 -13z"/>
<path d="M3656 7165 c-20 -41 -43 -75 -51 -75 -7 0 12 -24 43 -52 31 -29 61
-60 66 -68 14 -24 204 -200 215 -200 3 0 7 12 8 28 1 15 5 42 9 61 6 32 6 33
-16 21 -17 -9 -25 -9 -38 3 -9 8 -33 20 -52 27 -19 7 -46 26 -59 43 l-25 30
22 41 c12 22 22 51 22 63 0 12 5 25 10 28 18 11 11 33 -12 41 -34 10 -76 44
-81 65 -9 34 -24 20 -61 -56z"/>
<path d="M11481 7068 c-13 -16 -27 -46 -32 -66 -8 -39 -3 -55 10 -33 8 12 12
12 26 0 44 -36 118 -120 111 -126 -7 -7 -60 32 -102 74 -19 18 -34 29 -34 24
0 -22 24 -62 47 -76 34 -23 28 -38 -8 -19 -24 12 -33 13 -39 4 -4 -7 -12 -10
-18 -6 -6 3 -35 -14 -65 -39 -31 -25 -61 -45 -68 -45 -7 0 -6 -8 5 -22 28 -39
56 -107 50 -123 -4 -8 -1 -15 6 -15 6 0 14 9 17 20 3 11 10 20 17 20 6 0 28
16 49 35 21 19 41 35 44 35 3 0 23 16 44 35 22 19 44 35 49 35 6 0 10 5 10 10
0 6 -6 10 -14 10 -8 0 -17 4 -21 9 -3 6 10 8 29 5 29 -3 42 2 73 28 76 66 89
80 75 85 -7 3 -35 20 -62 39 -27 19 -53 34 -57 34 -5 0 -24 15 -44 33 -78 71
-71 68 -98 35z"/>
<path d="M4083 6887 c4 -10 10 -23 13 -31 3 -8 -5 -23 -17 -35 -13 -12 -17
-21 -10 -21 7 0 9 -5 6 -10 -4 -6 -15 -8 -26 -5 -22 7 -26 -13 -4 -21 23 -9
18 -27 -6 -21 -46 12 -67 -17 -24 -33 14 -5 25 -14 25 -20 0 -5 6 -10 13 -10
7 0 20 -8 29 -17 9 -10 23 -23 30 -30 7 -7 18 -18 24 -25 6 -7 25 -24 43 -38
18 -14 44 -35 59 -47 15 -13 32 -23 38 -23 6 0 19 -9 29 -20 10 -11 22 -20 27
-20 5 0 4 9 -2 20 -6 11 -17 20 -25 20 -8 0 -15 5 -15 10 0 6 -6 10 -13 10
-11 0 -54 46 -78 83 -4 5 -12 6 -18 3 -6 -4 -11 -1 -11 8 0 25 18 27 34 4 9
-12 16 -18 16 -13 0 4 11 -2 25 -15 14 -13 25 -19 25 -14 0 5 -8 17 -17 26
-10 9 -29 29 -41 44 l-24 28 -19 -25 c-15 -19 -19 -21 -19 -7 0 10 6 35 13 55
43 119 43 123 -4 123 -25 0 -29 3 -25 18 4 13 -3 25 -26 42 -23 17 -30 19 -25
7z"/>
<path d="M11063 6728 c-21 -24 -29 -93 -12 -104 5 -3 9 -13 9 -22 0 -9 14 -31
32 -49 38 -39 26 -43 -23 -8 -28 21 -35 23 -37 10 -2 -8 -7 -13 -12 -10 -10 6
-32 -29 -24 -38 3 -2 18 0 34 6 45 17 61 -4 26 -36 -14 -13 -26 -29 -26 -35 0
-5 -7 -13 -16 -16 -9 -4 -14 -13 -10 -21 3 -8 0 -15 -7 -15 -7 -1 -23 -10 -36
-21 -21 -17 -22 -22 -10 -30 12 -8 12 -10 -1 -18 -8 -6 -11 -14 -6 -18 9 -10
38 26 30 39 -9 14 27 22 38 7 8 -12 9 -12 5 1 -4 18 23 40 80 65 23 10 40 22
38 26 -5 8 19 19 41 19 8 0 45 25 81 55 37 30 71 55 75 55 4 0 8 5 8 11 0 8
-15 10 -46 6 -36 -4 -47 -1 -52 12 -7 19 -14 28 -68 85 -35 37 -73 66 -87 66
-2 0 -13 -10 -24 -22z"/>
<path d="M4544 6537 c4 -31 2 -38 -9 -33 -10 4 -15 -1 -15 -15 0 -11 -5 -29
-10 -39 -7 -13 -7 -21 0 -25 31 -19 -18 -27 -69 -10 -26 8 -29 -13 -3 -22 9
-4 31 -17 48 -30 17 -13 36 -23 41 -23 6 0 13 -9 16 -21 11 -40 25 -9 37 86 8
52 17 95 22 95 19 0 6 18 -17 24 -14 4 -30 17 -36 29 -8 18 -9 15 -5 -16z"/>
<path d="M6460 5762 c0 -6 5 -14 10 -17 8 -5 7 -11 0 -20 -7 -8 -9 -23 -6 -33
8 -24 91 -47 180 -51 49 -2 58 0 53 13 -4 9 4 23 20 36 31 24 98 26 158 5 22
-8 47 -15 56 -15 20 0 29 -20 29 -65 0 -26 4 -34 18 -33 9 0 59 -5 109 -11 95
-13 113 -10 113 14 0 8 5 26 12 41 12 26 13 26 93 22 99 -5 147 -28 155 -74
l5 -29 118 -3 117 -3 0 36 c0 19 -4 35 -10 35 -5 0 -10 7 -10 15 0 8 5 15 10
15 6 0 10 10 10 22 0 17 3 19 12 10 9 -9 9 -15 0 -24 -7 -7 -12 -18 -12 -25 0
-17 26 -17 33 0 3 8 30 14 81 16 92 3 140 -19 150 -70 l6 -30 72 6 c151 12
159 14 157 38 -5 58 -2 62 65 80 80 21 139 22 156 2 7 -8 18 -15 26 -15 7 0
14 -12 16 -27 3 -27 4 -28 63 -25 33 1 85 8 115 15 l55 12 2 45 c2 48 -8 61
-39 52 -15 -4 -18 -10 -14 -28 7 -26 -5 -34 -69 -50 l-30 -7 30 -8 c25 -7 22
-8 -17 -6 -27 1 -48 -1 -48 -5 0 -14 -18 -8 -24 8 -5 12 0 15 22 12 24 -3 27
1 30 30 3 29 5 31 24 21 21 -12 68 -4 68 11 0 5 -9 12 -20 15 -11 3 -20 11
-20 16 0 5 -16 9 -35 9 -27 0 -33 -3 -28 -16 4 -12 0 -14 -23 -9 -26 5 -26 4
-6 -4 30 -14 28 -38 -5 -44 -33 -6 -43 0 -23 14 13 8 11 13 -9 29 -28 24 -35
25 -55 5 -14 -14 -17 -14 -36 5 -12 12 -28 20 -36 18 -22 -4 -16 -23 7 -21 10
2 19 -2 19 -7 0 -6 -8 -10 -17 -10 -10 0 -29 -3 -42 -7 -21 -5 -23 -3 -19 14
4 16 1 19 -19 15 -18 -3 -22 -9 -18 -23 5 -15 1 -19 -18 -19 -14 0 -27 -5 -29
-11 -3 -9 -10 -9 -23 -2 -22 12 -82 6 -91 -8 -3 -5 -27 -9 -55 -9 -37 0 -49
-4 -49 -15 0 -18 16 -20 23 -2 3 6 6 2 6 -10 1 -31 -26 -30 -41 2 -8 18 -22
27 -50 31 -21 4 -38 12 -38 18 0 18 -50 18 -56 1 -8 -19 -24 -20 -24 -1 0 12
-21 15 -97 18 -54 2 -120 0 -148 -3 -27 -4 -51 -2 -53 2 -5 12 -42 11 -42 -1
0 -5 -9 -10 -21 -10 -12 0 -17 4 -14 11 4 6 -2 5 -14 -3 -12 -7 -21 -16 -21
-20 0 -4 -7 -5 -16 -1 -13 5 -13 8 -2 15 9 7 7 8 -7 4 -11 -3 -40 -6 -65 -7
-70 -2 -100 -9 -100 -25 0 -9 -5 -12 -11 -8 -6 4 -36 1 -66 -6 -53 -13 -55
-13 -76 11 -12 13 -19 20 -14 15 4 -6 7 -18 7 -28 0 -14 8 -18 33 -18 24 0 28
-3 17 -10 -28 -18 -56 -11 -70 18 -7 15 -15 22 -17 15 -3 -7 -9 -13 -14 -13
-6 0 -8 4 -4 10 3 5 -3 18 -14 29 -18 18 -19 22 -5 36 14 13 13 15 -5 15 -13
0 -21 -7 -21 -17 -1 -17 -2 -17 -15 1 -7 10 -18 15 -23 12 -6 -3 -21 -2 -34 3
-12 5 -46 12 -75 16 -49 6 -53 5 -92 -30 -40 -36 -42 -37 -100 -32 -33 4 -71
13 -84 22 -13 8 -26 13 -29 10 -3 -3 -3 5 -1 18 3 14 -2 29 -11 36 -10 8 -16
9 -16 3z"/>
</g>
</svg>
