<?xml version="1.0" standalone="no"?>
<!DOCTYPE svg PUBLIC "-//W3C//DTD SVG 20010904//EN"
 "http://www.w3.org/TR/2001/REC-SVG-20010904/DTD/svg10.dtd">
<svg version="1.0" xmlns="http://www.w3.org/2000/svg"
 width="330.000000pt" height="330.000000pt" viewBox="0 0 330.000000 330.000000"
 preserveAspectRatio="xMidYMid meet">
<metadata>
Created by potrace 1.16, written by Peter Selinger 2001-2019
</metadata>
<g transform="translate(0.000000,330.000000) scale(0.100000,-0.100000)"
fill="#000000" stroke="none">
<path d="M1668 3280 c-82 -5 -148 -14 -165 -23 -15 -8 -53 -20 -83 -27 -67
-15 -89 -34 -191 -171 -76 -103 -81 -107 -124 -114 -43 -6 -47 -9 -76 -67 -17
-33 -48 -83 -69 -109 -43 -55 -57 -109 -46 -188 6 -47 5 -50 -41 -105 -39 -46
-53 -56 -79 -56 -17 0 -38 -7 -45 -16 -9 -11 -23 -14 -44 -11 -30 5 -33 2 -59
-50 -14 -30 -24 -59 -21 -64 4 -5 0 -12 -9 -15 -9 -3 -12 -12 -9 -21 4 -10 2
-14 -4 -10 -5 3 -17 -11 -27 -31 -13 -29 -13 -33 -1 -18 8 11 15 24 15 30 0 5
2 7 5 4 3 -3 0 -18 -6 -34 -7 -16 -12 -32 -11 -36 4 -17 -19 -59 -28 -53 -7 4
-7 12 0 25 5 10 10 25 10 32 -1 7 -8 0 -16 -15 -15 -27 -14 -30 6 -52 19 -20
21 -28 12 -54 -8 -22 -7 -34 3 -48 21 -27 18 -40 -10 -47 -15 -4 -30 -18 -35
-32 -12 -31 -13 -104 -1 -104 13 0 8 -173 -5 -185 -7 -6 -9 -29 -5 -64 6 -54
6 -55 51 -69 25 -9 39 -17 32 -20 -23 -7 -44 -62 -37 -98 3 -19 2 -34 -2 -34
-5 0 -14 -9 -21 -20 -11 -18 -4 -38 57 -165 63 -132 72 -145 96 -145 44 0 128
-31 159 -59 37 -34 70 -103 53 -113 -15 -9 -14 -111 2 -160 7 -21 25 -48 41
-62 17 -13 42 -54 57 -91 28 -68 47 -85 96 -85 17 0 43 -32 117 -146 52 -81
105 -154 117 -164 13 -10 39 -21 60 -25 20 -3 52 -18 71 -33 60 -46 122 -52
544 -52 l386 0 36 42 c82 95 159 386 212 803 16 128 17 131 90 277 41 81 74
149 74 152 0 4 -10 6 -22 6 -30 0 -52 15 -44 29 5 7 1 9 -8 5 -9 -3 -16 -1
-16 6 0 6 4 9 9 5 12 -7 41 22 41 41 0 8 -11 25 -23 38 -25 25 -21 56 7 56 20
0 26 60 19 181 -4 76 -3 112 6 122 8 11 9 22 1 43 -6 15 -8 34 -6 41 3 8 1 11
-4 8 -6 -4 -10 9 -10 31 0 32 -3 36 -21 31 -18 -5 -17 -2 6 19 25 23 27 30 22
79 -5 52 4 75 28 75 5 0 1 -7 -9 -15 -11 -8 -17 -18 -13 -21 13 -13 37 19 37
48 0 16 -12 52 -26 81 -31 59 -29 50 -45 297 -6 102 -16 191 -21 198 -6 6 -23
12 -39 12 -31 0 -57 21 -64 53 -63 287 -121 443 -187 504 -24 22 -30 23 -319
27 -162 3 -356 1 -431 -4z m67 -865 c102 -21 223 -85 300 -157 36 -33 65 -65
65 -70 0 -6 -9 1 -21 16 -29 36 -39 33 -39 -15 0 -28 -4 -39 -12 -37 -21 7
-21 58 -1 81 18 22 18 22 -3 5 -25 -22 -67 -23 -84 -3 -18 21 -3 35 38 35 l37
0 -40 24 c-32 19 -43 22 -55 13 -13 -10 -13 -10 -1 6 12 15 11 17 -8 17 -11 0
-21 4 -21 10 0 5 -7 7 -15 4 -9 -4 -15 0 -15 8 0 16 -18 18 -235 23 -145 3
-178 -1 -176 -21 1 -5 -35 -9 -79 -9 -67 -1 -82 -4 -94 -20 -9 -11 -16 -26
-16 -34 0 -8 -6 -11 -16 -7 -23 9 -73 -24 -66 -43 5 -14 3 -14 -11 -2 -11 9
-17 10 -17 2 0 -6 5 -11 10 -11 6 0 10 -18 10 -39 0 -32 -4 -41 -22 -47 l-23
-7 23 -8 c27 -10 29 -44 5 -72 -18 -19 -17 -19 4 -6 12 7 23 25 25 39 2 14 9
25 18 25 17 0 15 -36 -3 -47 -7 -5 -1 -8 14 -8 14 0 31 -6 39 -12 8 -7 7 -4
-3 8 -15 18 -24 64 -13 64 2 0 11 3 20 6 13 5 16 -2 16 -38 0 -24 -5 -49 -12
-56 -17 -17 -103 -15 -117 2 -6 7 -12 55 -14 107 l-2 94 60 45 c33 24 62 47
65 51 6 8 87 45 144 66 91 35 228 42 341 18z m323 -91 c114 -104 179 -204 228
-351 36 -107 45 -303 19 -419 -34 -155 -111 -298 -216 -399 l-62 -60 70 83
c112 133 183 300 203 471 31 278 -88 558 -305 718 -16 12 -25 23 -20 23 6 0
43 -30 83 -66z m-177 -64 c14 -8 19 -21 19 -56 0 -35 -3 -45 -14 -41 -8 3 -13
-1 -12 -11 1 -12 -8 -18 -31 -20 -29 -3 -33 -7 -33 -32 0 -24 4 -28 25 -26 24
3 54 -18 42 -30 -11 -12 -67 -15 -87 -4 -15 8 -20 21 -20 52 0 46 27 78 67 78
18 0 23 5 23 25 0 21 -5 25 -29 25 -17 0 -31 6 -35 16 -9 22 -9 22 22 27 15 2
31 5 35 6 5 0 17 -4 28 -9z m-655 -356 c4 -14 4 -58 1 -98 -5 -65 -9 -73 -39
-98 -25 -22 -42 -28 -80 -28 -44 0 -98 21 -98 39 0 4 13 14 29 24 36 21 110
22 137 2 10 -8 24 -14 29 -15 6 0 -5 10 -22 21 -28 18 -33 27 -33 60 0 26 9
53 26 79 31 47 41 50 50 14z m668 -1706 c-3 -5 -29 -8 -59 -8 -30 0 -56 -4
-60 -9 -8 -14 78 -25 138 -18 34 4 47 3 40 -4 -21 -21 -281 -30 -268 -8 4 5
-4 9 -17 9 -26 0 -68 25 -68 41 0 17 47 9 75 -13 l28 -22 29 35 29 36 69 -16
c37 -9 66 -19 64 -23z"/>
</g>
</svg>
