<?xml version="1.0" standalone="no"?>
<!DOCTYPE svg PUBLIC "-//W3C//DTD SVG 20010904//EN"
 "http://www.w3.org/TR/2001/REC-SVG-20010904/DTD/svg10.dtd">
<svg version="1.0" xmlns="http://www.w3.org/2000/svg"
 width="840.000000pt" height="630.000000pt" viewBox="0 0 840.000000 630.000000"
 preserveAspectRatio="xMidYMid meet">
<metadata>
Created by potrace 1.16, written by Peter Selinger 2001-2019
</metadata>
<g transform="translate(0.000000,630.000000) scale(0.100000,-0.100000)"
fill="#000000" stroke="none">
<path d="M6064 5972 c-6 -4 -24 -52 -41 -107 -28 -97 -30 -100 -59 -100 -42
-1 -51 -10 -59 -58 -4 -23 -16 -59 -26 -79 -26 -51 -24 -56 19 -63 20 -3 49
-8 63 -10 20 -3 28 1 32 15 3 11 10 20 17 20 7 0 9 -8 5 -19 -7 -23 29 -53
115 -97 30 -16 61 -34 68 -41 7 -7 33 -13 58 -13 35 0 44 4 46 18 1 17 5 49
11 87 2 11 5 25 8 30 3 6 12 35 19 66 14 64 1 61 111 25 l46 -14 22 81 c17 64
19 82 9 88 -7 5 -53 21 -101 35 -74 23 -93 33 -117 64 -23 29 -43 41 -88 54
-72 20 -143 28 -158 18z m264 -285 c7 -6 9 -14 4 -21 -5 -6 -22 -57 -37 -113
-15 -56 -31 -107 -35 -114 -12 -19 -31 0 -25 24 5 19 5 20 -5 5 -14 -23 -32
-23 -61 2 l-24 20 27 -9 c31 -11 34 -5 63 124 16 69 16 69 -7 87 -23 17 -22
17 32 11 30 -3 61 -10 68 -16z"/>
<path d="M5280 5853 c-14 -2 -43 -10 -65 -17 -22 -8 -60 -17 -85 -21 -25 -4
-85 -28 -135 -54 -74 -38 -90 -50 -92 -71 l-3 -25 10 23 c6 13 15 22 21 20 16
-5 17 -77 2 -90 -9 -7 -11 -31 -7 -82 4 -59 3 -69 -8 -56 -7 8 -21 16 -30 18
-20 3 -191 -59 -261 -94 l-47 -24 -12 25 c-6 13 -15 22 -19 19 -5 -3 11 -35
36 -72 25 -37 45 -72 45 -79 0 -29 -23 -9 -66 57 -25 39 -49 70 -54 70 -9 0
42 -95 82 -152 19 -27 22 -68 9 -102 -7 -17 -12 -14 -40 27 -36 54 -53 63 -23
15 41 -68 35 -102 -10 -61 -18 16 -18 15 -3 -27 17 -47 14 -54 -18 -55 -12 0
-21 -6 -20 -12 2 -7 0 -13 -5 -13 -9 1 -132 194 -132 209 0 6 21 33 48 59 51
51 92 119 92 151 0 14 5 19 14 15 9 -3 12 -12 8 -22 -5 -15 -3 -15 12 1 18 17
18 19 0 33 -11 8 -32 13 -48 11 -25 -3 -32 2 -58 42 -16 25 -32 44 -36 42 -4
-3 -21 -24 -38 -49 -18 -24 -55 -61 -84 -83 -49 -37 -78 -50 -65 -30 3 5 1 12
-5 16 -19 12 -10 23 55 71 35 27 64 53 65 58 0 4 -15 -3 -34 -18 -42 -32 -48
-32 -72 -5 -10 12 -32 30 -47 39 l-29 18 34 8 c18 4 53 9 78 10 82 4 88 6 55
15 -26 7 -24 8 13 5 49 -5 56 17 7 22 -129 16 -425 -181 -425 -283 0 -8 21
-47 46 -85 28 -41 44 -76 40 -85 -3 -9 3 -24 14 -35 24 -24 25 -31 5 -24 -10
4 -15 0 -15 -10 0 -13 6 -15 28 -10 15 4 32 11 39 16 7 5 27 11 45 13 45 5 99
20 125 33 35 19 37 14 3 -14 -22 -19 -28 -30 -21 -37 6 -6 11 -15 11 -20 0 -5
-9 1 -20 14 -25 31 -25 18 0 -31 28 -54 18 -50 -15 6 -15 25 -32 43 -38 41
-22 -7 -19 -47 8 -92 14 -25 21 -45 15 -45 -5 0 -10 4 -10 9 0 21 -46 80 -63
81 -9 0 -26 5 -37 12 -28 18 -33 5 -15 -37 8 -21 13 -40 11 -42 -2 -3 -10 12
-17 31 -7 20 -21 39 -32 42 -21 7 -39 46 -25 55 7 4 6 9 -1 13 -24 15 -22 -42
4 -93 26 -52 26 -52 3 -38 -13 8 -32 13 -43 11 -21 -4 -177 -15 -279 -19 -67
-3 -171 -19 -198 -30 -22 -9 -64 15 -120 68 -47 45 -47 45 -113 42 -73 -3
-110 -22 -126 -63 -37 -97 -56 -112 -147 -113 -31 0 -77 -4 -102 -8 -25 -5
-115 -20 -200 -34 -361 -60 -548 -90 -590 -94 -25 -2 -54 -8 -65 -13 -11 -5
-38 -11 -60 -14 -22 -2 -87 -13 -145 -25 -58 -11 -134 -25 -170 -31 -85 -14
-94 -16 -165 -34 -33 -9 -114 -25 -180 -37 -84 -14 -131 -28 -158 -45 -20 -13
-37 -28 -37 -32 0 -4 -7 -16 -16 -27 -11 -15 -27 -20 -72 -21 -34 0 -75 -8
-102 -20 -47 -21 -67 -28 -264 -96 -97 -34 -125 -48 -157 -80 -21 -22 -39 -43
-39 -47 0 -5 -20 -21 -44 -36 -24 -15 -49 -40 -56 -54 -35 -75 -51 -566 -21
-644 6 -14 15 -74 21 -134 21 -206 49 -369 91 -518 12 -44 25 -96 29 -115 11
-53 39 -147 70 -230 15 -41 31 -90 35 -108 4 -20 13 -32 23 -32 11 0 27 -23
45 -63 15 -34 27 -66 27 -71 0 -5 8 -15 18 -22 16 -13 16 -13 -2 -14 -19 0
-19 -1 2 -20 24 -22 29 -40 11 -40 -6 0 -17 -6 -25 -14 -24 -24 -16 -36 25
-36 42 0 86 -27 96 -61 4 -12 13 -18 20 -15 8 3 19 -2 26 -11 19 -22 116 -63
167 -70 32 -4 48 -13 63 -35 23 -32 114 -81 181 -99 24 -6 79 -16 123 -23 75
-11 83 -14 129 -59 36 -35 64 -52 105 -63 31 -9 61 -20 66 -24 25 -19 200 -36
210 -21 11 19 50 12 60 -11 10 -21 64 -59 75 -52 3 1 12 -1 20 -7 13 -7 12 -9
-2 -9 -32 0 -19 -18 18 -25 20 -3 33 -9 30 -12 -3 -3 -26 0 -52 7 -42 12 -48
12 -59 -3 -7 -9 -17 -17 -24 -17 -6 0 -11 -11 -11 -24 0 -13 -3 -31 -6 -40 -4
-12 0 -16 15 -16 18 0 21 -6 21 -40 0 -29 4 -40 15 -40 11 0 15 11 15 40 0 45
2 47 30 23 24 -21 26 -51 5 -59 -31 -12 -16 -34 24 -34 30 0 40 4 44 20 6 23
27 27 27 6 0 -19 48 -56 72 -56 10 0 21 7 24 15 7 18 34 20 34 2 0 -7 -12 -20
-27 -29 -20 -12 -23 -18 -11 -18 9 0 23 7 32 15 11 12 21 13 41 5 32 -12 85
-13 104 -1 17 11 35 -4 45 -37 4 -12 19 -25 32 -28 15 -4 23 -12 20 -20 -3 -8
0 -11 9 -8 7 3 16 -3 20 -15 7 -23 50 -30 57 -10 3 8 19 4 48 -10 24 -11 59
-21 77 -21 31 0 46 -14 22 -22 -18 -6 4 -73 24 -74 13 -2 14 -1 2 3 -18 5 -20
40 -2 46 6 2 24 -2 39 -9 14 -8 28 -10 30 -4 4 13 78 -12 78 -27 0 -7 -7 -13
-15 -13 -21 0 -19 -17 5 -30 16 -9 22 -8 26 4 3 8 3 20 0 25 -4 6 3 15 14 21
16 8 20 8 20 -3 0 -22 27 -41 33 -25 3 7 3 -5 0 -28 -4 -31 -1 -42 10 -47 12
-4 17 4 22 34 9 50 25 61 25 15 0 -19 3 -41 6 -50 5 -13 9 -12 25 7 l19 22 20
-25 c13 -17 22 -21 27 -14 5 6 19 15 31 19 23 7 23 6 7 -19 -26 -39 5 -65 38
-31 13 13 16 12 22 -3 6 -16 8 -15 21 3 l15 20 15 -20 c8 -11 17 -30 21 -42 6
-26 23 -31 23 -8 0 16 16 20 24 6 3 -5 26 -6 52 -3 32 3 49 1 54 -9 7 -11 13
-10 29 5 25 23 37 15 45 -29 7 -36 26 -53 46 -40 8 5 8 11 -1 21 -15 19 7 74
30 74 10 0 12 -3 5 -8 -12 -8 -16 -82 -4 -82 4 0 6 -9 3 -20 -5 -21 11 -28 22
-10 3 6 17 10 30 10 14 0 29 9 35 20 6 11 17 20 25 20 16 0 21 -16 6 -22 -4
-1 -11 -21 -15 -43 l-8 -40 21 19 c12 11 21 27 21 38 0 20 26 25 33 6 4 -10 6
-10 6 -1 1 6 -3 14 -8 17 -15 10 0 47 18 44 11 -3 15 -12 13 -31 -1 -15 2 -27
8 -27 18 0 11 -18 -10 -25 -11 -3 -20 -10 -20 -14 0 -5 17 -3 38 4 23 8 41 10
48 4 8 -6 14 -4 18 6 3 8 12 15 20 15 8 0 17 8 19 17 3 10 5 3 6 -14 1 -26 5
-33 21 -33 11 0 20 -4 20 -10 0 -5 11 -10 25 -10 15 0 25 6 25 14 0 20 13 27
30 16 12 -7 12 -12 2 -22 -19 -19 -14 -26 13 -20 14 2 25 11 25 18 0 25 18 15
40 -22 12 -19 21 -36 19 -38 -2 -1 -15 -7 -29 -13 l-25 -12 23 0 c27 -1 52 20
52 43 0 9 5 16 10 16 6 0 10 -9 10 -20 0 -13 7 -20 19 -20 11 0 27 -9 35 -21
15 -22 36 -18 36 6 0 15 38 40 47 32 2 -3 -3 -17 -13 -32 -13 -20 -15 -31 -7
-44 8 -12 6 -20 -4 -30 -10 -9 -11 -17 -5 -23 12 -12 32 -2 32 17 0 18 28 27
48 16 10 -5 30 -7 45 -4 32 6 38 -16 7 -24 -11 -3 -20 -10 -20 -15 0 -6 -7 -5
-15 2 -8 7 -15 8 -15 2 0 -5 7 -15 15 -22 10 -9 15 -9 15 -1 0 13 39 14 60 1
10 -6 20 -3 33 11 14 15 22 18 30 10 8 -8 16 -6 31 7 11 9 16 11 11 3 -4 -8
-2 -17 6 -22 8 -4 14 -13 14 -19 0 -5 3 -10 8 -10 4 0 16 0 27 0 11 0 20 7 20
15 0 19 0 19 40 -1 25 -13 34 -14 40 -4 6 9 9 9 11 1 3 -7 31 -14 64 -16 33
-2 97 -7 143 -10 58 -5 82 -4 82 4 0 8 6 9 19 1 25 -13 78 -13 86 0 8 12 45
13 45 1 0 -11 72 9 81 22 4 5 11 7 17 3 5 -3 15 1 22 9 8 9 28 15 49 14 20 0
51 4 70 10 19 6 38 8 43 5 4 -3 20 4 35 16 16 13 29 17 31 11 6 -18 19 -13 57
20 31 28 38 30 65 21 16 -6 30 -8 30 -4 0 4 5 0 10 -8 8 -13 10 -12 10 3 0 9
8 17 17 17 9 0 37 10 61 21 34 17 46 19 52 9 5 -8 16 -9 30 -5 16 5 19 10 10
15 -10 6 -9 9 1 16 7 4 14 3 17 -4 5 -17 52 -15 58 3 4 9 19 15 41 15 19 0 32
4 29 9 -9 14 25 23 40 10 10 -8 20 -4 44 19 16 17 32 26 35 22 8 -13 45 -8 45
6 0 7 18 15 40 19 22 4 47 13 54 21 8 8 23 14 33 15 10 0 13 3 6 6 -18 7 -16
23 2 23 8 0 15 5 15 10 0 17 -27 11 -57 -14 -46 -38 -71 -48 -92 -36 -34 18
-76 11 -124 -20 -54 -34 -64 -36 -103 -15 -33 17 -74 12 -120 -16 -37 -23 -62
-24 -88 -4 -26 20 -80 19 -138 -2 l-46 -16 -32 26 c-35 30 -66 33 -135 15 -44
-12 -45 -12 -79 21 -34 33 -36 34 -101 28 -72 -7 -95 -2 -95 19 0 27 -61 55
-108 51 -56 -6 -80 1 -87 24 -13 39 -57 69 -102 69 -59 0 -93 15 -93 41 0 33
-56 79 -95 79 -58 0 -85 16 -85 49 0 38 -49 91 -84 91 -47 0 -76 20 -76 54 -1
17 -6 41 -14 54 -15 27 -64 62 -88 62 -28 0 -48 29 -48 70 0 45 -33 91 -79
110 -37 15 -64 54 -56 81 11 35 -14 87 -53 111 -20 12 -42 29 -49 38 -15 19
-16 60 -2 80 8 11 9 6 4 -22 -5 -32 -2 -39 21 -55 15 -10 42 -33 61 -50 30
-29 34 -38 32 -76 -3 -55 5 -67 44 -67 18 0 45 -7 60 -15 15 -8 26 -11 23 -7
-2 4 -30 50 -61 102 -101 166 -201 378 -228 480 -68 256 -95 477 -102 823 -3
148 -8 273 -11 278 -3 6 2 39 12 75 14 53 15 75 7 122 -10 53 -9 59 12 82 12
14 28 35 34 48 15 29 17 125 2 130 -7 2 -6 10 3 24 8 11 12 27 9 34 -3 9 0 12
9 9 9 -4 28 8 47 31 30 33 32 42 30 93 -1 31 2 64 6 75 5 12 3 21 -6 27 -36
22 -43 28 -36 35 4 4 18 2 31 -6 61 -32 122 33 114 121 -3 27 -1 49 3 49 5 0
9 7 9 15 0 21 -30 19 -46 -2 -12 -16 -13 -16 -14 -2 0 9 8 27 18 39 16 20 19
21 31 6 45 -54 141 31 129 115 -4 31 17 56 69 79 50 22 86 72 80 113 -3 21 3
34 25 53 16 13 36 24 44 24 28 0 74 30 88 58 31 61 30 71 -6 86 -27 12 -30 16
-15 21 11 5 25 1 36 -9 15 -14 20 -14 30 -3 6 8 30 17 52 21 45 7 99 52 99 82
0 10 8 26 17 36 15 16 15 21 3 28 -8 5 -11 12 -7 16 3 4 13 2 20 -5 9 -7 32
-9 63 -4 53 7 85 32 116 91 16 30 20 32 75 32 56 0 58 1 104 50 62 66 89 79
140 70 37 -7 45 -5 76 23 33 29 34 31 14 39 -12 4 -21 12 -21 18 0 13 37 13
45 1 7 -13 108 -25 138 -17 13 3 37 16 52 28 l29 23 -39 7 c-35 6 -102 -2
-255 -29 -55 -10 -101 -10 -107 1 -3 5 -1 6 5 2 7 -4 12 -3 12 3 0 17 -22 24
-32 10 -8 -11 -9 -10 -5 3 6 17 -17 33 -33 23 -5 -3 -32 9 -61 27 -60 36 -48
52 15 21 87 -44 121 -54 195 -60 140 -10 255 27 317 103 25 30 34 51 34 78 0
20 -4 36 -9 36 -16 0 -30 -26 -25 -47 4 -15 0 -26 -15 -35 -12 -7 -21 -20 -21
-29 0 -9 -11 -21 -25 -27 -20 -9 -26 -8 -34 6 -10 16 -10 15 -11 -2 0 -48 -12
1 -25 110 -22 178 -23 184 -45 184 -24 0 -24 -7 -7 -172 10 -90 10 -120 1
-133 -7 -9 -14 -12 -17 -8 -3 5 -13 71 -22 148 -17 139 -25 165 -51 165 -18 0
-18 -23 1 -180 8 -69 15 -126 15 -127 0 -2 -7 -3 -15 -3 -8 0 -15 -4 -15 -10
0 -5 -4 -10 -10 -10 -5 0 -10 7 -10 15 0 8 -7 15 -15 15 -8 0 -19 15 -25 33
-9 30 -10 30 -5 -11 5 -38 3 -44 -15 -49 -11 -3 -17 -9 -15 -14 3 -4 12 -6 20
-2 8 3 15 0 15 -7 0 -8 -8 -10 -22 -6 -13 3 -30 6 -37 6 -11 0 -12 3 -4 11 7
7 7 26 1 57 -4 26 -13 87 -19 137 -5 49 -15 93 -22 97 -8 5 -5 8 9 8 11 0 25
5 31 11 19 19 63 2 64 -24 1 -21 1 -21 8 3 9 32 -9 44 -52 36 -77 -15 -146
-15 -158 0 -16 19 -11 23 34 26 39 2 49 14 20 21 -10 2 -4 2 12 0 17 -3 44 -4
60 -3 51 5 78 3 127 -7 40 -9 48 -8 54 6 4 11 8 12 11 4 3 -7 11 -13 19 -13 9
0 12 5 9 10 -3 6 -2 10 4 10 5 0 12 -4 15 -9 7 -10 31 -9 42 2 3 3 19 3 35 0
19 -3 29 -1 29 6 0 7 6 11 13 9 7 -2 14 2 16 7 3 13 -101 45 -114 35 -18 -13
-74 -10 -69 4 8 21 -40 30 -106 19z m0 -562 c0 -12 -108 -53 -120 -46 -5 3
-35 -11 -67 -30 -32 -19 -62 -35 -66 -35 -14 0 -206 -110 -271 -154 -32 -22
-53 -42 -47 -44 6 -2 11 -8 11 -14 0 -6 -6 -6 -15 2 -18 15 -10 20 -396 -271
-160 -121 -302 -249 -335 -301 -14 -21 -41 -46 -61 -55 -20 -10 -37 -26 -39
-35 -6 -46 -72 -118 -107 -118 -8 0 -22 -9 -32 -20 -10 -12 -24 -19 -31 -16
-7 3 -14 -4 -16 -16 -2 -12 -18 -30 -38 -41 -19 -10 -36 -23 -38 -28 -2 -5
-21 -9 -43 -9 -22 0 -51 -7 -64 -16 -14 -9 -25 -14 -25 -11 0 12 50 59 125
117 68 52 116 93 219 184 12 10 20 23 18 28 -1 5 1 7 6 4 4 -2 41 27 82 65 41
38 77 69 80 69 3 0 23 18 45 40 22 21 46 39 53 40 6 0 12 4 12 9 0 5 16 19 35
31 19 12 33 26 30 31 -4 5 0 6 8 3 9 -3 21 4 29 15 8 12 18 18 21 14 4 -3 7 2
7 11 0 12 5 16 16 12 8 -3 13 -2 10 3 -3 5 6 12 19 15 16 4 23 11 19 18 -5 8
-2 9 9 5 10 -4 16 -2 14 5 -1 7 5 13 13 13 8 0 14 6 13 13 -2 7 0 11 5 10 15
-3 61 25 55 35 -3 6 -2 7 4 4 5 -3 43 20 84 51 223 170 484 323 664 388 100
37 105 38 105 25z m-3056 -559 c11 -18 -13 -30 -84 -46 -205 -46 -300 -71
-300 -78 0 -4 -12 -8 -27 -8 -29 0 -97 -21 -109 -33 -4 -4 -19 -7 -33 -7 -14
0 -48 -7 -76 -16 -113 -34 -251 -53 -289 -38 -77 30 125 106 364 138 19 3 73
12 120 20 47 9 102 17 123 17 20 1 40 5 43 10 3 5 23 9 45 9 22 0 48 4 58 9 9
6 44 12 76 15 32 3 60 8 63 11 8 7 20 6 26 -3z m-1110 -294 c14 -22 -2 -50
-30 -54 -10 -1 -41 -5 -67 -8 -27 -3 -71 -17 -99 -31 -27 -14 -58 -25 -68 -25
-10 0 -21 -4 -24 -9 -3 -5 -36 -14 -73 -21 -38 -6 -76 -18 -85 -27 -21 -19
-62 -13 -66 10 -5 24 43 67 74 67 13 0 24 4 24 8 0 5 28 17 63 27 34 9 73 21
87 25 14 5 51 11 82 13 38 3 67 12 85 26 32 26 81 25 97 -1z m2396 -133 c18
-41 26 -91 19 -125 -4 -19 -5 -39 -2 -44 4 -5 1 -6 -5 -2 -6 3 -13 -2 -17 -13
-9 -28 -140 -154 -188 -181 l-42 -23 27 25 c14 14 36 47 48 74 20 42 23 65 22
174 l-1 125 62 30 62 31 3 -26 c1 -14 7 -34 12 -45z m-259 -58 c-6 -8 -8 -17
-4 -21 4 -4 1 -5 -7 -1 -13 4 -16 -15 -18 -120 -3 -100 -1 -125 10 -125 11 0
11 -2 -1 -9 -7 -5 -11 -13 -7 -19 3 -6 2 -13 -4 -17 -17 -10 -11 -25 10 -25
11 0 20 -4 20 -10 0 -5 -7 -7 -15 -3 -10 3 -15 1 -13 -8 2 -7 -25 -31 -59 -54
-35 -23 -66 -44 -70 -48 -9 -10 60 14 72 24 13 12 115 11 115 -1 0 -5 12 -11
28 -11 46 -2 -52 -16 -205 -29 -139 -12 -142 -12 -244 14 -151 39 -154 41
-154 101 1 89 25 173 62 217 18 22 33 34 33 28 0 -10 19 -11 74 -7 74 5 109
17 311 105 83 36 80 36 66 19z m-2607 -469 c-9 -45 -21 -139 -28 -208 -6 -73
-15 -124 -21 -123 -5 2 -11 13 -13 25 -2 25 -1 166 3 208 1 14 3 64 3 112 l2
87 33 9 c41 11 43 0 21 -110z m3086 47 c0 -8 -7 -36 -17 -62 -33 -98 -86 -419
-92 -564 -1 -23 -6 -27 -36 -31 -43 -5 -67 17 -71 65 -1 17 -7 59 -14 92 -7
33 -13 77 -15 98 -1 21 -5 41 -9 44 -3 4 -6 27 -6 52 0 25 -5 62 -10 81 -6 19
-13 57 -16 85 -3 27 -10 52 -15 53 -5 2 -7 8 -3 13 3 5 -5 9 -18 10 -35 1 -13
7 154 44 183 40 168 38 168 20z m-2099 -16 c20 -5 42 -15 48 -23 9 -10 23 -11
64 -4 76 14 480 6 499 -10 12 -9 43 -10 144 -1 74 6 186 7 264 3 l135 -7 -64
-17 c-35 -10 -75 -17 -90 -16 -20 1 -27 -3 -28 -16 -1 -14 6 -18 30 -19 25 0
28 -2 13 -8 -23 -9 -26 -50 -30 -386 -1 -132 -3 -249 -4 -259 -2 -18 -9 -19
-139 -13 -76 4 -163 11 -193 17 -62 12 -86 28 -53 36 19 5 20 8 7 32 -20 38
-17 69 6 85 18 13 19 15 5 27 -12 10 -16 31 -16 84 1 185 -4 251 -19 251 -24
0 -29 15 -24 74 2 38 9 60 21 69 16 11 12 13 -26 10 -32 -1 -47 3 -56 16 -12
15 -20 16 -71 7 -32 -6 -76 -11 -98 -11 -36 0 -38 1 -21 13 16 12 5 15 -80 21
-54 4 -100 4 -103 1 -3 -3 9 -5 26 -5 17 0 34 -5 37 -11 5 -7 -5 -8 -29 -4
-40 8 -48 -1 -13 -15 l22 -9 -22 0 c-12 -1 -25 4 -28 9 -3 6 -16 10 -28 11
-21 0 -21 1 -2 9 16 7 11 9 -20 9 -31 0 -36 -2 -20 -9 16 -7 17 -9 3 -9 -9 -1
-29 4 -45 11 -15 6 -34 10 -42 9 -7 -1 -10 2 -6 8 3 6 1 11 -4 11 -6 0 -10 -8
-8 -17 1 -10 -2 -18 -8 -18 -5 0 -8 6 -7 14 3 13 2 13 -14 0 -16 -12 -17 -12
-11 4 3 9 2 17 -3 17 -6 0 -10 5 -10 11 0 7 11 8 29 4 17 -4 32 -2 36 5 4 6 1
11 -6 9 -31 -4 -59 2 -59 11 0 11 39 7 111 -11z m-555 -58 c-12 -101 -25 -315
-26 -393 l0 -78 -43 0 c-79 0 -82 6 -84 187 -2 159 -4 187 -17 254 -7 33 -12
37 -57 49 -87 24 -59 35 92 36 l141 1 -6 -56z m449 -35 c-17 -58 -34 -248 -35
-393 l0 -162 -35 -7 c-43 -8 -122 1 -141 17 -8 6 -14 20 -14 30 0 11 -9 28
-20 39 -11 11 -15 20 -9 20 8 0 10 19 7 63 -3 34 -3 52 -1 40 10 -50 23 -18
25 60 2 119 1 131 -27 183 -16 31 -22 50 -15 54 14 9 1 42 -14 37 -6 -2 -24 5
-41 17 l-30 21 130 5 c72 3 152 3 178 1 45 -3 48 -5 42 -25z m1499 6 c39 -6
50 -11 51 -27 2 -11 7 -67 13 -125 35 -344 42 -454 29 -467 -3 -3 -52 -7 -110
-10 l-103 -6 -12 69 c-7 38 -16 177 -22 309 -6 147 -13 241 -20 243 -5 2 -10
8 -10 13 0 10 110 11 184 1z m-937 -16 c1 -1 -3 -22 -8 -46 -6 -25 -11 -157
-11 -293 -1 -201 -4 -251 -15 -263 -10 -9 -38 -14 -87 -14 -111 0 -229 12
-214 21 7 5 -4 6 -26 2 -26 -4 -37 -3 -33 4 4 6 0 14 -8 17 -13 5 -14 10 -4
27 6 12 7 19 1 15 -5 -3 -12 8 -16 25 -10 49 -7 139 4 139 13 0 13 77 1 82 -5
2 -11 40 -13 85 -3 77 -4 82 -23 78 -11 -3 -14 -2 -7 1 14 7 16 44 2 44 -5 0
-10 7 -10 15 0 8 -4 15 -10 15 -11 0 -9 42 2 50 5 4 470 1 475 -4z m654 -3
c-17 -34 -31 -225 -31 -438 0 -195 -6 -246 -24 -199 -10 26 -7 354 5 491 11
133 20 163 45 163 11 0 12 -5 5 -17z m-1842 -513 c6 -14 18 -86 26 -160 9 -74
28 -198 42 -275 14 -77 29 -161 33 -186 5 -25 15 -69 24 -98 14 -48 13 -81 -3
-81 -14 0 -51 82 -51 114 0 20 -4 36 -9 36 -13 0 -29 47 -46 140 -9 47 -20 94
-25 105 -12 26 -48 330 -44 375 1 19 3 40 3 47 2 22 40 9 50 -17z m377 -50
c24 0 35 -46 60 -250 13 -107 38 -260 55 -340 49 -230 54 -267 39 -285 -7 -8
-18 -15 -24 -15 -17 0 -62 88 -76 150 -7 30 -16 57 -19 60 -10 7 -51 181 -51
213 0 15 -5 27 -10 27 -6 0 -10 18 -9 43 2 24 -1 49 -5 56 -5 7 -10 40 -11 73
-2 33 -7 63 -13 67 -6 4 -10 41 -8 94 2 48 -1 90 -6 93 -18 12 6 26 34 20 17
-3 37 -6 44 -6z m255 -29 c47 -8 116 -17 275 -37 22 -2 41 -10 42 -17 11 -146
75 -562 122 -791 17 -80 30 -152 30 -159 0 -22 -56 -28 -145 -16 -44 6 -85 11
-92 12 -7 0 -10 4 -7 8 2 4 -9 10 -26 14 -28 6 -30 10 -30 51 0 24 -4 44 -10
44 -5 0 -10 7 -10 15 0 8 -6 25 -12 36 -10 17 -10 23 0 26 19 7 14 27 -9 41
-14 9 -19 20 -16 33 7 24 -19 89 -34 89 -8 0 -9 12 -5 33 4 19 3 27 -3 19 -6
-10 -10 -7 -13 12 -3 14 0 30 6 36 8 8 6 14 -8 22 -19 11 -19 11 -1 24 10 8
13 14 7 14 -7 0 -12 6 -12 14 0 8 -7 22 -16 31 -9 8 -13 22 -11 30 3 7 2 28
-3 45 -6 20 -5 40 2 56 10 20 8 28 -10 47 -15 15 -22 36 -22 61 0 20 -5 46
-10 57 -7 12 -7 25 -2 36 10 17 -6 43 -27 43 -6 0 -11 5 -11 10 0 6 7 10 15
10 8 0 15 5 15 10 0 6 -7 10 -15 10 -9 0 -18 7 -21 15 -4 8 -10 13 -14 10 -5
-3 -11 -1 -15 5 -8 12 24 13 96 1z m2090 -23 c-14 -64 16 -534 38 -589 5 -15
14 -61 20 -103 6 -41 22 -107 35 -144 13 -38 27 -89 31 -113 4 -24 12 -47 18
-51 18 -11 4 -18 -49 -23 -27 -2 -40 -2 -29 1 11 4 25 10 30 14 13 11 7 90 -7
90 -5 0 -8 10 -7 23 1 12 -1 29 -4 37 -18 44 -72 334 -92 495 -6 48 -36 315
-38 335 -1 12 -11 27 -22 33 -19 10 -19 11 5 18 14 4 37 7 51 8 25 1 26 -1 20
-31z m-1581 -28 c19 -6 94 -17 165 -25 213 -24 214 -24 214 -43 -1 -9 4 -57
10 -107 11 -93 15 -133 26 -245 12 -112 15 -132 35 -248 11 -62 32 -156 45
-209 14 -52 25 -113 25 -134 l0 -39 -87 0 c-47 0 -115 5 -150 11 -60 10 -64
13 -59 34 4 15 -2 29 -19 45 -13 12 -27 40 -30 61 -4 21 -11 39 -16 39 -6 0
-9 6 -8 13 2 6 -1 31 -5 55 -6 32 -12 42 -23 38 -8 -4 -11 -2 -7 5 4 6 0 16
-7 21 -11 7 -11 11 -1 15 6 2 12 11 12 19 0 9 -4 12 -10 9 -5 -3 -10 1 -10 9
0 8 5 18 12 22 7 5 5 11 -8 21 -16 12 -17 15 -4 23 12 8 12 10 1 10 -11 0 -13
14 -9 68 6 76 3 92 -19 92 -13 0 -13 2 -2 17 11 13 12 17 1 21 -10 3 -10 8 3
22 15 17 15 19 -5 33 -12 9 -19 20 -15 27 4 6 -3 20 -16 31 -12 10 -17 19 -12
19 12 0 12 49 0 68 -5 7 -3 12 3 12 7 0 9 8 5 20 -4 11 -2 20 4 20 6 0 11 6
11 14 0 9 -9 12 -27 10 -16 -2 -22 -1 -15 2 6 3 12 16 12 29 0 13 5 25 11 27
7 2 9 13 5 26 -5 16 -18 24 -47 28 -21 4 -39 10 -39 15 0 11 7 11 50 -1z
m1025 -25 c-30 -15 -30 -15 -29 -99 1 -46 4 -88 8 -95 4 -6 2 -11 -3 -11 -6 0
-11 5 -11 12 0 6 -3 9 -6 6 -3 -4 -1 -23 5 -43 7 -26 7 -42 -1 -55 -13 -20 -3
-55 12 -45 5 3 10 0 10 -8 0 -8 -13 -17 -30 -20 -35 -8 -39 -23 -8 -33 41 -13
47 -26 21 -52 -12 -12 -23 -29 -23 -37 0 -8 -6 -15 -12 -15 -7 -1 -4 -6 7 -13
21 -13 27 -57 10 -69 -5 -4 -2 -10 8 -14 14 -5 15 -9 5 -21 -10 -12 -8 -18 12
-34 14 -10 19 -19 13 -19 -22 0 -14 -28 9 -32 26 -4 37 -28 12 -28 -9 0 -14
-3 -11 -6 3 -4 2 -15 -3 -24 -7 -13 -5 -21 5 -30 9 -8 13 -22 9 -39 -5 -25 -5
-25 10 -7 19 24 23 21 31 -29 5 -31 4 -36 -5 -25 -9 12 -10 9 -8 -15 2 -18 9
-30 18 -30 16 -1 16 -3 5 -48 -6 -23 -4 -27 14 -27 12 0 21 -4 21 -10 0 -5 26
-11 58 -11 l57 -2 -55 -7 c-96 -14 -394 -12 -412 3 -32 24 -107 407 -148 752
-27 234 -27 253 8 267 15 6 106 14 202 18 96 4 186 7 200 8 24 1 24 1 -5 -13z
m-1419 -929 c6 -6 19 -33 28 -61 10 -27 24 -64 32 -82 8 -17 14 -37 14 -45 0
-8 6 -23 14 -33 7 -10 11 -27 8 -37 -2 -10 1 -18 7 -18 6 0 11 -6 11 -14 0 -8
7 -22 16 -30 8 -9 13 -20 9 -26 -7 -11 -55 28 -55 46 0 7 -4 14 -8 16 -13 5
-112 161 -112 175 0 13 -6 23 -36 57 -8 8 -9 18 -2 29 7 14 4 18 -21 23 -17 4
-31 10 -31 15 0 13 112 -1 126 -15z m435 -56 c57 -6 114 -12 125 -15 21 -5 38
-40 64 -130 4 -16 18 -55 30 -85 31 -82 80 -222 80 -232 0 -15 -26 -8 -48 12
-12 11 -35 20 -51 20 -20 0 -35 7 -43 20 -7 11 -18 20 -25 20 -7 0 -13 5 -13
12 0 19 -31 47 -46 41 -8 -3 -14 0 -14 6 0 6 6 11 13 12 8 0 7 3 -3 6 -8 3
-26 17 -39 30 -22 20 -24 26 -13 43 16 26 15 30 -4 30 -10 0 -13 6 -9 19 3 10
-1 24 -10 31 -8 7 -12 16 -9 21 3 5 0 19 -7 31 l-12 22 -8 -22 c-11 -29 -29
-28 -30 1 -1 17 -2 18 -6 4 -6 -23 -32 -18 -47 8 -14 25 -28 35 -38 29 -4 -3
-5 2 -2 10 4 9 1 16 -6 16 -7 0 -10 7 -6 15 3 9 0 15 -9 15 -7 0 -17 5 -20 10
-8 13 73 13 206 0z m1712 -47 c8 -16 22 -54 31 -85 9 -32 21 -58 26 -58 6 0
10 -5 10 -12 0 -13 71 -160 81 -168 9 -7 49 -83 49 -94 0 -5 12 -24 26 -43 14
-19 24 -37 21 -39 -6 -6 -236 -54 -257 -54 -8 1 0 7 18 15 39 17 42 29 5 21
-23 -5 -25 -4 -10 4 9 6 17 21 17 33 0 23 -31 57 -53 57 -6 0 -4 5 6 11 19 11
24 68 7 85 -12 12 -16 76 -6 93 5 8 3 17 -5 22 -11 7 -12 12 -1 29 10 17 10
20 -4 20 -11 0 -14 6 -9 19 3 11 1 22 -5 26 -14 9 -13 92 2 101 7 5 3 11 -13
17 -23 9 -23 9 -4 17 36 15 54 10 68 -17z m-1203 -38 c74 -8 156 -15 182 -15
41 0 46 -2 41 -20 -3 -11 -1 -20 5 -20 6 0 13 -13 17 -30 4 -16 11 -30 16 -30
6 0 7 -4 4 -10 -6 -10 49 -159 91 -244 13 -28 24 -56 24 -64 0 -9 6 -12 16 -8
12 4 15 2 11 -9 -4 -8 -2 -17 4 -21 18 -11 19 1 1 47 -11 31 -22 44 -32 42
-12 -4 -12 -2 -2 5 10 7 9 20 -8 65 -12 31 -35 103 -51 159 -17 57 -33 111
-36 121 -3 9 -1 17 4 17 4 0 27 -63 51 -140 33 -110 95 -275 148 -397 11 -24
-77 -26 -144 -4 -34 12 -69 21 -78 21 -9 0 -18 9 -21 20 -3 12 -13 20 -22 19
-29 -3 -34 1 -21 16 10 12 10 15 -4 15 -9 0 -16 5 -16 10 0 6 -12 10 -26 10
-21 0 -24 4 -19 20 5 15 3 18 -9 14 -9 -3 -17 -1 -17 5 -1 6 -2 17 -3 24 0 6
-8 13 -16 13 -8 1 -21 2 -28 3 -8 1 -12 10 -10 24 2 17 -3 23 -22 26 -22 3
-23 4 -6 10 17 7 15 10 -17 30 -21 12 -37 27 -37 32 0 6 -4 8 -9 4 -5 -3 -12
-1 -16 5 -3 5 2 10 12 10 15 0 14 2 -5 16 -12 8 -22 21 -22 29 0 15 -34 38
-43 29 -3 -3 -3 4 0 16 4 15 -3 30 -22 50 -24 25 -25 29 -8 32 14 3 12 7 -14
21 -18 10 -32 23 -30 29 1 7 -3 12 -10 13 -6 0 -15 4 -20 9 -5 5 11 6 37 2 25
-4 106 -14 180 -21z m705 -16 c-4 -6 -2 -29 3 -52 6 -23 19 -73 28 -112 9 -38
20 -74 24 -80 4 -5 10 -30 13 -55 7 -59 17 -111 24 -130 4 -8 7 -18 7 -22 1
-3 4 -10 8 -14 4 -4 5 -18 2 -30 -5 -19 -1 -26 17 -32 38 -15 5 -23 -95 -25
-62 -1 -98 2 -108 10 -8 7 -19 9 -23 5 -5 -4 -6 0 -2 10 3 9 -3 39 -13 67 -17
44 -87 311 -105 399 -4 19 -3 32 3 32 6 0 8 9 5 20 -5 19 0 20 106 20 78 0
110 -3 106 -11z m693 -547 c3 -18 10 -22 43 -22 43 0 82 -29 73 -55 -4 -8 1
-17 10 -21 9 -3 16 -15 16 -25 0 -19 20 -26 74 -27 33 0 61 -30 71 -74 6 -27
10 -29 97 -44 21 -3 42 -12 49 -20 6 -8 9 -14 6 -14 -3 0 5 -11 19 -25 14 -14
31 -24 37 -23 7 1 21 -3 32 -9 11 -5 40 -13 64 -17 23 -4 57 -17 75 -29 33
-25 78 -41 139 -52 20 -3 37 -10 37 -16 0 -5 16 -17 35 -26 19 -9 35 -20 35
-24 0 -10 -43 2 -51 14 -9 12 -209 18 -209 6 0 -13 -17 -11 -32 5 -8 7 -28 17
-46 21 -17 3 -47 17 -67 31 -42 28 -49 30 -41 9 8 -22 -17 -18 -37 5 -9 11
-27 20 -39 20 -21 -1 -22 -2 -5 -14 9 -7 17 -16 17 -20 0 -12 -29 -6 -37 7 -4
8 -25 17 -46 20 -46 7 -67 22 -67 48 0 11 -5 19 -11 19 -5 0 -7 -4 -4 -10 3
-5 -1 -10 -11 -10 -13 0 -14 -3 -5 -13 10 -13 6 -27 -10 -27 -14 0 -17 39 -3
44 8 3 14 10 14 16 0 14 -27 13 -33 -2 -2 -9 -17 -4 -46 16 -23 16 -39 31 -37
34 3 2 30 -4 61 -13 30 -10 58 -16 60 -13 3 3 -39 17 -92 32 -114 32 -334 106
-419 140 -69 28 -84 54 -51 89 49 50 115 74 242 87 87 9 89 8 93 -18z m-643
-33 c55 0 94 -3 88 -6 -23 -9 -14 -29 20 -46 17 -8 79 -30 137 -48 58 -18 110
-36 115 -39 6 -4 23 -10 40 -14 16 -4 53 -18 81 -31 28 -13 71 -29 95 -35 24
-7 49 -16 56 -22 7 -5 18 -6 24 -2 8 5 9 3 4 -5 -4 -7 -15 -11 -25 -8 -19 5
-40 -22 -40 -54 0 -18 -4 -20 -26 -15 -14 4 -31 2 -38 -3 -8 -7 -25 -7 -47 -1
-19 5 -47 11 -64 14 -103 19 -223 45 -257 57 -81 27 -89 31 -83 50 4 10 3 24
0 29 -10 16 -35 -8 -28 -26 4 -10 0 -12 -11 -8 -10 4 -15 12 -12 20 3 7 0 15
-7 18 -9 3 -8 8 3 16 13 10 13 11 0 7 -21 -6 -47 9 -61 35 -10 18 -9 20 6 15
12 -5 16 -2 13 10 -2 9 -14 20 -28 23 -14 3 -26 14 -28 23 -3 12 1 15 14 10
12 -4 15 -3 10 6 -4 6 -13 11 -19 9 -7 -1 -28 6 -47 15 -26 13 -29 16 -10 12
14 -2 70 -5 125 -6z m1499 -647 c-24 -89 -22 -101 17 -102 11 0 24 25 43 90
18 60 32 90 41 90 19 0 19 5 -11 -103 -24 -86 -25 -92 -8 -104 24 -17 9 -17
-24 1 -15 8 -45 19 -67 25 -22 5 -50 13 -61 16 l-22 6 25 92 c13 51 26 98 28
105 4 9 12 7 34 -9 l29 -21 -24 -86z"/>
<path d="M5885 5279 c-437 -28 -883 -230 -1228 -558 -339 -322 -594 -764 -705
-1221 -59 -240 -67 -318 -67 -625 0 -248 3 -294 23 -400 161 -854 706 -1458
1459 -1617 94 -20 137 -23 333 -23 195 0 240 3 340 23 243 49 520 164 725 300
600 401 994 1084 1066 1846 14 155 7 427 -16 576 -63 415 -234 791 -494 1093
-303 351 -749 580 -1171 603 -52 3 -108 6 -125 7 -16 2 -79 0 -140 -4z m658
-142 c82 -38 105 -65 93 -111 -10 -39 -44 -42 -133 -12 -86 29 -93 30 -93 17
0 -5 47 -28 105 -52 58 -24 105 -46 105 -49 0 -3 -4 -11 -8 -18 -6 -9 -40 1
-138 41 -127 52 -129 53 -126 82 4 36 19 55 42 55 9 0 55 -13 101 -29 83 -29
108 -28 96 4 -9 23 -95 58 -147 60 -66 3 -70 4 -70 18 0 48 61 46 173 -6z
m284 -121 c88 -43 108 -69 99 -134 -3 -26 -15 -55 -26 -66 -19 -19 -21 -19
-77 -2 -80 25 -154 66 -163 91 -9 25 5 112 21 131 19 23 71 16 146 -20z m-572
-56 c592 -85 1076 -514 1281 -1135 221 -673 77 -1448 -376 -2020 -294 -371
-724 -626 -1157 -685 -134 -18 -402 -9 -523 19 -456 105 -819 388 -1036 808
-29 55 -47 104 -49 131 -4 50 16 54 25 6 4 -20 11 -29 23 -28 13 2 16 -4 12
-20 -2 -11 -2 -15 1 -8 3 6 10 9 16 6 6 -4 8 2 3 16 -6 20 -5 21 8 9 8 -8 12
-18 9 -23 -3 -5 1 -6 8 -1 9 5 10 2 5 -15 -6 -19 -4 -21 17 -18 14 2 30 -5 41
-17 17 -19 17 -19 0 14 -10 18 -25 47 -34 63 -8 16 -18 29 -22 29 -22 -3 -27
2 -27 30 0 17 -4 28 -10 24 -6 -4 -10 6 -11 22 0 25 -1 26 -9 8 -8 -18 -9 -17
-9 8 -1 15 -7 27 -13 27 -9 0 -8 4 2 10 13 9 13 12 -3 24 -10 8 -15 20 -11 30
8 21 -4 68 -16 61 -5 -3 -7 9 -4 27 3 18 -1 53 -9 77 -9 24 -13 50 -10 58 4
11 0 13 -18 8 -19 -4 -26 0 -35 19 -11 23 -10 25 6 16 10 -6 21 -10 23 -10 6
0 2 90 -8 198 -7 79 -9 82 -33 82 -21 0 -23 2 -12 15 15 18 13 21 -23 30 -29
8 -38 -8 -10 -19 12 -5 13 -10 5 -18 -8 -8 -8 -15 -1 -24 7 -8 7 -14 -1 -19
-13 -8 -32 4 -25 16 4 5 1 17 -4 26 -8 15 -11 10 -12 -22 -1 -38 -2 -37 -11
15 -11 68 -2 286 18 440 75 575 436 1147 919 1455 204 130 472 227 710 258 64
8 324 6 390 -3z m-1456 -330 c45 -49 81 -94 81 -98 0 -5 -8 -16 -18 -25 -15
-14 -21 -14 -33 -4 -29 23 -159 174 -159 183 0 14 22 34 36 34 7 0 49 -40 93
-90z m2945 -868 c11 -37 26 -150 26 -198 0 -54 -17 -81 -44 -71 -8 3 -20 -1
-26 -9 -17 -19 -37 -18 -49 4 -5 10 -15 63 -22 118 -12 96 -8 154 10 154 12 0
20 -35 11 -51 -7 -13 5 -148 16 -178 3 -10 8 -11 16 -3 6 6 9 35 6 71 -6 80
17 85 27 6 7 -56 20 -78 31 -51 8 22 -13 147 -31 184 -9 17 -14 36 -10 41 8
14 33 3 39 -17z m-3554 -60 c88 -31 106 -41 108 -60 2 -13 -3 -25 -13 -28 -15
-6 -220 60 -238 76 -14 12 3 50 21 50 9 0 64 -17 122 -38z m3586 -287 c12 -19
18 -57 22 -139 4 -106 3 -115 -17 -135 -23 -23 -73 -28 -89 -8 -6 7 -16 61
-22 120 -12 120 -5 151 40 174 36 18 47 16 66 -12z m-3725 -689 c107 -46 126
-58 141 -87 21 -40 23 -88 5 -113 -11 -15 -12 -12 -9 21 5 49 -25 90 -74 99
-30 5 -32 8 -18 18 14 11 14 14 1 24 -12 10 -23 7 -61 -15 -25 -15 -48 -36
-51 -45 -4 -10 -11 -18 -16 -18 -8 0 -13 30 -13 82 0 9 -3 15 -8 12 -4 -3 -8
-21 -8 -41 0 -20 -2 -34 -5 -31 -6 6 -17 148 -11 148 2 0 59 -24 127 -54z m79
-106 c29 -29 26 -74 -7 -100 -32 -25 -36 -53 -9 -60 29 -8 28 -23 -2 -45 -21
-15 -24 -15 -13 -2 12 15 11 17 -8 17 -30 0 -97 36 -105 55 -11 28 -7 38 9 25
13 -11 15 -7 15 27 0 79 73 130 120 83z m3153 -815 c6 -15 -85 -218 -111 -247
-21 -25 -27 -23 -51 18 -17 28 -25 34 -35 25 -17 -14 -29 -2 -15 15 6 8 9 20
6 28 -7 19 26 48 45 41 11 -4 36 17 79 64 35 39 66 71 70 71 4 0 9 -7 12 -15z
m-230 -277 c16 -33 17 -40 4 -65 -9 -15 -49 -61 -90 -100 -87 -85 -114 -92
-142 -40 -27 50 -15 76 76 167 95 95 121 101 152 38z m-1890 -338 c90 -28 112
-47 103 -92 -3 -19 -21 -53 -40 -74 l-33 -39 -55 12 c-30 6 -82 22 -114 35
-46 18 -60 28 -62 47 -5 35 5 66 34 100 32 38 71 40 167 11z m330 -110 c39
-14 62 -30 69 -46 6 -13 9 -27 5 -30 -10 -10 -47 7 -47 21 0 16 -119 58 -152
53 -15 -2 -24 -11 -26 -25 -4 -28 35 -49 125 -68 36 -8 67 -16 69 -18 4 -3
-26 -62 -42 -85 -2 -4 -234 68 -243 75 -3 2 0 8 6 14 7 7 41 0 108 -21 69 -23
100 -29 108 -21 14 14 15 13 -73 40 -41 13 -83 30 -92 39 -24 20 -23 53 3 81
19 20 29 23 73 18 28 -2 77 -14 109 -27z"/>
<path d="M6716 4988 c-17 -24 -20 -56 -8 -75 11 -17 113 -63 140 -63 23 0 26
4 36 52 8 35 -11 53 -90 85 -32 13 -59 23 -60 23 -2 0 -10 -10 -18 -22z"/>
<path d="M5910 4800 c-753 -93 -1372 -739 -1516 -1585 -24 -143 -29 -417 -10
-562 52 -394 209 -734 455 -982 119 -122 234 -206 374 -277 200 -100 389 -144
617 -144 304 0 556 80 835 265 53 35 265 218 325 280 165 171 331 443 400 655
5 14 20 55 34 93 32 85 71 262 87 390 17 146 7 453 -21 592 -49 246 -158 506
-290 690 -207 290 -539 504 -882 570 -103 19 -308 27 -408 15z m498 -160 l62
-29 -24 -63 c-26 -69 -144 -339 -151 -346 -2 -2 -24 4 -49 13 -29 11 -46 24
-46 34 0 9 18 75 39 146 21 72 48 163 60 203 12 39 27 72 34 72 7 0 40 -13 75
-30z m-1318 -437 c36 -59 73 -122 83 -141 l19 -34 -38 -39 c-21 -22 -44 -38
-52 -37 -7 2 -54 53 -105 113 -51 61 -99 110 -107 110 -8 0 -41 -32 -74 -72
-66 -79 -85 -90 -38 -21 36 52 217 228 235 228 7 0 41 -48 77 -107z m834 68
c36 -19 86 -55 109 -80 45 -48 102 -153 112 -206 4 -22 1 -18 -14 15 -33 78
-60 116 -119 167 -146 127 -307 151 -471 70 -125 -61 -241 -216 -271 -363 -17
-81 -8 -236 17 -304 41 -112 160 -261 207 -260 6 0 3 5 -6 11 -10 5 -18 15
-18 20 0 6 -22 31 -49 55 -54 49 -114 153 -131 230 -14 61 -14 187 0 249 31
139 148 287 277 348 63 29 76 32 168 32 93 0 105 -2 167 -33 242 -119 313
-463 148 -716 -26 -40 -67 -88 -91 -108 -92 -75 -216 -116 -313 -104 -40 5
-47 4 -32 -5 11 -7 50 -10 101 -7 69 4 95 10 152 38 78 38 188 141 222 208 23
46 36 55 26 20 -5 -19 -3 -18 10 5 31 54 26 26 -6 -34 -81 -152 -212 -245
-384 -274 l-40 -7 39 -34 38 -33 109 54 c60 30 114 55 120 55 8 0 9 -22 4 -75
-4 -41 -3 -75 2 -75 4 0 30 -7 56 -15 l49 -15 -7 51 c-11 76 19 189 69 263
154 228 442 216 557 -23 34 -69 38 -205 10 -289 -12 -35 -33 -81 -48 -103 -14
-22 -24 -42 -21 -45 3 -3 26 16 52 41 33 34 50 61 62 101 9 31 18 53 21 50 8
-8 -27 -106 -54 -154 -14 -24 -21 -47 -17 -51 5 -5 56 -20 114 -36 58 -15 114
-30 124 -33 17 -5 18 -1 12 32 -9 49 11 56 70 21 26 -15 57 -30 70 -34 13 -3
23 -10 23 -15 0 -5 17 -18 38 -30 21 -12 39 -28 41 -36 6 -35 -22 -49 -151
-70 -71 -12 -131 -20 -133 -17 -3 3 2 19 10 36 9 16 16 34 16 39 0 5 -84 16
-187 26 -104 9 -245 24 -315 31 -151 18 -151 18 -143 5 3 -5 1 -10 -4 -10 -6
0 -11 4 -11 9 0 10 -78 26 -87 18 -3 -3 14 -15 37 -27 49 -25 183 -42 238 -29
53 12 52 3 -4 -22 -82 -35 -192 -12 -285 62 -21 17 -48 29 -59 27 -14 -2 46
-53 216 -180 221 -168 237 -178 278 -178 43 0 45 -2 93 -67 93 -130 96 -135
76 -124 -10 6 -60 25 -111 42 -92 32 -92 32 -103 73 -10 37 -23 50 -152 146
-78 58 -213 158 -300 222 -175 131 -235 171 -173 115 l40 -35 -47 5 c-37 4
-52 2 -67 -12 -29 -26 -25 -31 19 -27 71 7 141 -15 204 -64 32 -24 63 -42 69
-38 7 5 8 2 3 -6 -5 -8 -4 -11 3 -6 14 8 85 -86 101 -133 21 -65 10 -66 -24
-2 -19 35 -42 72 -51 82 -46 51 -132 105 -206 130 -73 25 -86 27 -129 17 -50
-12 -52 -14 -49 -60 2 -33 -8 -36 -18 -7 -7 19 -24 4 -153 -130 -79 -84 -143
-156 -141 -162 1 -5 -5 -9 -13 -9 -8 0 -15 -5 -15 -10 0 -7 13 -9 33 -5 20 4
87 -7 184 -29 93 -22 164 -33 182 -30 25 5 38 -1 80 -37 74 -64 70 -71 -41
-84 -49 -5 -58 -4 -70 14 -8 11 -60 37 -118 59 -93 35 -107 38 -122 25 -12
-11 -15 -24 -11 -49 5 -30 2 -35 -21 -44 -40 -15 -57 -12 -63 9 -5 18 -6 18
-34 3 -33 -20 -40 -47 -9 -37 11 3 20 2 20 -3 0 -5 -9 -12 -19 -15 -17 -4 -18
-9 -10 -47 10 -45 53 -135 68 -144 5 -4 12 -2 16 4 3 5 11 10 17 10 6 0 4 -8
-6 -19 -16 -17 -14 -20 28 -59 24 -22 59 -48 77 -57 30 -16 34 -16 44 -1 16
22 22 20 21 -6 -1 -19 6 -23 49 -31 28 -5 70 -6 93 -2 37 5 43 10 39 26 -3 10
-1 19 4 19 5 0 9 -7 9 -15 0 -21 23 -19 73 6 73 37 109 68 102 90 -4 11 -2 19
4 19 6 0 11 -5 11 -12 0 -19 41 24 82 86 37 57 48 96 28 96 -5 0 -10 5 -10 10
0 6 8 10 17 8 21 -4 41 68 42 155 1 53 -1 57 -21 57 -21 1 -21 2 -5 11 22 13
21 42 -6 109 -34 86 -42 97 -61 81 -18 -15 -22 -1 -4 17 15 15 -26 61 -92 104
l-45 28 -18 -22 -18 -23 6 26 c8 33 -9 39 -115 39 -59 1 -71 3 -56 12 27 15
130 4 198 -22 178 -67 288 -294 245 -503 -40 -195 -160 -343 -322 -397 -92
-30 -206 -26 -287 12 -111 52 -211 188 -225 308 -6 54 -23 69 -23 21 0 -46 37
-153 70 -203 88 -132 242 -203 392 -179 103 17 200 72 296 167 53 53 92 102
108 136 13 29 21 42 18 28 -14 -57 -82 -168 -135 -221 -229 -229 -560 -188
-707 88 -29 56 -67 183 -54 183 3 0 3 3 -1 6 -3 3 -46 -19 -96 -50 -50 -31
-93 -56 -96 -56 -3 0 -5 10 -5 23 0 27 85 453 96 481 5 14 3 17 -7 14 -7 -2
-16 -15 -19 -28 -3 -13 -13 -28 -23 -34 -34 -20 -65 52 -35 82 17 17 33 15 19
-2 -15 -18 -10 -68 7 -74 7 -2 15 9 18 27 4 17 11 34 16 37 12 7 -10 34 -28
34 -19 0 -35 33 -24 50 7 11 11 11 24 1 11 -9 16 -10 16 -2 0 6 -11 16 -25 21
-18 7 -25 17 -25 35 0 22 4 25 20 20 26 -8 25 -1 -4 27 -13 13 -26 38 -29 56
-6 28 -4 32 16 32 22 1 22 1 -3 21 -32 27 -36 63 -6 55 17 -4 15 0 -11 24 -30
27 -31 29 -12 35 10 4 17 11 13 16 -3 6 -11 8 -18 6 -6 -2 -19 4 -29 13 -16
16 -16 18 -2 24 9 3 23 -1 31 -9 9 -8 21 -15 27 -15 7 1 0 11 -15 23 -27 22
-35 46 -21 60 3 4 15 -1 26 -10 16 -14 19 -15 15 -3 -2 8 -18 22 -36 31 -30
16 -31 17 -13 33 9 9 21 13 26 9 4 -5 5 0 2 10 -5 13 -3 17 5 15 7 -3 13 -13
13 -24 0 -13 -6 -18 -20 -16 -15 3 -13 -2 11 -25 27 -25 31 -34 29 -78 -2 -28
1 -55 6 -60 4 -6 8 -20 8 -30 0 -11 2 -44 5 -74 5 -49 4 -53 -14 -48 -11 3
-20 1 -20 -4 0 -5 4 -9 8 -9 5 0 17 -7 28 -16 19 -15 18 -15 -3 -11 -28 6 -31
-9 -3 -18 18 -6 27 -33 30 -85 3 -72 9 -94 27 -109 11 -9 22 -21 24 -26 6 -17
83 -125 90 -125 3 0 45 84 93 188 48 103 102 215 119 249 l32 63 48 -41 c26
-23 50 -39 53 -36 3 2 -29 33 -71 68 -82 67 -85 82 -19 95 24 4 37 0 62 -21
18 -15 32 -35 32 -44 0 -17 19 -39 46 -54 16 -9 5 44 -14 66 -9 10 -55 41
-102 69 -47 28 -112 76 -145 108 -33 31 -76 63 -95 71 -88 34 -192 182 -225
320 -57 244 66 523 281 636 83 44 123 53 230 50 82 -3 99 -7 158 -36z m1075
-127 l34 -55 -30 -28 c-17 -15 -32 -32 -34 -37 -5 -14 -237 -204 -249 -204
-15 0 -62 77 -58 94 5 25 229 258 243 252 7 -2 21 4 31 15 9 10 20 19 23 19 4
0 22 -25 40 -56z m-2311 -571 c84 -39 122 -61 122 -73 0 -30 -32 -110 -43
-110 -15 0 -255 67 -267 75 -5 3 2 35 16 73 14 37 27 73 29 80 2 6 8 12 12 12
4 0 63 -25 131 -57z m1913 29 c50 -24 123 -92 146 -135 24 -47 8 -42 -43 13
-27 29 -76 66 -109 83 -52 27 -70 31 -140 31 -97 0 -152 -22 -225 -90 -56 -53
-82 -91 -117 -173 -14 -31 -21 -43 -18 -26 27 125 157 272 273 310 65 21 176
14 233 -13z m-2151 -290 c-5 -39 -7 -78 -4 -86 3 -9 1 -16 -5 -16 -6 0 -11
-15 -11 -32 0 -18 -5 -51 -10 -73 -6 -25 -6 -41 1 -43 5 -2 6 -9 2 -15 -3 -5
-9 -41 -13 -79 -4 -52 -3 -68 7 -68 7 0 13 -4 13 -10 0 -5 -4 -10 -9 -10 -5 0
-11 -19 -12 -42 -4 -43 -4 -43 29 -44 40 -1 53 -17 50 -63 -2 -27 -9 -38 -35
-50 -30 -15 -32 -19 -30 -64 2 -47 2 -47 31 -41 18 4 26 2 22 -4 -3 -5 -17
-12 -31 -14 -25 -5 -33 6 -34 52 -2 58 -8 118 -13 126 -19 32 0 398 26 524 32
147 43 170 26 52z m561 -381 c6 -49 -4 -60 -32 -35 -64 58 -160 -35 -99 -96
29 -29 57 -25 97 15 20 20 38 34 40 32 11 -11 7 -90 -4 -94 -7 -3 -13 3 -13
13 0 16 -2 16 -22 -3 -32 -28 -54 -34 -83 -23 -58 22 -74 143 -25 195 26 27
77 34 98 13 9 -9 12 -7 12 11 0 39 25 17 31 -28z m1929 -226 c52 -14 106 -34
120 -44 14 -9 47 -24 74 -32 27 -8 50 -19 53 -25 4 -12 -34 -121 -46 -128 -4
-3 -31 6 -60 20 -29 13 -61 24 -70 24 -14 0 -197 83 -209 95 -5 5 31 115 37
115 3 0 49 -11 101 -25z m265 -502 c-263 -506 -732 -844 -1270 -917 -96 -13
-98 -14 -40 -16 33 -1 55 -4 48 -7 -17 -7 -325 15 -352 25 -13 5 48 8 152 8
124 -1 178 3 189 11 8 7 28 14 44 16 17 2 36 7 43 11 7 5 40 9 74 10 115 5
357 111 537 234 69 48 85 64 85 85 1 15 12 35 25 48 48 41 105 76 118 71 37
-12 244 253 351 451 64 115 61 93 -4 -30z m-2252 28 c15 -22 27 -44 27 -49 0
-11 -255 -285 -269 -290 -9 -3 -101 134 -101 150 0 4 6 8 13 8 7 0 73 50 147
110 74 61 139 110 145 110 5 0 22 -18 38 -39z m1666 -140 c39 -47 71 -91 71
-99 0 -9 21 -35 47 -59 l47 -43 -54 -55 c-30 -30 -60 -55 -67 -55 -7 0 -19 16
-27 35 -8 19 -26 45 -39 58 -25 24 -86 112 -132 190 l-28 48 44 45 c34 35 46
41 55 32 7 -7 44 -51 83 -97z m-1166 -221 c4 -3 3 -19 -2 -36 -5 -16 -28 -94
-52 -174 -55 -191 -67 -220 -90 -220 -25 0 -129 40 -129 49 0 8 166 396 176
413 5 7 81 -18 97 -32z"/>
<path d="M5637 4233 c-12 -3 -15 -11 -11 -29 4 -14 2 -24 -5 -24 -6 0 -11 9
-11 20 0 24 -3 24 -41 4 -23 -11 -29 -20 -24 -35 4 -11 2 -19 -4 -19 -6 0 -11
7 -11 15 0 20 -5 19 -40 -7 l-30 -22 26 -33 c14 -19 24 -39 21 -46 -2 -6 -15
5 -28 25 -13 21 -27 38 -31 38 -4 0 -16 -13 -27 -28 -15 -22 -17 -32 -9 -40 7
-7 9 -15 5 -19 -4 -4 -13 -1 -19 5 -9 9 -16 4 -31 -20 -17 -29 -18 -33 -3 -44
23 -16 20 -25 -7 -19 -20 5 -25 1 -35 -30 -10 -33 -9 -38 8 -42 11 -3 17 -9
15 -14 -3 -4 -12 -6 -20 -3 -15 6 -19 0 -29 -48 -5 -23 -3 -28 14 -28 11 0 20
-4 20 -10 0 -5 -9 -10 -20 -10 -17 0 -20 -7 -20 -40 0 -38 12 -52 25 -30 3 6
14 10 24 10 14 0 17 9 17 47 -1 42 2 47 27 55 41 14 57 4 57 -37 0 -19 3 -35
6 -35 28 0 233 68 247 82 10 10 25 18 35 18 37 -1 126 -27 130 -38 2 -6 -16
-23 -40 -38 -23 -15 -49 -34 -57 -42 -10 -10 -26 -12 -55 -8 -22 4 -87 0 -147
-10 l-107 -16 5 -32 c3 -21 0 -36 -10 -44 -13 -11 -15 -8 -10 28 5 32 2 40
-10 40 -10 0 -13 -6 -10 -20 3 -11 0 -20 -6 -20 -6 0 -11 9 -11 20 0 11 -4 20
-10 20 -14 0 -12 -54 2 -68 9 -9 8 -12 -5 -12 -10 0 -18 12 -22 34 -5 27 -13
35 -33 39 -35 7 -36 5 -28 -38 6 -30 10 -35 27 -30 22 7 25 -3 5 -19 -13 -10
-13 -15 0 -45 11 -26 17 -32 26 -23 20 20 32 14 14 -6 -15 -18 -15 -21 5 -46
20 -26 22 -26 40 -10 22 19 25 13 7 -15 -10 -17 -8 -23 13 -40 22 -18 25 -18
43 -3 18 16 18 16 11 -6 -5 -17 -2 -27 12 -37 29 -23 41 -17 54 25 7 22 16 40
21 40 11 0 10 0 -6 -48 l-15 -41 31 -10 c40 -14 38 -14 38 9 0 11 5 20 10 20
6 0 10 -9 10 -20 0 -16 7 -20 34 -20 29 0 33 3 29 20 -3 11 0 20 6 20 6 0 11
-10 11 -21 0 -17 4 -20 23 -15 12 3 28 6 36 6 8 0 11 7 8 20 -3 11 -2 22 3 25
4 3 10 -4 13 -16 5 -19 7 -20 36 -4 26 13 30 20 25 43 -5 25 -4 25 9 10 18
-22 23 -22 52 0 16 13 21 23 14 33 -15 24 -10 33 9 16 17 -16 20 -15 40 13 13
17 18 31 12 35 -6 3 -10 14 -10 23 0 12 3 13 12 4 18 -18 26 -15 43 19 15 29
15 32 -2 46 -17 14 -17 14 3 10 16 -3 25 2 33 20 15 33 14 53 -4 53 -8 0 -15
5 -15 11 0 6 8 8 19 4 14 -4 20 0 25 17 11 41 7 57 -16 61 l-23 4 23 8 c17 6
22 15 22 42 l0 36 -40 -7 c-22 -3 -40 -2 -40 3 0 5 18 12 41 16 39 7 40 8 33
38 -9 44 -14 50 -29 37 -9 -8 -15 -8 -20 0 -3 5 -3 10 2 10 4 0 14 4 21 9 12
7 11 14 -2 40 -14 27 -20 30 -36 21 -25 -13 -28 5 -3 18 15 9 14 13 -7 42 -22
31 -24 32 -37 15 -7 -10 -16 -16 -19 -12 -4 4 -1 14 6 22 11 13 9 20 -11 41
-22 23 -24 24 -36 8 -7 -10 -16 -15 -19 -11 -4 4 -1 13 5 21 10 11 7 17 -11
30 -28 20 -48 20 -48 1 0 -8 -4 -15 -10 -15 -5 0 -9 10 -7 22 3 30 -53 47 -60
17 -3 -10 -10 -19 -15 -19 -5 0 -6 9 -3 20 6 17 2 20 -29 20 -29 0 -36 -4 -36
-20 0 -11 -4 -20 -10 -20 -5 0 -10 9 -10 20 0 20 -14 23 -53 13z"/>
<path d="M6409 3556 c-1 -3 -2 -10 -3 -15 -2 -18 -16 -24 -16 -8 0 10 -5 17
-10 17 -15 0 -92 -39 -112 -57 -16 -14 -16 -17 4 -44 12 -16 18 -32 14 -36 -4
-4 -12 -1 -16 7 -28 45 -28 45 -49 26 -23 -21 -71 -99 -71 -115 0 -6 6 -11 13
-11 7 0 22 -7 33 -16 19 -15 19 -15 -1 -11 -11 3 -28 8 -37 12 -22 9 -38 -47
-38 -137 0 -65 1 -68 28 -74 15 -4 117 -31 227 -60 133 -36 202 -50 206 -42 4
6 15 2 28 -11 12 -12 28 -21 34 -18 12 3 77 104 77 118 0 4 -13 12 -30 18 -41
14 -38 23 5 15 31 -5 35 -4 41 20 12 49 10 131 -3 128 -7 -1 -13 2 -13 8 0 5
5 10 10 10 6 0 10 9 10 20 0 23 -39 130 -48 130 -3 0 -16 -10 -29 -22 -13 -12
-26 -18 -29 -15 -4 4 5 16 19 28 22 16 25 24 17 39 -10 19 -99 85 -104 78 -1
-1 -8 -18 -15 -35 -18 -44 -32 -42 -18 2 6 19 7 38 3 42 -8 9 -126 17 -127 9z
m131 -295 c61 -8 64 -31 7 -64 -24 -14 -50 -33 -57 -42 -10 -12 -23 -15 -49
-10 -20 3 -91 -3 -158 -13 -96 -15 -125 -16 -133 -7 -7 9 -6 16 5 25 8 7 15
21 15 31 0 23 28 25 36 4 4 -8 10 -13 15 -10 4 3 6 12 2 20 -3 8 0 15 6 15 6
0 11 -6 11 -14 0 -20 143 27 185 61 20 15 37 21 50 17 11 -3 40 -9 65 -13z"/>
<path d="M7711 3374 c-22 -16 -23 -21 -18 -102 6 -98 18 -118 57 -99 24 12 25
17 24 99 0 55 -6 93 -14 103 -16 19 -20 19 -49 -1z"/>
<path d="M6920 1474 c-33 -31 -62 -65 -66 -76 -6 -19 19 -68 35 -68 13 0 120
99 132 121 11 21 -13 79 -32 79 -6 0 -37 -25 -69 -56z"/>
<path d="M5037 1162 c-8 -9 -20 -29 -26 -44 -9 -24 -7 -30 12 -43 33 -21 105
-45 138 -45 23 0 32 7 49 41 27 52 19 62 -67 89 -79 24 -86 25 -106 2z"/>
<path d="M7925 4256 c8 -54 -7 -70 -106 -118 -47 -22 -69 -39 -69 -50 0 -22 4
-22 71 1 120 41 204 106 182 140 -6 9 -19 17 -31 19 -12 2 -23 13 -26 28 -11
43 -28 27 -21 -20z"/>
</g>
</svg>
