<?xml version="1.0" standalone="no"?>
<!DOCTYPE svg PUBLIC "-//W3C//DTD SVG 20010904//EN"
 "http://www.w3.org/TR/2001/REC-SVG-20010904/DTD/svg10.dtd">
<svg version="1.0" xmlns="http://www.w3.org/2000/svg"
 width="321.000000pt" height="500.000000pt" viewBox="0 0 321.000000 500.000000"
 preserveAspectRatio="xMidYMid meet">
<metadata>
Created by potrace 1.16, written by Peter Selinger 2001-2019
</metadata>
<g transform="translate(0.000000,500.000000) scale(0.100000,-0.100000)"
fill="#000000" stroke="none">
<path d="M1420 4673 c-11 -8 -20 -20 -20 -28 0 -11 24 -15 118 -18 l117 -3
-125 -2 c-143 -2 -168 -12 -220 -83 -31 -43 -42 -80 -17 -62 6 6 65 11 131 12
107 2 118 1 112 -14 -3 -9 -6 -19 -6 -21 0 -2 -57 -4 -126 -4 -141 0 -121 8
-220 -87 -28 -27 -53 -60 -57 -72 l-6 -23 144 4 c139 3 144 2 132 -16 -11 -16
-26 -18 -142 -17 -137 2 -189 -7 -210 -35 -7 -10 -21 -18 -31 -19 -102 -9
-125 -17 -149 -52 -13 -20 -21 -42 -18 -51 4 -8 2 -13 -3 -10 -5 4 -10 -4 -10
-15 -1 -21 2 -22 50 -17 56 6 77 15 95 45 l12 20 -5 -20 c-40 -162 -48 -181
-84 -201 -77 -41 -231 -164 -302 -243 -176 -194 -287 -405 -341 -651 -31 -138
-34 -398 -6 -530 70 -327 253 -614 493 -772 l62 -41 6 -86 c4 -47 9 -111 11
-141 5 -52 4 -53 -8 -23 -6 18 -16 36 -22 41 -13 12 -126 32 -119 21 2 -4 7
-29 9 -54 9 -90 48 -125 141 -125 23 0 36 -7 48 -25 9 -14 25 -25 36 -25 15 0
20 -7 20 -30 0 -72 49 -220 86 -261 9 -10 14 -30 12 -46 l-3 -28 140 -10 c139
-10 140 -10 149 -37 5 -15 8 -29 5 -31 -2 -2 -62 -2 -133 1 l-128 4 -14 32
c-15 30 -15 30 -9 3 15 -71 50 -141 92 -185 l46 -46 115 -6 c69 -3 117 -9 119
-16 3 -10 -72 -10 -209 -1 -21 1 -38 1 -38 -1 0 -2 7 -16 15 -31 20 -40 72
-81 102 -81 14 0 36 -9 50 -20 l26 -20 -24 -1 c-13 -1 -28 -1 -32 0 -23 4
-188 -33 -197 -44 -17 -20 12 -42 73 -54 181 -37 768 -51 1113 -27 295 21 374
39 358 81 -4 10 -90 30 -163 38 -33 3 -38 23 -7 31 29 7 101 109 111 158 4 18
17 40 30 49 28 23 81 129 95 193 6 27 21 62 35 77 29 36 62 122 71 188 3 27
12 52 20 55 34 13 85 196 85 307 0 38 4 69 9 69 26 0 57 277 40 354 -8 34 -7
53 2 69 12 24 37 242 30 269 -2 9 -10 14 -17 12 -21 -8 -27 29 -20 124 5 75 3
97 -18 162 -15 49 -28 74 -37 72 -7 -2 -17 3 -21 10 -7 10 -9 10 -9 1 0 -10
-25 -13 -90 -13 -76 0 -90 3 -90 16 0 14 12 16 83 13 49 -3 83 0 85 6 1 6 -34
11 -88 13 -93 3 -126 21 -42 24 l47 1 -45 7 c-37 6 -30 7 43 8 50 1 87 6 87
12 0 6 -35 10 -84 10 -65 0 -85 3 -90 15 -4 13 10 15 92 17 53 1 75 3 47 5
-27 1 -69 5 -93 9 -43 5 -43 6 -40 42 l3 37 80 3 c44 2 83 6 87 10 4 4 -30 6
-75 5 -60 -1 -73 1 -47 6 32 8 33 8 8 10 -16 0 -28 6 -28 11 0 18 36 25 110
22 65 -3 71 -5 66 -23 -10 -32 -17 -65 -10 -51 3 6 14 12 25 12 11 0 22 7 26
16 6 15 8 15 20 -2 7 -10 13 -32 13 -48 0 -17 4 -38 9 -45 18 -28 26 40 26
209 0 133 -3 171 -16 197 -15 28 -15 34 -2 53 13 19 14 38 4 145 -7 68 -19
148 -27 177 -8 29 -20 80 -25 113 -11 74 -35 147 -62 193 -13 21 -25 71 -33
131 -13 100 -43 202 -68 230 -8 9 -22 56 -31 105 -17 95 -34 137 -63 158 -9 7
-23 35 -30 62 -15 59 -44 102 -75 112 -12 3 -29 12 -37 20 -24 21 -1080 28
-1110 7z m1012 -312 c-3 -9 -1 -12 6 -8 10 7 29 -35 71 -161 37 -110 88 -364
95 -477 3 -38 3 -59 0 -45 -3 14 -14 70 -25 125 -29 148 -69 297 -85 323 -8
12 -23 22 -33 22 -18 0 -18 -3 -5 -47 14 -46 64 -336 64 -370 0 -14 -4 -13
-23 5 -13 12 -31 22 -41 22 -9 0 -14 5 -11 10 3 6 1 10 -6 10 -8 0 -10 -24 -5
-92 l7 -93 -33 40 c-47 58 -102 109 -193 177 -68 52 -79 64 -77 87 4 36 31
147 48 203 17 53 22 53 91 6 23 -15 46 -28 52 -28 6 0 19 -10 31 -22 l20 -22
0 61 c0 65 -13 86 -60 97 -14 3 -1 3 28 1 29 -2 58 -8 65 -12 11 -7 58 -5 66
3 2 2 -7 25 -19 51 -13 27 -31 63 -39 81 -9 17 -21 32 -28 32 -17 0 -16 2 4
45 17 35 17 35 29 13 6 -12 9 -29 6 -37z m-500 15 c33 7 68 -9 48 -21 -19 -12
-430 -20 -430 -8 0 5 -14 10 -32 11 -48 4 -47 12 0 12 23 0 42 3 42 8 0 4 78
4 172 0 95 -4 185 -5 200 -2z m335 -121 c-5 -44 -12 -51 -32 -31 -16 15 -90
22 -242 20 -47 0 -47 0 -33 26 9 17 25 19 160 19 l151 1 -4 -35z m-1003 -184
c-4 -20 -8 -38 -10 -40 -3 -3 -35 -12 -72 -22 -38 -9 -102 -30 -144 -47 l-77
-29 56 51 c50 46 78 64 138 86 11 4 35 14 53 22 53 24 63 20 56 -21z m896 4
c0 -9 -6 -44 -14 -78 -8 -34 -17 -74 -20 -89 l-6 -27 -56 34 c-55 33 -211 95
-240 95 -21 0 -17 18 9 34 14 8 64 16 132 19 61 3 121 10 135 16 37 15 60 13
60 -4z m-460 -82 c177 -35 363 -124 471 -225 19 -18 27 -27 17 -19 -17 13 -21
12 -41 -9 -13 -14 -14 -18 -4 -10 16 11 20 10 35 -11 18 -26 18 -34 1 -34 -6
0 -21 -13 -33 -28 -19 -24 -24 -26 -35 -14 -9 12 -8 16 3 20 8 3 19 15 25 26
9 16 8 19 -7 16 -10 -1 -16 -9 -14 -19 3 -18 -13 -22 -21 -6 -3 6 -4 5 -3 -2
2 -7 -4 -19 -13 -26 -14 -11 -14 -11 1 -6 13 4 19 -1 24 -21 5 -20 9 -24 16
-13 8 10 9 10 5 -2 -2 -8 3 -24 12 -35 9 -10 -11 4 -44 31 -123 104 -259 177
-402 216 -114 31 -362 32 -483 1 -98 -25 -227 -77 -298 -121 -75 -46 -109 -33
-115 46 -1 18 -6 22 -22 18 -31 -8 26 36 115 89 242 142 540 193 810 138z
m-619 -257 c-13 -7 -19 -15 -13 -17 6 -2 -26 -23 -71 -47 -45 -23 -71 -33 -57
-22 14 11 20 20 15 20 -17 0 -56 -31 -50 -40 3 -4 -12 -20 -33 -36 -28 -21
-32 -22 -18 -6 33 37 7 24 -57 -29 -114 -95 -244 -263 -252 -326 -1 -15 -8
-27 -15 -25 -6 1 -9 -2 -6 -7 4 -5 -9 -56 -28 -113 -56 -166 -72 -298 -55
-460 38 -387 258 -686 601 -818 147 -57 347 -75 502 -46 103 20 246 70 246 86
0 4 7 11 16 14 10 4 13 2 9 -7 -4 -6 -1 -5 7 3 21 25 76 61 99 65 50 10 269
223 269 262 0 7 5 13 11 13 5 0 8 4 5 8 -3 5 6 20 20 35 14 15 22 27 19 27 -4
0 5 14 19 31 14 17 26 35 26 41 0 6 3 9 6 6 16 -17 -102 -193 -194 -290 -94
-99 -212 -191 -186 -145 4 7 3 9 -2 4 -5 -5 -9 -14 -9 -20 0 -7 -47 -35 -104
-64 -317 -157 -685 -136 -972 57 -81 55 -203 177 -256 255 -120 179 -174 361
-174 590 0 112 4 146 29 245 77 298 254 540 501 688 71 42 102 55 65 27 -24
-18 -7 -19 26 0 15 9 19 15 10 15 -16 1 48 39 65 39 6 0 -1 -6 -14 -13z m1589
-222 l10 -26 36 22 c34 22 36 22 50 4 24 -31 62 -97 74 -128 9 -24 8 -27 -6
-22 -11 4 -15 2 -11 -8 3 -8 -5 -19 -18 -26 -15 -8 -23 -21 -22 -33 1 -15 -10
-28 -40 -45 -24 -13 -43 -19 -43 -15 0 5 16 17 35 26 19 9 35 21 35 27 0 7 -8
7 -22 -1 l-23 -12 23 25 23 26 -54 -13 c-60 -14 -97 -31 -97 -45 0 -6 -8 -5
-19 2 -18 11 -17 13 19 29 30 14 38 22 35 38 -3 15 0 18 12 14 11 -4 14 -2 9
5 -8 14 40 40 51 28 10 -10 -19 -27 -35 -21 -7 3 -10 1 -7 -4 3 -6 -3 -14 -12
-20 -10 -6 -13 -11 -7 -11 6 0 26 11 45 25 19 13 44 30 57 37 15 7 22 19 20
32 -4 28 -40 32 -63 6 -10 -11 -22 -20 -27 -20 -5 0 -37 -16 -70 -36 -45 -26
-63 -32 -69 -23 -5 8 5 19 29 32 62 32 103 59 99 64 -3 2 -26 -9 -53 -24 -60
-35 -90 -39 -105 -12 -12 24 -2 35 74 74 26 14 47 30 47 36 0 10 -42 -12 -103
-54 -16 -10 -30 -17 -33 -15 -6 7 118 88 134 88 7 0 17 -12 22 -26z m-1867
-256 c18 -11 44 -32 59 -46 l27 -24 -26 -39 c-14 -22 -29 -39 -34 -39 -19 0
-138 64 -133 72 3 5 10 6 15 3 5 -3 6 0 4 8 -8 19 31 52 48 41 7 -5 5 -2 -4 7
-13 12 -15 19 -6 28 14 14 14 15 50 -11z m1918 -83 c54 -35 75 -55 89 -88 11
-23 20 -37 20 -30 0 17 -21 64 -39 88 -15 18 -15 19 0 7 9 -6 18 -10 21 -7 3
3 21 -10 40 -29 24 -23 40 -52 51 -93 23 -81 22 -83 -17 -64 -23 11 -36 26
-44 51 l-10 35 1 -40 2 -40 -76 -3 -77 -3 -11 68 c-7 37 -21 101 -31 141 -24
87 -24 87 -4 68 8 -9 47 -36 85 -61z m-622 -12 c-1 -5 -39 -43 -84 -86 -56
-53 -92 -80 -111 -82 -15 -1 -33 -10 -39 -19 -7 -9 -15 -16 -18 -16 -6 0 -94
-53 -244 -148 -113 -71 -113 -71 -113 -44 0 22 5 28 23 29 21 2 21 1 3 -13
-21 -15 -10 -20 13 -5 7 5 10 14 7 20 -15 24 61 105 151 161 48 29 109 71 136
91 27 21 86 51 135 68 48 17 96 35 107 40 25 12 35 13 34 4z m-771 -246 c59
-56 109 -97 121 -97 11 0 29 14 41 30 l21 30 -45 0 c-25 0 -47 3 -49 8 -3 4
17 5 45 3 45 -3 53 0 83 29 18 17 35 45 39 61 4 21 11 29 26 29 11 0 20 -3 20
-7 0 -11 -20 -40 -20 -30 0 4 -27 -25 -59 -65 -33 -40 -76 -90 -95 -112 -20
-21 -36 -45 -36 -52 0 -8 -4 -14 -10 -14 -5 0 -10 -6 -10 -13 0 -17 -34 -49
-43 -41 -3 4 4 15 16 25 19 17 16 16 -15 -2 -33 -18 -38 -19 -38 -5 0 9 19 38
42 64 24 26 33 39 21 28 -20 -17 -23 -17 -29 -2 -3 9 -10 14 -14 11 -4 -3 -20
8 -36 23 -15 15 -24 20 -20 12 4 -8 -2 -4 -14 10 -12 14 -18 19 -14 11 7 -15
-96 37 -108 54 -4 5 -6 16 -3 23 3 7 1 10 -4 7 -5 -3 -17 5 -25 17 -19 27 -21
42 -3 32 6 -4 8 -3 4 1 -15 17 -57 17 -57 0 0 -9 3 -14 8 -12 4 3 8 -17 9 -44
2 -56 -11 -65 -22 -16 l-7 32 -11 -32 c-12 -40 -32 -45 -22 -5 3 15 7 38 8 52
1 14 7 28 12 32 6 4 2 8 -8 8 -12 0 -17 6 -15 18 2 9 11 15 19 13 8 -2 22 -3
32 -3 9 0 15 -3 13 -7 -3 -4 1 -8 9 -8 13 0 13 3 0 17 -8 9 -15 19 -15 22 0 2
36 -5 79 -16 77 -21 81 -23 179 -119z m581 -81 c8 -9 26 -12 61 -8 28 2 50 2
50 -1 0 -12 -69 -47 -94 -47 -14 0 -26 -4 -26 -10 0 -18 -50 -23 -68 -7 -9 8
-28 18 -42 22 -29 9 -70 34 -70 44 0 3 21 5 46 2 25 -2 51 2 57 8 15 15 72 14
86 -3z m957 -268 c-2 -10 3 -19 13 -21 9 -3 -4 -5 -29 -6 l-45 -1 43 -26 c23
-14 42 -29 42 -35 0 -12 -36 -12 -59 1 -16 8 -20 5 -24 -19 -12 -61 -49 -103
-141 -162 -50 -32 -91 -57 -92 -56 -1 1 20 67 46 147 l48 145 53 -2 c30 0 43
1 29 4 -27 5 -60 30 -60 45 0 5 41 7 90 6 80 -3 90 -5 86 -20z m-2065 -167
l17 -39 -67 -46 c-38 -25 -70 -46 -73 -46 -3 0 -15 23 -28 51 -18 43 -19 54
-8 65 15 15 131 64 137 58 2 -2 12 -21 22 -43z m664 -16 c32 -31 31 -56 -1
-94 -33 -40 -74 -42 -103 -5 -28 36 -26 60 8 95 36 35 64 37 96 4z m1100 -174
c-4 -15 6 -26 52 -54 43 -27 61 -33 71 -25 10 9 9 15 -8 33 -30 32 -24 37 15
15 43 -24 46 -24 39 -5 -4 10 0 15 15 15 12 0 21 -6 21 -14 0 -17 -26 -40 -38
-33 -4 3 -14 1 -22 -4 -12 -8 -11 -12 10 -28 13 -11 28 -17 32 -15 3 2 9 -5
13 -15 7 -23 -21 -84 -35 -76 -6 3 -7 0 -4 -8 3 -8 0 -18 -7 -23 -8 -5 -10 -3
-4 7 5 8 -3 3 -18 -11 -26 -24 -37 -47 -17 -35 6 3 10 2 10 -3 0 -18 -25 -20
-65 -6 -22 7 -41 11 -44 9 -2 -3 -11 1 -20 8 -36 30 -111 68 -110 55 0 -7 28
-27 62 -45 34 -17 61 -36 60 -41 -1 -5 3 -9 10 -9 39 2 76 -18 92 -47 19 -35
20 -27 -26 -286 -36 -206 -26 -185 -89 -187 -64 -3 -75 -14 -85 -80 -11 -74
-114 -379 -142 -420 -14 -21 -30 -51 -36 -68 -10 -31 -47 -74 -47 -55 0 10 27
64 50 100 39 62 149 392 166 498 l7 42 -65 0 -65 0 -18 -60 c-23 -75 -53 -110
-97 -111 -18 -1 -43 -3 -55 -4 -13 -1 -23 2 -23 6 0 5 14 9 31 9 49 0 63 23
68 107 l3 74 -26 -24 c-28 -26 -124 -77 -144 -77 -7 0 -12 -6 -13 -12 0 -7 -5
-2 -10 12 -13 31 -39 219 -39 281 l0 46 96 67 c53 38 130 100 171 140 46 43
74 63 70 51 -15 -53 -38 -177 -34 -181 2 -2 24 4 48 15 24 11 46 18 49 16 4
-2 19 33 35 78 15 45 31 87 36 93 5 6 -9 25 -37 48 -35 30 -43 41 -34 51 9 11
25 6 86 -30 41 -24 74 -41 74 -37 0 4 -30 25 -66 46 -71 42 -83 58 -64 81 11
14 15 14 30 0 14 -12 19 -13 22 -4 5 14 91 -34 128 -71 26 -26 73 -24 78 4 3
12 0 16 -7 11 -15 -9 -64 22 -56 35 3 6 0 7 -8 4 -21 -8 -121 56 -108 69 7 7
19 7 37 -2 31 -14 45 -7 16 8 -22 12 -35 51 -26 75 9 23 17 20 9 -3z m-1531
-82 c20 -12 36 -26 36 -32 0 -7 -17 -42 -38 -79 l-38 -67 -32 19 c-35 22 -38
29 -19 49 10 11 10 13 0 7 -7 -4 -13 -2 -13 4 0 6 -4 8 -10 5 -5 -3 -10 -11
-10 -16 0 -6 5 -7 12 -3 7 5 8 3 3 -5 -5 -9 -11 -9 -17 -3 -7 7 4 32 36 76 26
36 49 66 51 66 2 0 20 -9 39 -21z m803 -58 c24 -44 28 -48 41 -33 11 15 12 14
2 -6 -7 -13 -9 -26 -6 -30 4 -3 -19 -21 -51 -39 -32 -18 -52 -33 -45 -33 7 0
10 -4 7 -10 -3 -5 -11 -10 -17 -10 -6 0 -9 3 -5 6 3 3 -8 42 -24 86 -16 45
-28 82 -27 83 14 12 85 42 90 39 4 -3 20 -27 35 -53z m-399 -139 l3 -83 -64 2
-63 2 4 31 c2 17 8 55 13 84 l11 53 46 -3 47 -3 3 -83z m257 -182 c-3 -5 -13
-10 -21 -10 -11 0 -7 -8 11 -27 14 -15 25 -38 25 -51 0 -15 4 -21 12 -16 7 5
9 2 5 -9 -7 -18 14 -29 41 -22 9 3 -2 -4 -26 -16 -53 -25 -206 -56 -327 -65
-137 -10 -408 37 -450 77 -6 6 2 6 19 -1 35 -13 60 3 50 32 -3 10 -1 24 4 31
5 7 12 21 15 32 4 17 5 16 7 -5 l2 -25 7 25 c5 18 3 27 -8 33 -10 4 -6 5 9 2
207 -44 365 -44 525 -2 111 30 108 29 100 17z m308 -207 c7 -74 8 -134 1 -118
-2 6 -58 9 -146 7 -105 -2 -144 1 -150 10 -5 9 -8 5 -9 -12 -1 -23 -2 -23 -9
5 -16 62 -16 61 87 96 54 18 120 43 148 55 27 13 55 23 61 23 7 1 14 -27 17
-66z m-555 -61 l132 4 0 -29 c0 -20 -4 -26 -12 -20 -20 11 -348 10 -349 -2 -1
-14 -17 27 -18 46 -1 14 6 15 57 7 31 -5 117 -8 190 -6z m676 -678 c19 -48 15
-49 -133 -43 -76 3 -143 9 -150 13 -6 4 -11 16 -11 27 0 18 8 19 144 19 122 0
145 -2 150 -16z"/>
</g>
</svg>
