<?xml version="1.0" standalone="no"?>
<!DOCTYPE svg PUBLIC "-//W3C//DTD SVG 20010904//EN"
 "http://www.w3.org/TR/2001/REC-SVG-20010904/DTD/svg10.dtd">
<svg version="1.0" xmlns="http://www.w3.org/2000/svg"
 width="650.000000pt" height="650.000000pt" viewBox="0 0 650.000000 650.000000"
 preserveAspectRatio="xMidYMid meet">
<metadata>
Created by potrace 1.16, written by Peter Selinger 2001-2019
</metadata>
<g transform="translate(0.000000,650.000000) scale(0.100000,-0.100000)"
fill="#000000" stroke="none">
<path d="M1598 6456 c-16 -24 -28 -55 -28 -69 0 -19 -9 -33 -32 -48 -32 -21
-119 -126 -146 -176 -7 -13 -41 -52 -74 -86 -41 -42 -61 -70 -62 -88 -1 -15
-9 -35 -18 -46 -9 -10 -38 -56 -63 -103 -26 -47 -71 -117 -101 -156 -30 -39
-54 -75 -54 -80 0 -5 -6 -20 -13 -34 -8 -14 -35 -65 -61 -115 -26 -49 -66
-114 -88 -143 -21 -29 -44 -67 -50 -85 -6 -18 -18 -41 -28 -52 -9 -11 -26 -43
-37 -71 -11 -28 -44 -83 -72 -122 -28 -38 -65 -105 -82 -149 -17 -43 -43 -105
-57 -138 -25 -55 -27 -70 -26 -185 0 -119 2 -131 41 -245 47 -140 69 -187 128
-271 45 -62 100 -116 151 -146 16 -10 59 -44 96 -76 37 -32 97 -73 135 -91 37
-18 107 -53 154 -77 47 -24 121 -52 165 -63 43 -11 107 -31 142 -45 70 -29
174 -54 245 -57 26 -2 50 -5 54 -8 5 -3 8 -69 9 -146 0 -110 5 -158 22 -225
18 -70 20 -95 13 -141 -6 -34 -6 -106 -1 -180 5 -68 10 -161 10 -207 0 -46 5
-93 11 -104 8 -14 11 -98 10 -252 0 -127 2 -239 5 -248 3 -10 21 -25 39 -34
46 -22 54 -49 22 -78 -21 -20 -25 -30 -21 -64 4 -36 1 -45 -30 -75 -30 -30
-34 -40 -30 -69 4 -20 -16 -146 -50 -318 -114 -584 -216 -1186 -216 -1271 0
-19 15 -19 684 -19 538 0 685 3 689 13 3 6 37 95 77 197 109 284 314 660 343
631 20 -20 66 -298 92 -556 8 -88 18 -188 21 -222 l6 -63 564 0 564 0 4 22 c3
13 21 138 41 278 20 140 43 282 50 315 53 230 111 699 131 1054 8 142 12 150
90 186 53 25 74 54 74 104 0 16 6 47 14 69 8 22 17 80 21 129 6 72 4 95 -9
120 -14 29 -14 37 4 109 11 42 20 92 20 110 0 21 13 54 35 88 19 30 35 58 35
61 0 3 19 22 41 42 64 58 189 258 189 302 0 6 15 28 33 48 53 60 187 303 187
339 0 6 6 17 14 23 22 18 132 208 154 266 11 28 23 70 27 95 3 25 15 69 26 99
35 94 55 560 31 701 -6 36 -12 112 -13 170 -1 64 -11 148 -25 217 -16 75 -24
149 -25 230 -2 110 -4 125 -40 224 -22 59 -39 110 -39 114 0 24 -34 118 -48
131 -10 10 -15 29 -14 48 5 49 -15 120 -63 230 -24 55 -47 113 -50 128 -4 14
-22 44 -41 66 -19 23 -34 51 -34 65 0 14 -10 56 -21 93 -19 63 -29 76 -102
147 l-80 77 -1821 0 -1821 0 -27 -44z m197 -1814 c0 -123 3 -152 18 -180 10
-19 17 -35 15 -37 -5 -5 -151 89 -166 107 -16 20 4 69 53 134 19 25 35 51 35
58 0 11 36 66 43 66 1 0 2 -66 2 -148z m1205 -633 c60 -30 109 -60 110 -67 0
-10 8 -12 30 -7 23 5 32 3 36 -10 5 -11 9 -13 14 -6 4 8 16 4 36 -11 15 -13
31 -22 34 -21 3 2 19 -1 35 -6 17 -5 46 -12 66 -15 21 -4 42 -13 49 -21 15
-18 3 -55 -18 -55 -16 -1 -16 -2 1 -14 21 -16 21 -29 1 -72 -17 -36 -49 -45
-72 -22 -7 7 -12 9 -12 4 0 -4 -12 0 -27 8 -26 14 -83 30 -92 26 -2 -1 -7 2
-10 8 -3 5 -23 12 -44 15 -32 5 -38 3 -35 -10 3 -16 199 -123 226 -123 19 0
14 -54 -7 -78 -10 -12 -21 -19 -25 -15 -3 3 -6 1 -6 -5 0 -19 -87 14 -118 45
-18 18 -164 19 -157 1 3 -7 35 -29 70 -48 71 -37 111 -73 101 -89 -7 -11 -26
-9 -69 8 -15 6 -47 13 -70 16 -68 8 -177 36 -177 46 0 5 -10 30 -21 54 -12 25
-19 48 -16 51 11 11 114 6 136 -6 17 -9 29 -9 45 -1 11 5 35 12 51 13 60 6 28
28 -84 58 -60 16 -94 52 -89 94 4 35 -13 59 -49 70 -13 4 -23 12 -23 18 0 5
-27 36 -61 69 -47 45 -57 60 -45 65 9 3 13 10 10 15 -3 5 -7 19 -9 30 -4 20
-1 21 45 16 27 -3 52 -2 55 4 4 5 -4 9 -17 9 -19 0 -20 2 -8 11 29 19 100 2
210 -52z m-474 -27 c6 -13 21 -30 33 -38 11 -8 21 -22 21 -30 0 -9 11 -14 34
-14 63 0 88 -22 44 -39 -16 -6 -30 -5 -45 5 -29 18 -30 18 -43 -7 -8 -15 -8
-24 0 -34 14 -17 5 -35 -17 -35 -9 0 -48 17 -87 37 -39 21 -72 39 -74 39 -5 3
49 107 64 125 21 23 56 18 70 -9z m217 -478 c27 -13 59 -24 71 -24 12 0 39 -9
61 -20 22 -11 35 -20 31 -20 -5 0 -2 -8 5 -17 8 -9 9 -14 3 -10 -8 4 -11 -1
-10 -16 1 -17 6 -23 17 -20 9 3 32 -9 50 -27 l34 -32 -50 6 c-28 4 -53 13 -58
21 -6 11 -13 12 -25 6 -9 -5 -33 -11 -52 -12 -32 -4 -35 -2 -38 24 -2 16 -10
31 -18 34 -20 8 -17 20 7 26 35 9 5 44 -67 79 -35 17 -64 33 -64 35 0 9 54 -8
103 -33z m1372 -1133 c17 -10 72 -58 123 -106 76 -71 93 -93 89 -111 -2 -13
-1 -21 3 -19 13 8 38 -29 45 -68 6 -30 4 -41 -10 -51 -10 -7 -17 -25 -17 -39
0 -16 -6 -27 -14 -27 -8 0 -14 -9 -14 -20 0 -11 -4 -20 -8 -20 -5 0 -14 -11
-20 -25 -7 -14 -23 -27 -39 -30 -61 -13 -91 -37 -118 -92 -28 -57 -26 -84 4
-45 l17 23 12 -25 c6 -15 7 -26 2 -26 -5 0 -14 -9 -20 -20 -7 -14 -7 -20 0
-20 5 0 10 6 10 14 0 8 7 16 15 20 17 6 21 -9 5 -19 -5 -3 -10 -15 -10 -26 0
-21 -15 -26 -26 -8 -3 6 -17 8 -30 5 -28 -7 -29 -3 -9 27 13 21 13 24 -5 40
-18 15 -21 15 -56 -18 -21 -20 -47 -35 -60 -35 -21 0 -24 5 -24 39 0 50 -21
92 -41 81 -41 -22 -54 -20 -67 10 -9 19 -21 30 -33 30 -18 0 -19 5 -13 68 4
47 12 72 25 85 10 10 19 27 19 38 0 12 7 33 15 47 27 50 45 104 38 115 -13 21
-15 97 -3 97 7 0 9 8 5 20 -4 11 -2 20 4 20 6 0 11 6 11 14 0 9 20 19 50 27
27 7 47 16 44 21 -3 4 4 8 15 8 12 0 21 5 21 10 0 16 32 12 65 -9z m-538 -333
c4 -28 23 -49 36 -41 25 15 -7 -54 -36 -79 -18 -15 -28 -28 -23 -28 17 0 -28
-29 -46 -30 -10 0 -18 -4 -18 -10 0 -5 -7 -6 -17 -3 -12 5 -14 3 -8 -7 6 -10
4 -12 -9 -7 -10 4 -15 3 -11 -3 7 -11 -29 -32 -39 -23 -3 3 -6 1 -6 -5 0 -6
-14 -14 -31 -17 -24 -6 -34 -3 -41 9 -5 9 -18 16 -28 16 -17 0 -18 4 -10 26
11 28 25 43 56 60 23 13 46 2 57 -30 6 -15 10 -16 22 -6 12 10 15 10 15 -1 0
-12 2 -12 9 -1 4 8 11 13 15 13 26 -4 37 1 33 13 -3 8 1 17 9 20 11 4 12 11 4
31 -7 18 -7 33 0 45 5 10 10 31 10 47 l1 28 14 -30 c11 -26 13 -27 14 -8 2 51
21 65 28 21z"/>
</g>
</svg>
