<?xml version="1.0" standalone="no"?>
<!DOCTYPE svg PUBLIC "-//W3C//DTD SVG 20010904//EN"
 "http://www.w3.org/TR/2001/REC-SVG-20010904/DTD/svg10.dtd">
<svg version="1.0" xmlns="http://www.w3.org/2000/svg"
 width="650.000000pt" height="650.000000pt" viewBox="0 0 650.000000 650.000000"
 preserveAspectRatio="xMidYMid meet">
<metadata>
Created by potrace 1.16, written by Peter Selinger 2001-2019
</metadata>
<g transform="translate(0.000000,650.000000) scale(0.100000,-0.100000)"
fill="#000000" stroke="none">
<path d="M2637 6431 l-32 -70 -290 -97 c-527 -176 -629 -215 -683 -267 -91
-87 -185 -305 -317 -733 -92 -300 -112 -370 -151 -534 -20 -80 -64 -237 -99
-350 -36 -113 -70 -229 -76 -259 -6 -30 -17 -69 -25 -86 -7 -18 -22 -63 -33
-101 -10 -38 -31 -98 -46 -133 -30 -72 -30 -67 14 -251 17 -69 30 -152 31
-186 0 -48 5 -67 25 -94 17 -24 25 -47 25 -76 0 -24 5 -55 11 -71 6 -15 17
-55 24 -88 61 -279 78 -353 101 -440 27 -103 36 -134 98 -340 19 -66 47 -165
60 -220 27 -107 83 -320 91 -345 7 -21 57 -50 87 -50 13 0 65 -13 116 -29 l92
-29 0 23 c0 13 -16 47 -35 76 -45 67 -52 80 -24 49 12 -14 26 -24 30 -23 5 2
9 -3 9 -10 0 -9 12 -12 39 -10 22 1 43 -2 46 -7 12 -19 35 -10 41 15 3 14 10
25 15 25 5 0 9 11 9 25 0 14 -4 25 -9 25 -11 0 -9 13 10 58 7 17 17 32 21 32
4 0 8 7 8 16 0 22 -15 9 -34 -30 -12 -26 -21 -33 -36 -29 -12 3 -20 14 -20 27
0 11 4 17 8 11 14 -20 32 -15 32 9 0 33 -10 57 -21 50 -5 -3 -9 2 -9 11 0 9 5
13 10 10 6 -3 14 4 19 17 6 13 10 19 10 14 1 -4 12 -1 26 8 41 27 61 20 94
-34 17 -28 31 -57 31 -65 0 -8 5 -15 10 -15 6 0 10 -8 10 -19 0 -10 13 -34 30
-52 16 -19 30 -40 30 -46 0 -7 16 -35 35 -62 19 -26 35 -51 35 -55 0 -4 13
-24 29 -44 16 -20 34 -54 39 -74 10 -35 8 -39 -20 -63 -57 -49 -189 -105 -245
-105 -29 0 -30 16 -2 25 29 9 6 34 -29 32 -32 -3 -42 -33 -16 -51 17 -13 17
-14 -2 -19 -10 -3 -36 -9 -56 -13 -44 -7 -46 -15 -24 -127 9 -44 17 -176 20
-342 9 -388 24 -775 32 -812 l7 -33 1323 0 1324 0 20 22 c43 47 47 54 55 83
l9 30 6 -35 c3 -22 11 -34 19 -32 8 2 18 -3 22 -10 6 -9 9 -10 9 -1 0 7 -8 20
-18 30 -26 25 -34 51 -22 71 9 16 31 122 49 237 10 64 21 95 33 95 5 0 6 5 3
10 -4 6 -9 8 -13 6 -4 -2 -7 17 -6 42 1 26 -5 78 -12 115 -15 73 -11 105 18
152 12 20 18 49 18 86 0 57 16 119 30 119 18 0 62 86 70 138 14 84 28 94 120
83 60 -7 93 -18 160 -54 58 -31 84 -51 82 -61 -4 -21 28 -20 102 3 89 27 92
34 99 208 4 81 11 218 16 303 32 510 39 750 36 1220 -3 544 -19 1120 -35 1245
-6 44 -15 157 -21 250 -13 211 -52 575 -80 732 -11 65 -24 145 -29 178 -51
346 -55 357 -144 448 -57 56 -88 76 -277 174 -310 159 -580 313 -608 347 -13
15 -56 163 -66 224 l-7 42 -109 -1 -109 -1 0 -27 c0 -74 -203 -286 -321 -335
-29 -12 -81 -25 -213 -52 -25 -5 -36 -22 -36 -56 0 -14 -5 -28 -12 -30 -22 -8
4 -30 68 -58 67 -30 67 -31 43 -85 -11 -25 -39 -108 -39 -116 0 -4 12 -6 26
-6 14 0 33 -8 42 -18 16 -16 15 -17 -13 -11 -16 4 -37 9 -46 12 -13 4 -20 -9
-33 -60 -18 -73 -19 -87 -8 -85 29 5 61 -5 87 -26 l30 -25 -37 4 c-32 4 -37 1
-42 -20 -4 -13 -1 -33 6 -43 17 -28 7 -33 -33 -20 -47 16 -54 25 -36 43 10 11
18 12 22 6 10 -16 35 8 35 32 0 14 -5 18 -15 15 -8 -4 -17 -2 -20 4 -4 5 -10
7 -15 4 -11 -7 -20 19 -14 42 7 27 -22 232 -36 248 -6 7 -10 19 -9 27 3 24 -1
38 -11 38 -5 0 -10 -4 -10 -9 0 -5 -4 -21 -9 -35 -12 -31 -44 -25 -60 10 -8
17 -17 24 -29 20 -15 -5 -17 3 -19 69 -1 49 -7 82 -17 97 -18 25 -21 42 -6 33
20 -12 9 9 -26 52 -50 61 -38 63 21 2 27 -28 61 -59 76 -70 l27 -19 11 28 c6
15 12 53 12 85 1 31 6 57 10 57 28 0 61 -24 71 -51 13 -38 25 -27 31 29 3 32
13 51 41 78 31 30 36 41 34 72 -3 36 -2 37 46 49 26 7 51 14 54 18 6 5 -28 8
-64 6 -11 -1 -32 9 -45 23 -13 14 -30 26 -36 26 -7 0 -13 7 -13 15 0 13 -45
15 -341 15 l-341 0 -31 -69z m385 -1304 c-2 -11 7 -18 25 -22 15 -3 39 -9 53
-13 14 -5 36 -5 50 -2 43 11 67 -24 35 -50 -12 -10 -15 -10 -15 3 0 28 -56 39
-72 14 -18 -28 -8 -59 22 -70 17 -6 30 -14 30 -18 0 -9 -63 -18 -75 -11 -5 4
-14 7 -20 7 -33 4 -75 29 -75 46 0 12 5 16 15 13 11 -5 15 1 15 19 0 14 -4 29
-10 32 -13 8 -13 45 0 45 5 0 7 7 3 16 -4 12 -2 15 8 12 8 -3 13 -12 11 -21z
m46 -520 c54 -22 84 -57 48 -57 -18 0 -23 -55 -6 -65 6 -3 10 -12 10 -19 0
-15 -30 -17 -47 -3 -7 5 -13 6 -13 2 0 -5 -8 -1 -17 8 -10 8 -30 18 -45 21
-16 3 -39 8 -53 11 -24 5 -36 35 -14 35 8 0 10 16 6 51 l-6 51 40 -6 c22 -4
66 -17 97 -29z m-53 -483 c21 -4 48 -15 59 -25 11 -11 26 -19 33 -19 20 0 16
-27 -5 -32 -23 -6 -26 -47 -5 -70 14 -16 14 -18 -1 -24 -9 -3 -23 -1 -31 6 -8
7 -15 9 -15 6 0 -4 -7 0 -16 8 -8 9 -23 16 -32 17 -61 3 -120 9 -140 14 -35 9
-16 25 29 25 44 0 55 14 45 55 -5 21 -12 25 -41 25 -47 0 -45 18 3 23 38 4 50
3 117 -9z m-8 -171 c45 -4 71 -21 92 -60 9 -17 8 -25 -5 -38 -10 -9 -20 -13
-23 -8 -11 17 -79 43 -110 43 -17 0 -31 5 -31 10 0 6 -9 10 -21 10 -11 0 -17
-4 -14 -10 10 -16 -11 -12 -25 5 -7 8 -16 12 -21 9 -5 -3 -9 4 -9 14 0 17 6
20 40 17 25 -2 43 2 51 11 6 7 16 11 22 7 5 -3 30 -8 54 -10z m8 -338 c21 -3
42 -9 45 -14 3 -4 13 -10 23 -14 22 -8 35 -39 19 -45 -16 -5 -15 -47 0 -72 19
-31 2 -34 -51 -11 -27 11 -69 21 -93 21 -24 0 -51 7 -61 14 -17 13 -16 14 3
19 15 4 20 13 20 40 0 20 -5 39 -12 43 -17 11 21 35 46 29 12 -2 39 -7 61 -10z
m-75 -166 c0 -7 20 -10 55 -7 37 2 56 -1 60 -9 2 -7 10 -13 16 -13 18 0 38
-32 39 -62 0 -27 -12 -31 -39 -13 -10 5 -16 4 -19 -3 -2 -8 -10 -4 -21 10 -15
17 -28 21 -70 20 -36 -1 -51 3 -51 12 0 8 -9 16 -21 19 -22 6 -18 27 6 27 7 0
15 7 19 15 6 17 26 20 26 4z m55 -348 c28 -2 55 -7 62 -13 7 -5 17 -7 22 -4
18 12 33 -32 23 -68 -6 -21 -6 -39 0 -50 15 -26 -3 -39 -35 -27 -19 7 -27 7
-27 0 0 -15 23 -36 36 -32 15 5 34 -41 27 -66 -4 -16 -9 -19 -23 -11 -10 6
-31 10 -45 10 -14 0 -36 5 -48 12 -12 6 -36 11 -54 10 -18 -1 -42 7 -55 17
l-23 19 28 26 c16 15 33 23 40 19 30 -19 107 -21 107 -4 0 13 -64 33 -92 30
-13 -2 -34 1 -46 5 l-24 8 22 15 c30 21 25 77 -7 81 -28 4 -31 22 -4 22 11 0
23 5 26 10 4 6 13 7 23 2 9 -5 40 -10 67 -11z m165 -32 c0 -14 6 -19 18 -18 9
2 45 -3 80 -10 65 -14 80 -36 25 -36 -30 -1 -63 -24 -63 -44 0 -6 -4 -11 -9
-11 -5 0 -13 -9 -16 -21 -5 -16 -10 -18 -21 -8 -11 9 -15 8 -20 -5 -8 -21 13
-46 33 -39 9 4 21 -1 28 -11 7 -9 17 -16 21 -15 18 4 64 -14 64 -25 0 -7 -17
-17 -39 -22 -40 -11 -79 -3 -93 19 -5 8 -8 6 -8 -6 0 -12 -6 -17 -17 -15 -22
4 -30 62 -12 84 9 11 9 17 0 28 -9 10 -10 25 -3 49 6 21 6 40 0 50 -5 11 -5
24 2 36 6 11 10 24 9 28 -3 17 1 24 11 18 6 -3 10 -15 10 -26z m-121 -470 c-8
-5 -5 -10 10 -18 18 -10 21 -9 21 9 0 12 4 19 10 15 5 -3 7 -12 4 -19 -3 -7 2
-19 11 -26 17 -14 20 -37 5 -42 -17 -5 -20 -46 -4 -59 18 -15 18 -39 -1 -39
-8 0 -15 -4 -15 -9 0 -5 7 -14 15 -21 17 -14 21 -85 5 -75 -6 3 -14 -4 -19
-17 -10 -23 -10 -23 -10 -1 -1 33 -18 37 -46 9 l-25 -25 0 23 c0 18 -7 25 -32
31 -60 13 -70 12 -78 -9 -5 -12 -9 -15 -9 -6 -1 19 -51 61 -64 53 -5 -3 -8 0
-5 8 3 8 15 16 28 17 13 2 29 11 36 20 11 15 13 15 27 0 13 -13 24 -14 59 -6
23 5 44 11 47 13 9 9 -56 26 -91 24 -20 -2 -40 0 -44 4 -4 4 -16 7 -26 7 -27
0 -22 17 7 24 21 5 25 12 25 41 0 25 -5 35 -20 40 -11 3 -20 11 -20 16 0 11
21 13 115 10 51 -2 66 1 55 8 -13 10 -13 12 0 20 9 7 19 6 28 -1 10 -9 10 -13
1 -19z m124 -39 c4 -15 14 -20 36 -20 31 0 101 -28 101 -41 0 -4 -13 -10 -30
-14 -23 -5 -30 -12 -30 -30 0 -16 9 -27 30 -37 33 -14 39 -28 13 -29 -10 0
-27 -2 -38 -4 -10 -2 -25 1 -32 7 -7 6 -24 8 -38 6 -33 -7 -65 16 -47 33 15
16 16 61 0 77 -9 9 -7 16 6 31 10 11 15 25 11 30 -3 6 -2 11 3 11 5 0 12 -9
15 -20z m-235 -488 c47 -3 52 -1 52 17 0 14 5 19 16 14 8 -3 13 -12 10 -19 -5
-13 4 -17 61 -29 43 -9 58 -55 17 -55 -8 0 -14 -9 -14 -20 0 -11 0 -22 0 -25
0 -3 2 -4 3 -2 2 1 11 -4 20 -12 21 -17 13 -31 -19 -31 -29 0 -33 -29 -5 -37
25 -6 34 -29 20 -54 -8 -17 -18 -19 -62 -15 -29 2 -69 11 -91 21 -21 9 -48 15
-60 13 -11 -1 -26 1 -32 4 -6 4 -39 8 -73 10 -56 2 -61 4 -61 25 0 21 5 23 53
25 66 1 69 2 85 12 7 4 18 4 25 -1 17 -13 97 -17 97 -5 0 13 -85 36 -104 29
-9 -4 -18 -2 -21 3 -4 6 -21 10 -39 10 -47 0 -96 11 -96 21 0 5 3 8 8 8 4 -1
33 -1 65 0 56 1 57 1 57 31 0 30 -11 36 -62 32 -10 -1 -18 3 -18 8 0 5 -6 7
-14 4 -14 -6 -32 13 -22 23 3 3 32 5 66 4 52 -1 60 1 60 17 0 32 15 35 20 5 5
-26 9 -28 58 -31z m264 -43 c7 -1 23 -3 34 -4 25 -3 84 -27 84 -35 0 -3 -10
-10 -22 -15 -34 -15 -31 -56 5 -73 59 -28 1 -39 -98 -18 -11 2 -28 5 -37 5
-22 1 -23 19 -2 46 14 19 16 19 28 3 16 -22 46 -23 46 -2 0 9 -5 12 -12 8 -7
-4 -8 -3 -4 5 8 12 -10 41 -25 41 -5 0 -9 -7 -9 -15 0 -8 -7 -15 -16 -15 -8 0
-13 4 -10 9 3 5 -1 11 -9 15 -20 7 -19 32 1 40 9 3 14 12 11 20 -3 8 -3 17 1
20 3 4 10 -2 14 -14 4 -11 13 -21 20 -21z m-192 -449 c-11 -7 9 -21 35 -25 38
-5 86 -18 90 -24 2 -4 0 -21 -5 -37 -4 -16 -9 -22 -9 -13 -1 10 -12 19 -27 22
-23 4 -25 2 -22 -27 2 -26 8 -32 33 -36 17 -3 31 -12 33 -22 3 -14 -4 -17 -40
-15 -24 2 -48 6 -53 9 -9 5 -89 15 -182 23 -18 2 -38 7 -44 11 -7 4 -22 9 -33
10 -12 2 -41 9 -66 14 -25 6 -58 14 -73 17 -16 3 -31 12 -34 19 -3 8 -9 12
-13 9 -5 -3 -12 0 -16 6 -8 13 54 2 73 -13 7 -5 25 -11 40 -12 15 -1 54 -8 86
-16 51 -12 60 -12 68 1 16 26 10 56 -13 62 -20 6 -19 20 3 23 5 1 12 3 17 4 4
1 32 1 63 0 51 -1 57 1 62 21 5 19 8 20 22 9 11 -9 13 -15 5 -20z m296 -81 c8
-1 20 -2 26 -3 7 0 14 -10 16 -20 3 -14 0 -17 -12 -13 -8 3 -18 2 -21 -4 -4
-5 -11 -6 -17 -3 -8 5 -9 1 -5 -10 4 -10 7 -24 7 -32 0 -8 3 -13 8 -13 4 1 10
0 15 -1 4 -1 12 -3 19 -4 6 0 13 -6 15 -13 7 -20 -53 -25 -107 -9 -29 9 -56
13 -61 10 -5 -3 -9 2 -9 10 0 8 8 19 17 25 14 8 15 13 5 35 -6 14 -18 26 -27
26 -20 0 -19 26 1 34 8 3 33 3 55 0 32 -5 40 -3 46 12 7 17 8 17 11 -3 2 -13
10 -24 18 -24z m-714 -21 c13 -7 28 -19 34 -27 7 -9 21 -12 42 -8 23 5 33 2
44 -14 15 -23 115 -43 135 -28 7 6 13 6 17 0 3 -5 49 -9 101 -9 61 1 100 -3
107 -10 7 -7 28 -12 47 -12 43 0 73 -16 53 -28 -13 -9 -63 -7 -192 8 -47 5
-114 12 -150 16 -35 3 -89 15 -120 26 -30 11 -66 22 -80 25 -14 3 -31 10 -38
16 -8 6 -24 13 -35 14 -27 4 -41 18 -33 32 9 15 41 14 68 -1z m2022 -213 c3
-13 20 -40 36 -58 l30 -34 -39 -79 c-21 -43 -51 -94 -65 -113 -25 -33 -26 -34
-26 -10 0 13 7 65 15 114 8 50 15 116 15 148 0 42 4 57 14 57 8 0 17 -11 20
-25z m-107 -673 c-11 -52 -29 -243 -24 -248 8 -9 -31 -125 -49 -145 -16 -18
-64 -26 -76 -14 -9 9 17 86 32 95 7 4 14 21 16 36 2 15 9 31 17 35 9 6 13 24
10 60 -5 83 36 209 68 209 7 0 9 -11 6 -28z m51 -334 c-21 -88 -28 -103 -78
-163 -44 -54 -56 -63 -58 -47 -4 28 29 134 66 207 16 33 34 80 40 105 6 25 19
63 29 85 l18 40 3 -65 c2 -42 -5 -99 -20 -162z"/>
</g>
</svg>
