<?xml version="1.0" standalone="no"?>
<!DOCTYPE svg PUBLIC "-//W3C//DTD SVG 20010904//EN"
 "http://www.w3.org/TR/2001/REC-SVG-20010904/DTD/svg10.dtd">
<svg version="1.0" xmlns="http://www.w3.org/2000/svg"
 width="650.000000pt" height="650.000000pt" viewBox="0 0 650.000000 650.000000"
 preserveAspectRatio="xMidYMid meet">
<metadata>
Created by potrace 1.16, written by Peter Selinger 2001-2019
</metadata>
<g transform="translate(0.000000,650.000000) scale(0.100000,-0.100000)"
fill="#000000" stroke="none">
<path d="M2621 6430 c-8 -45 -10 -93 -5 -133 10 -87 7 -152 -12 -195 -59 -138
-95 -709 -54 -854 8 -27 6 -70 -5 -165 -9 -70 -15 -173 -14 -228 2 -127 -34
-364 -58 -382 -9 -7 -23 -13 -30 -13 -12 0 -90 -35 -102 -46 -7 -7 50 -55 59
-49 6 3 10 2 10 -3 0 -5 12 -10 28 -10 118 -4 226 -25 255 -50 24 -21 21 -59
-5 -76 -13 -8 -42 -20 -66 -27 -58 -17 -90 -1 -90 46 0 55 -10 73 -38 70 -14
-1 -31 4 -39 11 -7 8 -26 14 -42 14 -16 0 -34 5 -41 12 -9 9 -12 7 -12 -10 0
-16 -6 -22 -22 -22 -12 0 -29 -7 -39 -16 -23 -21 -69 -11 -69 14 0 24 28 62
46 62 8 0 14 5 14 10 0 13 -26 13 -50 0 -16 -8 -18 -8 -14 5 11 27 -45 17
-106 -20 -87 -53 -176 -143 -207 -211 -24 -51 -28 -72 -28 -154 0 -238 87
-374 256 -401 35 -5 109 -25 164 -44 55 -19 119 -39 141 -44 38 -10 42 -14 46
-48 5 -38 2 -54 -33 -193 -43 -175 -59 -259 -79 -433 -16 -138 -76 -355 -136
-493 -31 -71 -66 -158 -79 -194 -12 -36 -30 -86 -40 -112 -16 -47 -16 -48 8
-101 24 -52 70 -97 100 -97 8 0 20 -6 26 -14 7 -8 30 -17 52 -21 21 -4 39 -10
39 -15 0 -37 -67 -244 -142 -434 -148 -383 -232 -682 -313 -1121 -14 -77 -30
-159 -35 -182 -6 -23 -10 -47 -10 -52 0 -8 391 -11 1294 -11 l1295 0 5 53 c14
136 16 297 6 457 -10 151 -9 192 5 295 30 217 66 351 144 538 29 69 36 77 60
77 14 0 37 7 49 16 21 14 22 22 22 147 0 131 -5 175 -54 464 -14 83 -24 157
-21 165 10 28 66 375 80 501 9 72 18 142 21 154 5 17 63 57 216 150 343 209
369 226 463 293 80 58 94 73 123 130 49 98 66 191 66 360 0 80 -6 185 -13 235
-14 101 -61 305 -90 392 -10 32 -33 108 -50 168 -16 61 -53 175 -81 255 -216
610 -225 643 -281 915 -28 141 -44 189 -83 260 -35 62 -166 214 -221 258 -16
12 -51 44 -78 69 -26 25 -81 69 -121 97 l-74 51 -950 0 -949 0 -12 -70z m-290
-2260 c76 -26 191 -29 234 -6 17 9 51 16 76 16 42 0 48 -3 53 -25 4 -14 2 -33
-3 -43 -10 -16 -10 -15 -11 2 0 32 -14 7 -15 -27 -1 -25 -5 -33 -23 -35 -14
-2 -25 3 -29 15 -4 10 -15 27 -25 37 -17 19 -18 19 -18 1 0 -14 -3 -16 -11 -8
-9 9 -16 9 -30 0 -14 -9 -22 -8 -36 5 -21 19 -111 27 -121 11 -4 -6 -35 -14
-70 -18 -50 -6 -67 -4 -87 9 -47 31 -21 97 26 67 15 -9 19 -8 19 4 0 19 -1 19
71 -5z"/>
</g>
</svg>
