<?xml version="1.0" standalone="no"?>
<!DOCTYPE svg PUBLIC "-//W3C//DTD SVG 20010904//EN"
 "http://www.w3.org/TR/2001/REC-SVG-20010904/DTD/svg10.dtd">
<svg version="1.0" xmlns="http://www.w3.org/2000/svg"
 width="650.000000pt" height="650.000000pt" viewBox="0 0 650.000000 650.000000"
 preserveAspectRatio="xMidYMid meet">
<metadata>
Created by potrace 1.16, written by Peter Selinger 2001-2019
</metadata>
<g transform="translate(0.000000,650.000000) scale(0.100000,-0.100000)"
fill="#000000" stroke="none">
<path d="M2610 6493 c0 -15 55 -138 62 -141 5 -2 6 -8 2 -13 -3 -5 0 -9 5 -9
24 0 8 -34 -53 -108 -96 -120 -127 -191 -138 -315 -5 -56 -13 -122 -19 -146
-5 -24 -12 -71 -15 -105 -3 -33 -17 -106 -31 -161 -19 -73 -27 -129 -28 -205
-1 -62 -8 -127 -18 -160 -20 -68 -36 -212 -30 -261 3 -24 -2 -49 -15 -75 -31
-60 -55 -159 -49 -201 3 -28 -1 -43 -15 -59 -25 -28 -78 -177 -123 -349 -20
-77 -39 -143 -42 -148 -2 -4 -6 -22 -8 -40 -2 -18 -15 -77 -29 -132 -14 -55
-26 -112 -26 -128 0 -15 -6 -38 -14 -50 -21 -32 -66 -179 -73 -239 -4 -29 -14
-66 -24 -83 -31 -54 -80 -199 -81 -243 0 -23 -5 -45 -9 -48 -25 -15 -99 -209
-99 -260 0 -13 -10 -41 -23 -62 -12 -20 -28 -49 -35 -64 -17 -42 -42 -154 -42
-195 0 -23 -9 -48 -26 -70 -34 -44 -86 -186 -90 -243 -2 -25 -8 -68 -15 -97
-10 -47 -9 -56 10 -93 11 -22 21 -47 21 -55 0 -8 14 -30 32 -50 l31 -36 -32
-127 c-18 -70 -45 -156 -61 -192 -16 -36 -39 -100 -50 -144 -11 -43 -27 -91
-35 -107 -18 -34 -19 -51 -10 -154 3 -44 2 -136 -3 -205 -6 -69 -7 -130 -4
-136 11 -18 112 -100 172 -140 53 -36 142 -63 217 -68 17 0 34 -4 37 -6 4 -5
-44 -230 -112 -527 l-10 -43 689 0 689 0 6 41 c4 22 13 43 21 46 20 8 28 -4
13 -22 -7 -8 -10 -25 -6 -40 6 -23 11 -25 60 -25 40 0 53 4 53 15 0 8 -6 15
-14 15 -16 0 -16 1 -3 35 8 22 15 26 36 22 16 -3 28 1 31 9 8 21 20 17 28 -9
6 -21 9 -19 20 18 6 22 -2 28 -35 29 -33 1 -35 3 -32 30 2 16 -2 32 -9 36 -6
5 -8 13 -4 21 6 9 10 7 16 -9 5 -12 13 -22 19 -22 14 0 13 27 -3 41 -16 16 -9
69 9 69 8 0 14 -10 14 -21 0 -21 1 -20 21 5 11 14 25 26 30 26 12 0 12 -37 -1
-45 -5 -3 -10 -14 -10 -24 0 -10 -7 -24 -15 -31 -19 -16 -19 -30 1 -30 8 0 22
17 31 38 8 20 19 40 24 43 6 3 12 21 15 41 6 32 3 37 -30 57 -20 13 -36 29
-36 37 0 8 11 37 25 65 32 63 50 56 42 -17 -4 -40 -2 -54 7 -54 7 0 17 -21 23
-47 l10 -48 2 62 c1 79 26 144 49 136 9 -4 49 -28 87 -55 39 -26 77 -48 84
-48 30 0 -14 -161 -80 -292 -21 -43 -39 -82 -39 -88 0 -7 115 -10 341 -10
l341 0 -6 68 c-17 193 -28 424 -23 482 3 36 20 118 37 182 42 164 75 331 106
548 15 102 38 221 51 265 14 44 27 100 30 125 3 26 12 51 22 60 10 8 37 66 60
128 23 63 48 121 56 129 8 8 15 20 15 26 0 7 13 19 29 29 54 30 79 110 59 188
-8 30 -6 50 6 86 9 26 16 62 16 79 0 19 8 39 19 49 21 19 61 124 82 213 9 38
10 62 2 87 -9 29 -8 37 9 53 27 27 61 173 63 274 1 56 7 93 17 110 27 41 51
159 54 259 1 56 8 110 17 130 25 58 49 249 37 292 -9 32 -8 42 9 65 35 49 57
265 31 313 -8 14 -5 28 11 54 35 61 50 133 47 238 -2 78 0 99 14 115 21 23 48
165 48 253 0 37 7 87 15 110 25 70 29 166 10 245 -9 39 -20 95 -25 125 -5 30
-16 73 -23 95 -13 36 -13 43 5 78 10 21 32 73 48 117 58 156 63 190 66 415 1
116 5 224 7 240 3 17 6 62 8 100 l4 70 -1327 3 c-731 1 -1328 -1 -1328 -5z
m-324 -4305 c3 -12 22 -45 41 -75 l34 -53 -35 -88 c-19 -48 -56 -136 -81 -197
-83 -196 -193 -505 -281 -788 -36 -116 -70 -219 -75 -229 -8 -15 -14 -15 -71
8 -65 25 -106 53 -58 40 62 -18 70 -18 76 -2 4 10 1 29 -5 43 -9 19 -8 48 3
127 7 55 14 134 15 174 1 41 8 90 16 110 70 183 90 305 72 438 l-9 61 29 9
c15 4 35 8 44 9 38 4 78 46 98 103 12 31 26 64 31 72 57 85 74 116 101 183 17
42 35 77 39 77 5 0 12 -10 16 -22z"/>
</g>
</svg>
