<?xml version="1.0" standalone="no"?>
<!DOCTYPE svg PUBLIC "-//W3C//DTD SVG 20010904//EN"
 "http://www.w3.org/TR/2001/REC-SVG-20010904/DTD/svg10.dtd">
<svg version="1.0" xmlns="http://www.w3.org/2000/svg"
 width="650.000000pt" height="650.000000pt" viewBox="0 0 650.000000 650.000000"
 preserveAspectRatio="xMidYMid meet">
<metadata>
Created by potrace 1.16, written by Peter Selinger 2001-2019
</metadata>
<g transform="translate(0.000000,650.000000) scale(0.100000,-0.100000)"
fill="#000000" stroke="none">
<path d="M2223 6444 c6 -54 24 -120 54 -195 21 -51 10 -74 -50 -107 -29 -16
-84 -47 -124 -70 -40 -23 -97 -53 -127 -66 -31 -14 -75 -38 -98 -54 -24 -16
-104 -60 -178 -98 -158 -80 -198 -116 -282 -252 -104 -168 -151 -327 -207
-697 -16 -110 -37 -249 -47 -310 -12 -78 -19 -215 -24 -470 -5 -231 -14 -417
-26 -520 -13 -123 -18 -242 -18 -510 -1 -308 2 -367 21 -495 32 -215 42 -313
48 -438 2 -62 13 -156 24 -210 11 -53 34 -169 51 -257 40 -205 113 -495 136
-537 9 -18 26 -51 37 -72 11 -21 28 -41 38 -43 22 -6 31 -79 27 -223 -2 -94 0
-110 21 -149 13 -25 32 -77 43 -115 21 -79 81 -206 106 -229 9 -8 40 -21 67
-29 41 -11 49 -18 47 -34 -1 -11 4 -62 12 -113 9 -51 13 -106 9 -122 l-5 -29
645 0 645 0 42 127 c52 155 119 297 142 301 13 2 18 -6 23 -35 6 -38 28 -118
81 -295 l29 -98 621 0 622 0 6 28 c4 15 9 94 13 175 l6 148 40 21 c22 11 61
26 87 34 29 9 60 28 82 51 20 21 48 47 62 58 51 38 66 52 66 62 0 6 7 16 15
23 8 7 14 20 14 29 -1 13 -2 13 -6 -1 -2 -10 -8 -18 -12 -18 -4 0 -31 -22 -59
-50 -29 -27 -57 -50 -63 -50 -6 0 -24 -9 -40 -21 -16 -11 -29 -17 -29 -13 0 4
-8 1 -17 -7 -10 -8 -37 -25 -59 -37 -39 -21 -42 -21 -46 -4 -3 10 3 29 13 41
11 13 16 27 13 32 -3 5 6 13 19 18 14 6 28 15 32 20 12 20 -21 11 -55 -14 -39
-29 -40 -29 -40 -12 0 22 84 59 123 53 31 -5 36 -3 41 20 7 26 33 59 47 59 4
0 11 3 15 7 4 5 16 8 27 8 16 0 17 3 7 15 -18 21 -8 110 16 136 12 13 15 23 7
27 -13 9 -23 111 -12 118 16 9 9 24 -10 24 -29 0 -36 18 -15 41 16 18 16 19
-7 19 -14 0 -29 -3 -35 -8 -5 -4 -1 0 8 10 22 20 23 48 3 48 -8 0 -15 9 -15
19 0 11 -4 23 -10 26 -6 4 -10 -13 -10 -44 0 -28 -4 -51 -8 -51 -16 0 -34 -52
-22 -60 7 -4 22 -36 33 -71 30 -88 23 -131 -31 -186 -23 -24 -45 -43 -51 -43
-5 0 -17 -20 -28 -45 -16 -40 -22 -45 -49 -45 -47 0 -66 27 -58 81 4 24 12 47
18 52 8 5 8 9 -1 15 -14 9 -10 148 8 269 6 41 7 80 2 90 -8 16 -10 91 -5 176
3 45 35 51 197 38 175 -15 177 -16 214 -47 l30 -25 7 28 c4 15 17 46 28 68 30
58 27 112 -8 166 l-30 44 1 170 c1 94 4 230 6 303 l5 132 35 46 c47 60 54 106
32 217 -15 73 -16 104 -7 199 6 68 6 139 1 178 -5 36 -15 120 -23 188 -8 67
-18 127 -22 134 -7 11 -16 115 -34 408 -8 139 -7 191 7 325 12 106 18 239 18
395 -1 222 -3 248 -38 470 -20 129 -46 294 -58 365 -11 72 -26 150 -34 175 -8
25 -22 81 -31 125 -21 106 -90 320 -120 371 -33 59 -97 120 -189 185 -109 76
-121 82 -270 123 -226 62 -502 166 -513 194 -2 7 5 23 17 36 36 38 37 85 6
155 l-28 61 -124 0 -123 0 6 -24 c3 -15 -2 -38 -15 -62 -28 -53 -37 -62 -106
-117 -33 -26 -64 -52 -70 -57 -5 -6 -25 -26 -44 -45 -37 -38 -58 -44 -68 -20
-3 9 -15 15 -27 13 -15 -2 -22 3 -24 18 -2 15 -17 27 -50 39 -26 10 -62 29
-80 42 l-33 25 20 19 c12 11 21 24 21 29 0 4 21 22 48 38 26 17 64 46 85 66
l38 36 -105 0 c-82 0 -108 -3 -120 -16 -9 -8 -16 -12 -16 -7 0 4 -4 1 -10 -7
-8 -12 -10 -12 -16 3 -9 24 -21 21 -28 -8 -4 -16 -11 -22 -21 -18 -9 3 -24 -4
-37 -18 -14 -16 -19 -18 -15 -7 3 10 2 20 -2 23 -5 2 -12 -6 -15 -20 -4 -14
-13 -25 -21 -25 -9 0 -12 6 -9 15 7 18 -7 20 -25 3 -10 -11 -11 -9 -5 6 6 15
4 17 -6 11 -8 -5 -26 -9 -42 -10 -22 -1 -28 3 -29 19 0 12 -3 15 -6 9 -2 -7
-9 -13 -14 -13 -4 0 -6 7 -3 15 4 10 0 15 -15 15 -12 0 -21 4 -21 10 0 5 -6 7
-14 4 -8 -3 -17 -1 -21 5 -4 7 -86 11 -242 11 l-236 0 6 -56z m1619 -1433 c3
8 8 -6 12 -31 5 -25 14 -54 21 -66 7 -11 16 -31 18 -45 3 -13 4 -3 3 24 -2 26
0 50 5 53 5 3 9 -7 10 -23 1 -25 2 -26 7 -6 13 42 34 8 43 -68 13 -115 12
-152 -5 -146 -16 6 -16 5 -16 -93 0 -87 -16 -60 -19 31 -4 126 -19 125 -22 -1
-2 -82 -4 -96 -6 -47 -2 37 -8 67 -14 67 -6 0 -8 -14 -5 -32 3 -18 8 -99 11
-180 5 -119 4 -148 -7 -148 -9 0 -9 -3 -2 -8 12 -8 14 -92 2 -92 -4 0 -17 9
-28 20 l-20 20 20 0 c24 0 25 4 3 37 -17 25 -19 44 -24 198 -1 39 -4 59 -6 45
-3 -14 -9 -29 -14 -34 -5 -6 -9 -37 -9 -70 0 -34 -4 -67 -9 -74 -13 -21 -21
108 -15 238 3 71 1 110 -5 101 -6 -9 -10 -1 -13 28 -4 47 14 62 43 35 11 -10
19 -12 19 -6 0 6 8 18 17 28 16 15 16 20 -5 78 -25 69 -38 166 -27 193 6 16 9
14 20 -11 8 -19 14 -24 17 -15z m-375 14 c11 -11 19 -13 28 -5 19 16 25 -56
23 -259 -1 -97 -4 -142 -5 -101 -2 41 -8 79 -13 84 -12 12 -13 -3 -11 -129 0
-49 -3 -117 -8 -150 -9 -57 -9 -55 -6 32 1 53 -2 96 -8 102 -7 7 -7 14 0 23
11 13 5 98 -16 258 -11 85 -14 160 -5 160 3 0 12 -7 21 -15z m26 -689 c1 -43
12 -47 22 -8 7 25 8 25 15 7 4 -11 13 -90 19 -175 11 -138 20 -207 38 -290 13
-56 -13 -4 -29 58 l-16 67 3 -64 c5 -76 -4 -153 -16 -145 -5 3 -7 9 -4 14 3 4
1 10 -4 12 -8 3 -37 298 -48 488 -4 74 -3 92 7 84 6 -7 12 -28 13 -48z m-1602
-943 c19 -105 18 -208 -4 -327 -10 -55 -18 -146 -18 -203 0 -57 -4 -101 -8
-98 -5 2 -16 44 -26 93 l-17 88 26 39 c30 44 35 115 11 180 -8 22 -14 65 -15
95 0 35 -7 70 -20 94 l-19 39 30 38 c17 22 34 39 38 39 5 0 14 -35 22 -77z
m1657 -51 c6 -42 11 -115 11 -162 1 -102 6 -168 20 -246 6 -32 11 -104 11
-159 2 -152 1 -160 -10 -149 -10 10 -43 364 -66 707 -6 85 -5 97 8 92 11 -4
19 -31 26 -83z m-1529 -2161 c52 -81 108 -236 115 -320 6 -71 23 -148 93 -419
7 -27 -12 -52 -41 -52 -28 0 -99 74 -121 125 -34 81 -48 131 -51 184 -3 30
-10 62 -18 70 -7 9 -17 34 -21 56 l-8 40 -7 -30 c-6 -22 -8 -25 -10 -10 -2 11
-3 26 -3 34 1 8 -3 9 -8 4 -5 -5 -5 -23 1 -43 14 -48 14 -48 -21 -55 -26 -6
-30 -10 -25 -33 3 -15 8 -45 12 -67 4 -22 18 -63 31 -92 12 -30 23 -66 23 -81
0 -18 9 -34 28 -47 15 -11 40 -32 55 -48 16 -15 33 -27 38 -27 21 0 109 -51
119 -69 13 -25 13 -58 0 -66 -15 -9 -51 5 -44 16 3 6 0 9 -7 8 -19 -3 -92 12
-104 21 -5 5 -27 11 -48 15 -26 5 -41 14 -47 29 -12 33 -50 63 -59 48 -6 -10
-13 -6 -25 13 -10 14 -16 31 -13 38 3 11 -100 222 -135 277 -21 33 -41 106
-40 149 1 28 -1 32 -18 28 -25 -6 -26 12 -4 55 15 30 15 32 -4 47 -24 20 -39
64 -38 115 1 38 2 39 56 58 30 11 94 28 141 38 47 11 97 24 110 29 49 20 66
13 98 -38z"/>
</g>
</svg>
