<?xml version="1.0" standalone="no"?>
<!DOCTYPE svg PUBLIC "-//W3C//DTD SVG 20010904//EN"
 "http://www.w3.org/TR/2001/REC-SVG-20010904/DTD/svg10.dtd">
<svg version="1.0" xmlns="http://www.w3.org/2000/svg"
 width="650.000000pt" height="650.000000pt" viewBox="0 0 650.000000 650.000000"
 preserveAspectRatio="xMidYMid meet">
<metadata>
Created by potrace 1.16, written by Peter Selinger 2001-2019
</metadata>
<g transform="translate(0.000000,650.000000) scale(0.100000,-0.100000)"
fill="#000000" stroke="none">
<path d="M2125 6490 c-3 -5 -10 -67 -15 -138 -6 -86 -16 -147 -29 -182 -11
-29 -17 -58 -14 -63 3 -6 2 -7 -4 -4 -5 3 -17 -3 -26 -13 -109 -128 -145 -191
-213 -380 -19 -52 -50 -125 -69 -162 -19 -38 -32 -68 -29 -68 7 0 53 53 54 62
0 4 14 22 30 40 17 18 30 42 30 54 0 12 10 34 22 49 12 15 22 42 22 60 1 18 3
31 5 29 6 -6 60 125 72 174 11 51 16 58 94 134 72 71 106 90 123 72 20 -22 45
-93 40 -117 -4 -19 0 -22 21 -22 l26 0 7 -140 c4 -81 3 -153 -2 -170 -5 -16
-11 -41 -14 -55 -2 -14 -7 -34 -11 -45 -5 -14 -4 -16 3 -7 5 8 12 13 16 13 3
-1 6 2 7 7 0 4 6 10 13 14 7 4 46 63 87 130 46 77 75 116 77 105 2 -9 -4 -58
-12 -109 -9 -50 -16 -119 -16 -152 0 -62 -10 -154 -35 -326 -20 -135 -28 -297
-16 -305 6 -3 8 -20 6 -38 -3 -18 -3 -26 1 -19 3 6 10 10 15 6 5 -3 9 2 9 10
0 22 4 21 183 -24 148 -37 168 -40 302 -40 168 0 153 11 166 -135 7 -84 7 -82
4 31 l-4 121 46 7 c25 3 64 6 87 6 49 0 216 22 416 56 160 26 400 99 449 135
36 27 38 46 17 159 -8 41 -20 136 -25 210 -6 74 -15 136 -20 138 -4 1 -6 13
-4 26 3 13 -4 79 -16 147 -11 68 -25 156 -30 194 -11 79 -6 260 9 320 5 22 12
79 16 128 l7 87 -878 0 -878 0 9 -82 c11 -100 8 -238 -5 -251 -15 -15 -71 31
-71 58 0 13 -5 25 -11 27 -7 2 -11 36 -11 90 0 47 5 95 11 106 18 34 13 52
-13 52 -14 0 -27 -4 -31 -10z"/>
<path d="M4241 6416 c23 -49 39 -99 39 -120 0 -20 9 -62 19 -94 11 -31 23 -75
27 -97 10 -58 44 -129 105 -221 30 -44 63 -99 74 -122 11 -23 24 -40 30 -39 5
2 13 24 17 50 3 25 9 51 12 56 8 12 -14 144 -24 151 -5 3 -20 28 -35 55 -62
113 -67 125 -60 166 5 26 3 45 -6 55 -9 11 -9 20 0 40 13 29 15 144 2 144 -4
0 -14 -21 -21 -46 -7 -25 -22 -54 -32 -64 -11 -10 -20 -27 -21 -38 -1 -16 -4
-19 -15 -10 -8 7 -11 21 -7 35 3 13 1 23 -4 23 -16 0 -23 40 -10 56 9 11 9 18
1 26 -7 7 -12 18 -12 25 0 29 -34 53 -77 53 l-42 0 40 -84z"/>
<path d="M4504 5685 c-21 -32 -13 -90 16 -117 12 -11 24 -17 27 -14 7 7 62
-67 56 -76 -2 -5 -12 -8 -23 -8 -20 0 -32 -22 -24 -45 4 -8 0 -22 -7 -31 -11
-14 -10 -19 10 -35 13 -11 29 -19 36 -19 8 0 11 -8 8 -19 -4 -16 1 -21 29 -26
58 -10 143 -10 146 -1 2 9 -13 11 -100 15 -30 1 -38 5 -38 20 0 16 9 19 60 23
86 6 98 25 12 20 -59 -3 -65 -1 -49 11 18 15 24 43 7 32 -5 -3 -10 1 -10 9 0
9 -5 16 -12 16 -9 0 -9 3 0 12 16 16 15 29 -2 22 -16 -6 -50 42 -42 62 3 9 1
12 -4 9 -6 -4 -10 8 -10 27 0 22 -10 46 -30 70 -18 22 -28 43 -24 52 10 25
-14 19 -32 -9z"/>
<path d="M2373 4852 c-8 -5 -11 -77 -9 -252 3 -287 16 -510 27 -465 4 17 5 -7
2 -52 -4 -69 -3 -83 9 -83 25 0 29 92 12 230 -9 69 -15 154 -14 190 7 171 7
170 -12 176 -13 4 -17 12 -13 24 8 26 9 106 0 119 -4 7 -1 18 5 26 11 13 17
81 8 90 -2 2 -9 1 -15 -3z"/>
<path d="M2474 3380 c3 -14 1 -50 -5 -81 -9 -47 -8 -67 6 -114 9 -31 19 -55
22 -52 3 4 22 -9 42 -28 62 -60 67 -42 16 54 -19 36 -32 68 -29 73 8 12 38 -7
68 -43 14 -17 26 -25 26 -19 0 13 -16 45 -35 68 -34 42 -85 112 -100 138 -15
28 -16 28 -11 4z"/>
<path d="M4361 1535 c-1 -5 5 -28 13 -50 7 -22 16 -53 20 -69 6 -26 5 -27 -9
-13 -8 9 -15 24 -15 34 0 26 -25 59 -33 45 -4 -6 -24 -8 -45 -5 -21 3 -80 -2
-132 -11 -51 -9 -117 -16 -146 -16 -48 0 -53 -2 -62 -29 -8 -22 -6 -37 8 -68
15 -35 50 -149 80 -263 5 -19 11 -66 14 -105 7 -93 69 -289 98 -310 13 -8 18
-15 12 -15 -5 0 -15 5 -22 12 -9 9 -12 8 -12 -5 0 -52 273 -49 305 4 6 8 4 10
-6 4 -8 -5 5 13 28 39 56 63 83 138 81 219 l-1 62 -7 -55 c-7 -53 -7 -54 -8
-12 -1 23 -10 55 -19 69 -17 26 -17 27 0 20 14 -5 17 -1 17 21 -1 46 -28 145
-73 262 -13 36 -28 85 -32 110 -7 41 -54 149 -54 125z"/>
<path d="M2778 1052 c-30 -18 -35 -41 -17 -74 11 -21 12 -21 25 -3 8 10 14 14
14 8 0 -7 -4 -14 -9 -17 -5 -4 -12 -30 -16 -59 -4 -28 -10 -56 -14 -62 -4 -5
-13 -28 -20 -50 -8 -22 -29 -59 -47 -82 -19 -23 -34 -46 -34 -51 0 -5 -11 -17
-23 -25 -13 -9 -39 -38 -56 -66 -28 -44 -32 -56 -26 -91 5 -28 3 -40 -5 -40
-24 0 -3 -35 25 -42 30 -7 30 -7 -5 -6 -63 0 -65 -1 -40 -22 25 -21 48 -27
155 -34 96 -6 204 7 270 34 65 27 69 36 5 14 -28 -10 -66 -14 -107 -11 -79 5
-95 17 -24 17 75 0 134 18 172 52 19 16 27 26 19 22 -9 -4 -7 1 5 13 11 11 23
18 28 16 4 -2 7 -1 6 4 -1 4 2 27 6 51 6 35 13 45 39 56 49 21 116 75 116 93
0 15 -1 15 -18 0 -29 -26 -30 -21 -12 36 19 57 14 164 -10 192 -23 28 -172
106 -184 96 -14 -11 -123 -16 -153 -6 -40 13 -16 22 74 30 103 10 83 23 -37
24 -54 0 -83 -4 -102 -17z"/>
</g>
</svg>
