<?xml version="1.0" standalone="no"?>
<!DOCTYPE svg PUBLIC "-//W3C//DTD SVG 20010904//EN"
 "http://www.w3.org/TR/2001/REC-SVG-20010904/DTD/svg10.dtd">
<svg version="1.0" xmlns="http://www.w3.org/2000/svg"
 width="650.000000pt" height="650.000000pt" viewBox="0 0 650.000000 650.000000"
 preserveAspectRatio="xMidYMid meet">
<metadata>
Created by potrace 1.16, written by Peter Selinger 2001-2019
</metadata>
<g transform="translate(0.000000,650.000000) scale(0.100000,-0.100000)"
fill="#000000" stroke="none">
<path d="M1536 6469 c-13 -67 -9 -80 34 -96 39 -15 40 -18 40 -62 0 -25 5 -80
11 -121 5 -41 10 -100 10 -130 0 -30 4 -80 9 -110 5 -30 14 -98 20 -150 17
-151 50 -254 179 -567 28 -67 60 -157 71 -200 13 -47 40 -109 71 -159 27 -45
63 -112 80 -148 29 -63 47 -87 34 -47 -3 10 0 61 6 112 18 156 18 200 -2 248
-11 24 -19 51 -19 61 0 10 -6 23 -14 30 -8 6 -16 26 -18 43 -2 22 -8 31 -18
30 -12 -2 -15 6 -12 38 4 41 -9 78 -40 112 -9 11 -19 31 -23 45 -4 15 -12 34
-19 42 -6 8 -20 40 -31 70 -10 30 -27 69 -38 87 -10 18 -16 37 -12 43 3 5 -3
45 -13 88 -11 42 -23 97 -27 122 -3 25 -11 60 -17 79 -6 18 -12 57 -14 85 -2
28 -6 97 -10 154 -5 76 -4 102 5 102 7 0 9 5 6 11 -5 7 11 9 47 7 l53 -3 8
-40 c4 -22 17 -67 28 -100 11 -33 23 -72 26 -87 3 -16 9 -28 14 -28 5 0 9 -11
9 -24 0 -14 5 -37 11 -53 9 -25 20 -69 36 -153 2 -14 7 -79 10 -145 3 -66 9
-122 13 -125 4 -3 11 -21 14 -40 5 -26 4 -31 -3 -20 -7 9 -11 10 -11 3 0 -6 7
-19 16 -28 12 -12 15 -27 11 -58 -4 -29 -3 -36 3 -22 6 15 9 5 9 -37 1 -62 25
-128 78 -210 22 -34 33 -44 41 -36 15 15 63 -6 110 -48 45 -41 120 -79 187
-95 28 -6 71 -20 97 -30 53 -22 326 -59 428 -59 80 0 76 5 90 -120 9 -80 20
-119 20 -69 0 28 -18 151 -26 185 -6 22 -3 24 32 24 59 0 256 35 374 67 144
38 443 187 448 222 2 13 11 31 19 39 11 12 14 31 11 75 -4 50 -2 61 13 64 24
7 26 45 24 373 -1 227 1 291 12 313 10 20 15 74 16 187 1 141 -1 161 -17 179
-10 11 -22 19 -25 16 -4 -2 -12 5 -19 15 -10 17 -8 22 11 34 12 8 47 19 77 25
30 6 64 13 75 15 11 2 -70 4 -179 5 l-199 1 22 -24 c45 -48 62 -154 81 -501 5
-93 16 -208 25 -255 9 -47 20 -110 25 -140 11 -62 13 -293 3 -303 -10 -11 -77
135 -77 168 0 17 7 55 16 85 11 39 13 62 6 80 -68 175 -109 317 -124 425 -8
66 -26 194 -40 285 -13 91 -24 168 -24 173 0 4 -355 7 -790 7 l-790 0 0 -155
c0 -85 7 -228 16 -317 9 -90 15 -188 14 -218 -3 -85 -3 -199 -1 -265 3 -101
-5 -289 -14 -315 -7 -21 -10 -12 -21 50 -7 41 -23 156 -34 255 -12 99 -33 232
-47 295 -37 164 -49 341 -28 422 9 34 24 72 35 83 10 11 19 38 21 60 1 22 11
55 22 73 l19 32 -275 0 -274 0 -7 -31z"/>
<path d="M2161 4387 c-2 -40 31 -523 38 -576 12 -79 4 215 -9 343 -6 55 -8
101 -6 103 6 6 20 -22 61 -118 39 -93 68 -128 90 -109 13 11 12 16 -5 41 -12
15 -36 61 -54 101 -18 40 -46 88 -62 107 -15 18 -33 54 -40 80 -7 25 -13 38
-13 28z"/>
<path d="M3470 4140 c19 -15 20 -19 6 -13 -12 4 -17 3 -13 -4 10 -15 125 -49
267 -77 69 -14 136 -28 150 -32 57 -14 -9 17 -96 46 -50 16 -116 40 -145 53
-68 30 -123 42 -113 24 6 -9 4 -9 -7 -1 -8 6 -27 14 -44 18 l-30 7 25 -21z"/>
<path d="M3149 1020 c-23 -12 -69 -19 -149 -23 -111 -6 -213 -27 -225 -47 -3
-5 -12 -34 -20 -64 -8 -30 -25 -70 -37 -90 -13 -19 -34 -52 -46 -73 -34 -53
-49 -133 -35 -183 5 -22 7 -40 3 -40 -4 0 -7 -12 -8 -27 -1 -16 -3 -41 -4 -58
-3 -25 2 -33 32 -47 90 -46 373 2 435 72 l20 23 -24 -13 c-13 -7 -63 -14 -110
-16 l-86 -3 73 14 c101 19 135 41 144 91 4 21 12 62 18 89 6 28 12 57 14 65 6
31 24 66 41 80 9 7 25 30 34 49 17 34 17 41 3 116 -20 99 -27 108 -73 85z"/>
<path d="M3686 953 c-25 -121 -33 -203 -23 -235 9 -27 41 -45 170 -99 40 -16
63 -32 73 -51 8 -15 12 -28 9 -28 -23 0 -187 46 -219 61 -49 23 -49 23 -36 0
5 -11 42 -32 82 -47 40 -15 152 -67 248 -115 96 -49 202 -95 235 -104 110 -28
314 -14 361 26 9 7 13 21 11 31 -3 10 -1 16 4 12 5 -3 9 0 9 6 0 6 4 9 9 6 13
-8 12 86 -1 101 -6 7 -15 10 -20 7 -5 -3 -9 0 -7 7 6 46 -37 107 -95 135 -58
28 -121 65 -102 59 16 -5 17 -3 6 10 -7 9 -19 14 -26 11 -8 -3 -11 0 -8 8 3 7
-14 35 -38 62 -24 27 -50 62 -58 77 -8 16 -24 39 -36 53 l-23 24 -224 -2
c-240 -2 -249 -1 -261 47 -11 44 -21 27 -40 -62z"/>
</g>
</svg>
