<?xml version="1.0" standalone="no"?>
<!DOCTYPE svg PUBLIC "-//W3C//DTD SVG 20010904//EN"
 "http://www.w3.org/TR/2001/REC-SVG-20010904/DTD/svg10.dtd">
<svg version="1.0" xmlns="http://www.w3.org/2000/svg"
 width="650.000000pt" height="650.000000pt" viewBox="0 0 650.000000 650.000000"
 preserveAspectRatio="xMidYMid meet">
<metadata>
Created by potrace 1.16, written by Peter Selinger 2001-2019
</metadata>
<g transform="translate(0.000000,650.000000) scale(0.100000,-0.100000)"
fill="#000000" stroke="none">
<path d="M1728 6443 c-4 -110 3 -189 33 -347 48 -251 59 -277 257 -641 40 -71
74 -143 78 -159 7 -31 33 -80 76 -140 15 -21 28 -47 28 -56 0 -21 38 -113 70
-168 22 -38 29 -42 57 -40 53 4 62 -18 63 -158 0 -250 24 -404 120 -798 90
-367 120 -524 129 -673 4 -74 12 -127 20 -137 10 -12 14 -92 16 -338 2 -302 4
-332 29 -463 47 -243 149 -618 210 -774 56 -140 67 -188 60 -256 -5 -44 -2
-70 10 -99 9 -21 16 -55 16 -75 -1 -58 -54 -194 -104 -266 -90 -128 -113 -194
-99 -275 6 -32 15 -48 31 -55 26 -11 27 -18 8 -34 -11 -9 -20 -9 -35 -2 -27
15 -31 14 -31 -6 1 -52 54 -73 183 -73 137 0 326 49 352 91 6 9 3 10 -11 4
-41 -17 -154 -21 -187 -7 l-32 14 65 22 c83 29 98 37 137 78 25 26 33 45 38
88 4 30 14 67 23 82 16 27 48 46 59 35 6 -7 -11 -135 -22 -159 -6 -16 -2 -16
40 3 30 13 69 21 106 21 l59 1 -3 33 c-1 18 -6 32 -12 31 -5 -1 -15 27 -21 63
-6 36 -20 83 -29 105 -10 22 -21 72 -25 110 -14 134 -41 280 -56 296 -11 12
-13 34 -8 106 l7 90 -35 39 c-57 64 -67 91 -57 154 6 38 4 95 -6 185 -17 152
-32 350 -45 595 -5 113 -16 208 -30 270 -24 107 -26 163 -11 300 6 52 11 170
11 262 0 345 50 918 79 918 9 0 69 -132 121 -265 17 -44 49 -118 70 -165 41
-92 180 -514 204 -620 8 -36 25 -132 37 -215 21 -146 22 -157 9 -440 -9 -219
-10 -326 -1 -435 43 -576 38 -877 -20 -1115 -7 -28 -11 -70 -10 -94 1 -33 -6
-60 -33 -110 -25 -49 -35 -81 -38 -127 -4 -72 5 -86 70 -110 107 -39 218 -97
257 -133 124 -115 269 -152 465 -120 86 14 126 34 139 70 5 16 16 29 23 29 7
0 2 7 -11 16 -16 12 -20 19 -12 27 36 36 -16 147 -126 269 -42 46 -86 100 -99
120 -32 51 -84 182 -84 213 0 14 -4 25 -9 25 -5 0 -13 9 -16 20 -3 11 -14 20
-23 20 -14 0 -13 4 5 18 21 16 23 28 29 142 3 69 16 215 30 325 33 271 43 435
51 800 6 329 -2 465 -38 645 -22 108 -25 231 -14 585 5 139 3 295 -4 395 -9
151 -59 519 -96 713 -21 109 -19 192 5 262 11 32 18 61 15 63 -3 3 -5 -1 -5
-8 0 -7 -2 -11 -5 -8 -3 3 1 18 10 34 8 16 15 22 15 14 1 -21 30 48 32 76 1
12 7 22 12 21 5 -1 11 7 13 18 3 15 2 17 -5 6 -6 -8 -12 -9 -16 -3 -3 6 -2 13
4 17 16 10 12 55 -5 55 -9 0 -12 -6 -8 -17 4 -11 3 -14 -5 -9 -7 4 -13 2 -13
-3 -1 -6 -3 -15 -4 -21 -1 -5 -3 -14 -4 -20 0 -5 -8 -10 -16 -10 -8 0 -15 -7
-15 -15 0 -18 -12 -19 -28 -3 -10 10 -15 10 -22 -2 -7 -11 -9 -5 -5 20 4 32 3
31 -10 -9 -8 -25 -19 -49 -25 -55 -12 -12 -13 -49 -1 -42 5 3 11 -3 14 -15 5
-17 3 -18 -11 -8 -42 32 -75 66 -89 93 -14 27 -14 30 13 52 25 22 26 24 6 24
-11 0 -24 -4 -27 -10 -3 -5 -22 -10 -40 -10 -28 0 -46 -10 -89 -50 -56 -50
-104 -80 -129 -80 -8 0 -22 9 -32 20 -18 20 -18 21 8 47 25 25 27 26 45 10 23
-21 39 -22 18 -1 -17 17 -21 34 -8 34 13 0 43 -35 37 -43 -3 -4 0 -3 6 2 8 6
8 15 0 29 -16 29 -14 52 5 52 8 0 12 5 9 10 -3 6 -2 10 3 10 5 0 20 9 33 20
40 33 43 35 82 58 39 23 64 30 37 11 -12 -9 -11 -9 5 -3 11 4 43 10 70 14 28
4 44 8 36 9 -11 1 -10 5 5 15 17 13 20 13 25 -1 6 -18 39 76 39 114 0 17 5 23
18 21 13 -2 17 4 17 24 -1 14 3 24 7 22 4 -2 7 4 7 13 0 10 7 50 15 88 8 39
15 92 16 118 0 26 7 58 14 70 8 12 18 54 22 92 4 39 15 85 25 102 10 18 21 54
24 80 4 27 11 65 16 87 6 21 8 44 5 52 -3 7 -1 16 4 19 5 3 9 43 10 88 0 45 1
93 2 107 l3 25 -106 3 -106 3 8 -43 c12 -62 11 -225 -2 -293 -6 -33 -12 -183
-13 -335 -2 -228 -6 -283 -20 -320 -9 -25 -18 -51 -21 -58 -5 -15 -85 44 -85
62 0 7 20 30 44 53 75 70 83 168 32 371 -13 53 -36 165 -50 247 -23 130 -25
160 -17 225 6 41 11 78 11 83 0 4 -409 7 -909 7 l-909 0 5 -67 c2 -38 11 -142
19 -233 8 -91 19 -226 25 -300 5 -74 16 -166 24 -205 12 -62 11 -80 -4 -160
-9 -50 -20 -96 -24 -102 -8 -13 1 -43 13 -43 4 0 29 -21 55 -47 l46 -47 -29
-11 c-16 -5 -27 -16 -25 -22 8 -22 -27 -27 -45 -7 -28 30 -63 91 -68 118 -2
14 -15 42 -29 62 -14 20 -25 41 -25 45 0 5 -7 9 -15 9 -12 0 -15 14 -15 64 0
43 -5 69 -15 79 -8 8 -12 16 -10 18 2 2 -12 15 -30 29 -39 29 -81 112 -77 153
2 17 -14 61 -42 118 -25 50 -46 101 -46 113 0 13 -6 39 -14 57 -8 19 -17 63
-20 99 -3 36 -9 89 -12 118 -6 57 -8 55 58 56 31 1 37 -2 35 -19 -1 -11 3 -19
11 -17 7 1 12 -8 12 -21 0 -21 19 -57 46 -84 10 -10 12 4 11 65 -1 71 1 82 31
130 l32 52 -205 0 -205 0 -2 -57z m964 -1219 c27 -18 79 -47 116 -64 64 -31
112 -65 112 -81 0 -4 -7 -15 -16 -24 -14 -13 -19 -14 -25 -4 -4 8 -18 14 -31
14 -27 0 -37 37 -17 61 10 12 9 13 -5 8 -9 -3 -16 -10 -16 -16 0 -5 -4 -7 -9
-4 -5 4 -12 0 -15 -6 -4 -7 -4 1 -2 18 4 25 1 31 -12 31 -34 0 -43 3 -37 13 4
6 -3 6 -21 0 -21 -8 -31 -7 -46 6 -14 13 -21 15 -30 6 -20 -20 -46 4 -42 40 1
18 3 37 3 41 1 14 42 -4 93 -39z m1272 -4606 c-5 -7 -2 -9 9 -5 19 7 56 -33
76 -82 23 -55 164 -119 266 -122 22 0 48 -4 58 -8 18 -6 18 -7 0 -23 -26 -23
-130 -32 -212 -18 -69 11 -71 13 -98 58 -15 26 -26 51 -25 55 1 5 -2 6 -7 3
-11 -7 -64 19 -82 40 -10 13 -10 17 2 25 12 7 11 9 -2 9 -11 0 -18 12 -22 38
-3 20 -8 45 -12 56 -8 17 -6 17 24 2 19 -10 29 -21 25 -28z"/>
<path d="M4504 6483 c3 -10 8 -36 11 -58 11 -63 15 -74 30 -69 10 4 12 -4 9
-33 -2 -21 -6 -65 -8 -98 -3 -33 -8 -71 -11 -85 -4 -14 -7 -33 -7 -43 1 -9 -3
-15 -9 -12 -5 4 -10 -5 -10 -19 -2 -32 -3 -35 -19 -69 -7 -15 -10 -30 -5 -35
4 -4 10 -1 12 6 3 6 8 10 13 7 10 -6 -2 -55 -13 -52 -16 4 -36 -48 -37 -91 0
-24 -10 -63 -24 -90 -13 -26 -22 -57 -21 -69 1 -13 -2 -23 -6 -23 -4 0 -6 -8
-4 -17 1 -10 0 -12 -2 -5 -12 34 -23 4 -23 -62 0 -43 -5 -78 -11 -82 -7 -4 -8
-27 -4 -65 4 -33 3 -65 -2 -72 -14 -20 -35 -88 -29 -94 3 -4 6 0 6 7 0 7 7 21
15 30 8 9 26 73 39 141 13 68 36 158 51 199 47 132 78 241 102 365 18 93 22
431 5 480 -10 29 -10 29 -12 5 l-1 -25 -11 23 c-13 26 -32 30 -24 5z"/>
<path d="M2145 5953 c-7 -2 -8 -26 -3 -66 11 -95 30 -187 38 -182 4 2 6 -15 5
-38 -3 -49 5 -69 16 -41 6 15 8 13 8 -11 1 -16 12 -52 26 -79 14 -27 25 -57
25 -67 0 -18 17 -35 26 -27 2 3 -3 21 -11 41 -19 46 -37 115 -75 287 -40 176
-43 188 -55 183z"/>
</g>
</svg>
