<?xml version="1.0" standalone="no"?>
<!DOCTYPE svg PUBLIC "-//W3C//DTD SVG 20010904//EN"
 "http://www.w3.org/TR/2001/REC-SVG-20010904/DTD/svg10.dtd">
<svg version="1.0" xmlns="http://www.w3.org/2000/svg"
 width="650.000000pt" height="650.000000pt" viewBox="0 0 650.000000 650.000000"
 preserveAspectRatio="xMidYMid meet">
<metadata>
Created by potrace 1.16, written by Peter Selinger 2001-2019
</metadata>
<g transform="translate(0.000000,650.000000) scale(0.100000,-0.100000)"
fill="#000000" stroke="none">
<path d="M1730 6490 c0 -5 7 -10 15 -10 9 0 20 -11 25 -24 9 -25 30 -44 30
-28 0 12 32 12 47 0 7 -5 17 -7 23 -3 5 3 15 3 22 -1 8 -5 6 -10 -8 -15 -11
-4 -26 -1 -36 8 -12 11 -21 12 -37 4 -27 -15 -53 -14 -49 2 2 7 -10 26 -25 41
-27 27 -29 27 -47 11 -11 -10 -17 -21 -15 -25 3 -5 0 -10 -7 -12 -8 -3 -4 -20
15 -56 15 -29 23 -52 17 -52 -5 0 -10 -12 -10 -27 0 -22 2 -25 10 -13 8 13 10
13 10 -2 0 -9 -4 -19 -9 -23 -12 -7 -1 -78 13 -87 10 -7 2 -12 -16 -9 -5 0 -8
-6 -8 -14 0 -8 -4 -15 -9 -15 -5 0 -7 -9 -4 -21 4 -15 8 -17 14 -8 10 18 21
-7 17 -40 -4 -28 18 -40 25 -14 4 17 4 17 12 -1 6 -13 4 -21 -3 -24 -14 -4
-16 -48 -3 -57 5 -3 12 3 15 12 3 10 3 -4 0 -30 -4 -39 0 -58 19 -95 13 -26
30 -65 36 -87 7 -22 16 -49 21 -60 22 -52 51 -141 70 -217 11 -45 33 -108 49
-138 61 -118 147 -364 161 -459 6 -40 15 -82 21 -93 15 -27 35 -188 54 -430
18 -237 36 -378 70 -578 47 -265 96 -554 110 -645 16 -105 58 -298 79 -370 30
-100 124 -611 141 -770 10 -94 63 -489 80 -602 8 -56 24 -117 34 -135 10 -18
35 -85 55 -148 21 -63 44 -128 51 -143 13 -25 12 -34 -6 -83 -11 -30 -38 -75
-60 -100 -21 -25 -39 -49 -39 -53 0 -5 -27 -37 -60 -71 -54 -56 -78 -92 -50
-75 11 7 7 -20 -12 -82 -11 -39 -8 -105 7 -115 17 -13 157 -8 230 7 157 33
265 93 265 148 0 13 10 39 23 58 20 30 28 34 72 37 139 7 140 7 136 22 -15 63
-20 93 -26 169 -4 47 -11 101 -17 120 -7 23 -7 44 0 70 26 85 44 218 39 281
-7 97 -36 154 -92 182 l-46 24 -1 204 c0 113 -4 248 -9 300 -4 52 -13 156 -19
230 -13 149 -50 351 -80 438 -15 43 -18 64 -11 91 5 20 10 72 11 115 0 44 4
84 7 89 3 5 0 165 -7 356 -10 275 -11 395 -1 586 13 271 20 330 32 318 5 -5
25 -63 44 -129 19 -65 55 -180 80 -254 51 -154 91 -337 135 -625 61 -388 81
-510 92 -555 8 -37 7 -60 -6 -119 -35 -155 -32 -392 11 -783 15 -138 15 -150
-1 -215 -10 -37 -22 -92 -27 -122 -5 -29 -16 -59 -24 -67 -21 -21 -35 -80 -35
-146 0 -60 9 -89 47 -148 19 -30 21 -46 18 -110 -6 -155 -27 -335 -38 -343
-21 -14 56 -70 154 -111 51 -22 115 -55 143 -73 149 -98 350 -143 498 -112 61
13 78 24 78 50 0 11 7 19 15 19 17 0 18 4 6 47 -11 39 -54 88 -92 103 -16 7
-29 16 -29 21 0 4 -10 9 -22 12 -22 3 -22 4 -4 12 13 6 29 3 49 -9 22 -12 27
-13 18 -3 -6 8 -26 21 -44 28 -18 7 -34 16 -37 19 -3 3 -18 15 -33 27 -15 12
-29 25 -30 30 -1 4 -6 7 -10 5 -5 -1 -6 2 -3 7 3 5 -1 14 -9 21 -18 15 -62 80
-89 131 -18 35 -19 39 -1 127 21 111 15 156 -23 174 -36 17 -39 52 -12 140 16
54 23 114 30 271 5 111 14 234 19 272 6 39 17 115 25 170 17 111 23 575 13
855 -4 91 -2 345 4 565 14 502 3 742 -53 1146 -11 86 -11 86 15 121 36 47 47
109 31 184 -12 59 -57 162 -95 216 -23 32 -24 39 -4 32 8 -4 15 -1 15 4 0 6
-9 9 -19 7 -27 -5 -45 20 -66 89 -16 51 -17 70 -8 145 6 48 9 99 6 114 -5 23
-1 29 25 38 34 12 88 90 78 114 -3 8 -1 17 4 20 6 4 10 23 10 43 -1 29 -3 34
-11 20 -5 -10 -16 -15 -24 -12 -11 5 -15 -1 -15 -21 0 -23 3 -25 14 -16 23 19
27 -4 6 -27 -21 -22 -28 -48 -10 -37 19 12 10 -7 -19 -41 -27 -31 -30 -32 -36
-14 -4 11 -11 18 -16 14 -6 -3 -8 -12 -5 -19 2 -7 -1 -18 -7 -24 -18 -18 -29
-13 -17 8 14 27 13 54 -2 48 -7 -2 -13 -17 -13 -33 0 -20 -6 -30 -18 -32 -16
-3 -17 -1 -8 16 16 29 14 52 -5 52 -11 0 -14 -8 -12 -32 2 -24 -1 -33 -14 -36
-15 -3 -18 4 -18 42 0 25 -5 46 -10 46 -16 0 -24 -30 -11 -43 17 -17 13 -34
-9 -40 -11 -3 -18 0 -17 6 1 6 -15 14 -36 17 -40 7 -82 -12 -71 -33 3 -7 -3
-2 -13 11 -14 18 -25 22 -44 17 -16 -4 -30 -1 -37 8 -7 8 -22 12 -38 9 -24 -4
-25 -3 -19 32 6 32 5 36 -14 36 -17 0 -21 -6 -21 -29 0 -16 -6 -31 -15 -35
-21 -8 -7 -39 15 -33 27 7 48 -9 32 -25 -9 -9 -15 -9 -24 0 -15 15 -48 16 -48
2 0 -5 -5 -10 -11 -10 -8 0 -7 5 1 15 16 19 20 137 6 147 -7 5 -5 8 4 8 12 0
15 14 16 59 1 50 -2 60 -18 64 -15 4 -18 -2 -20 -41 -6 -185 -16 -252 -36
-252 -10 0 -23 4 -30 9 -11 7 -11 9 2 14 22 9 20 29 -3 49 -19 16 -20 16 -26
-3 -8 -25 -22 -24 -30 2 -5 14 -10 18 -14 10 -11 -17 -81 -27 -81 -12 0 8 -6
9 -17 3 -32 -17 -82 15 -53 33 15 10 12 35 -6 42 -9 3 -20 0 -25 -8 -6 -10 -9
-4 -9 18 0 25 4 31 15 27 8 -4 12 -10 9 -15 -3 -5 -1 -9 5 -9 14 0 23 35 15
64 -6 25 -27 39 -21 15 1 -6 -4 -14 -10 -16 -8 -3 -13 4 -13 20 0 20 4 23 25
19 20 -3 25 0 25 16 0 30 -21 38 -38 16 -13 -17 -14 -14 -8 30 3 27 7 67 7 90
1 23 3 33 6 24 2 -10 13 -18 24 -18 23 0 25 27 4 54 -13 17 -15 18 -15 3 0 -9
-4 -17 -10 -17 -5 0 -10 11 -10 24 0 19 4 22 25 18 20 -3 25 0 25 17 0 12 -6
28 -12 35 -11 11 -15 9 -25 -13 -11 -26 -11 -26 -12 12 -1 34 1 37 23 31 18
-4 25 -1 29 15 6 25 -6 35 -33 26 -22 -7 -26 12 -11 50 7 17 8 17 15 -8 3 -15
11 -27 17 -27 6 0 7 5 4 10 -3 6 -1 10 4 10 15 0 14 33 -1 48 -10 10 -10 17 0
32 14 23 16 50 4 50 -5 0 -9 7 -9 15 0 8 4 15 9 15 5 0 8 12 7 28 -1 15 2 40
6 56 5 19 4 31 -5 36 -9 6 -9 13 -1 28 17 31 15 32 -41 32 -46 -1 -51 -2 -35
-14 9 -7 17 -19 17 -27 0 -12 -2 -11 -9 0 -8 12 -11 9 -16 -12 -4 -16 -2 -33
4 -41 8 -10 9 -16 1 -21 -13 -8 -13 -55 0 -55 6 0 10 -7 10 -15 0 -8 -4 -15
-10 -15 -5 0 -10 -11 -10 -25 0 -14 5 -25 10 -25 6 0 10 -8 10 -17 0 -14 -2
-15 -9 -4 -7 11 -10 8 -16 -9 -5 -17 -3 -27 9 -35 17 -13 23 -51 7 -40 -15 9
-22 -12 -15 -40 5 -20 9 -23 15 -13 7 10 9 9 9 -4 0 -10 -7 -18 -15 -18 -17 0
-19 -18 -5 -55 7 -18 7 -24 -1 -19 -7 4 -10 -19 -7 -75 2 -45 0 -81 -4 -81 -5
0 -8 -15 -8 -34 0 -46 -9 -66 -29 -66 -14 0 -14 2 -1 10 12 8 12 10 1 10 -10
0 -11 9 -6 38 11 55 14 512 4 512 -5 0 -9 7 -9 15 0 8 5 14 11 12 17 -3 20 33
3 40 -19 7 -18 23 3 38 10 7 14 19 10 29 -5 14 -14 16 -37 11 -27 -6 -30 -4
-30 19 0 16 -6 26 -15 26 -12 0 -15 -15 -16 -67 -8 -386 -7 -363 -24 -363 -8
0 -15 9 -15 20 0 11 6 20 13 20 9 0 9 2 -1 9 -15 9 -15 11 -12 134 2 48 7 87
12 87 5 0 5 7 0 18 -5 9 -9 45 -8 80 2 56 0 62 -19 62 -19 0 -20 -6 -20 -138
0 -80 -5 -138 -10 -139 -6 -1 -9 14 -8 32 1 19 -2 35 -7 35 -14 0 -12 34 2 48
8 8 8 15 0 24 -6 7 -9 41 -8 76 l3 62 -198 -1 -197 -2 -12 -46 c-7 -25 -19
-65 -26 -88 -29 -89 -35 -191 -12 -177 7 4 8 2 4 -5 -4 -6 -12 -9 -17 -6 -5 4
-9 -5 -9 -18 0 -13 -5 -39 -11 -57 -9 -26 -9 -34 2 -41 11 -7 12 -12 2 -28
-18 -29 -28 -121 -14 -121 9 0 8 -6 -1 -22 -7 -13 -20 -45 -28 -73 -14 -44
-15 -55 -2 -92 8 -26 20 -43 30 -43 8 0 12 -3 9 -7 -4 -3 0 -14 9 -24 13 -14
14 -24 5 -56 -6 -21 -11 -69 -11 -107 l0 -69 -22 21 c-13 11 -36 24 -51 27
-15 4 -34 19 -41 34 -17 34 -44 183 -52 291 -6 72 -4 92 11 120 14 27 19 63
21 160 1 69 9 154 17 190 11 55 12 71 0 104 -17 51 -33 68 -55 63 -14 -4 -12
3 12 29 16 19 30 37 30 40 0 8 -121 -2 -142 -11 -11 -4 -18 -3 -18 4 0 6 -9
11 -20 11 -11 0 -20 -5 -20 -12 0 -9 -3 -9 -12 0 -15 15 -54 16 -63 2 -3 -5
-15 -10 -26 -10 -10 0 -19 5 -19 10 0 6 -16 10 -35 10 -19 0 -35 -4 -35 -10z
m185 -298 c21 -15 10 -37 -20 -40 -50 -5 -59 -10 -45 -27 11 -13 16 -13 40 0
18 9 31 11 35 5 3 -5 18 -7 34 -4 23 5 29 2 34 -16 5 -20 3 -21 -27 -16 -23 5
-37 2 -45 -8 -11 -13 -8 -16 14 -22 18 -4 30 -2 36 7 13 21 31 -9 25 -42 -3
-14 0 -31 5 -36 8 -8 7 -13 0 -17 -17 -11 -13 -36 7 -36 10 0 13 -3 6 -8 -6
-4 -10 -15 -9 -24 2 -11 -2 -15 -13 -11 -11 5 -14 2 -9 -9 4 -12 -2 -17 -26
-20 -32 -3 -32 -3 -28 39 2 27 8 43 16 43 7 0 15 9 18 20 5 19 4 19 -25 4 -33
-17 -44 -13 -35 11 4 9 19 15 42 15 23 0 35 5 35 14 0 20 -28 28 -50 14 -14
-9 -22 -9 -34 2 -22 17 -30 7 -29 -35 1 -38 -21 -66 -31 -40 -3 9 1 18 10 22
11 4 12 8 4 13 -16 10 -33 100 -21 114 6 7 4 18 -5 30 -8 11 -14 28 -14 38 0
16 5 18 35 12 23 -4 35 -2 35 5 0 12 20 14 35 3z"/>
<path d="M4130 6493 c0 -10 61 -136 75 -153 6 -8 17 -35 24 -60 7 -25 21 -63
31 -85 28 -63 28 -67 3 -104 -37 -54 -39 -76 -10 -110 24 -29 24 -32 10 -73
-8 -24 -21 -48 -29 -55 -9 -6 -17 -34 -20 -65 -3 -29 -14 -84 -24 -123 -10
-38 -23 -92 -29 -120 -24 -108 -152 -327 -216 -369 -33 -22 -32 -36 3 -36 20
0 23 3 12 10 -11 7 -9 11 13 19 15 6 26 16 25 22 -2 6 6 12 18 13 22 3 60 26
63 39 0 4 1 11 1 17 0 5 7 7 16 3 11 -4 15 0 14 13 -5 45 1 65 23 73 34 14 78
66 86 103 4 18 13 32 19 31 14 -3 16 13 3 21 -7 5 -8 23 -3 77 2 14 9 15 45 8
64 -12 127 -39 127 -55 0 -8 5 -14 12 -14 9 0 9 -3 0 -12 -10 -10 -15 -10 -22
2 -9 14 -9 15 -25 -65 -4 -16 -12 -25 -25 -25 -11 0 -25 -9 -32 -19 -9 -15
-16 -17 -29 -10 -15 7 -17 5 -14 -11 2 -11 7 -25 10 -30 10 -16 -11 -11 -26 6
-12 14 -14 14 -26 -2 -15 -21 -17 -38 -4 -30 15 10 41 -5 41 -22 0 -17 -22
-84 -30 -92 -7 -7 -30 -49 -30 -55 0 -3 5 -5 10 -5 6 0 10 6 10 14 0 8 4 18
10 21 6 4 7 -1 3 -11 -5 -13 -3 -15 8 -9 10 6 9 3 -2 -11 -9 -10 -19 -32 -23
-49 -7 -29 -7 -29 8 -10 8 11 16 23 16 26 0 8 86 159 168 297 34 57 62 107 62
111 0 4 -16 13 -35 20 -19 7 -33 15 -31 19 2 4 -6 8 -17 8 -12 1 -40 7 -62 14
-22 6 -55 14 -72 17 -35 5 -42 23 -19 42 10 9 16 8 26 -4 16 -19 36 -19 44 1
9 25 8 27 -19 22 -14 -3 -32 0 -41 7 -15 11 -15 13 6 28 15 10 20 21 16 32 -5
14 -9 15 -20 6 -20 -17 -28 2 -11 25 13 17 16 17 25 4 9 -13 12 -12 23 5 24
40 14 72 -13 40 -16 -20 -33 -9 -21 13 8 15 21 17 82 15 40 -2 79 -9 86 -15
10 -8 17 -8 25 0 17 17 -1 33 -33 28 -24 -4 -30 0 -35 21 -4 13 -1 35 6 48 7
13 10 28 6 33 -3 5 1 15 10 22 8 7 13 19 10 26 -2 6 2 20 9 31 8 10 15 29 15
44 0 27 16 49 37 49 7 0 10 -6 7 -14 -6 -14 22 -30 37 -20 5 3 9 14 9 26 0 17
4 19 28 14 15 -3 37 -8 50 -10 21 -3 22 -2 6 15 -11 13 -25 16 -44 12 -15 -3
-36 0 -47 6 -10 6 -12 11 -5 11 6 0 12 9 12 19 0 25 4 27 65 35 l50 7 -24 -19
c-15 -13 -22 -25 -18 -36 9 -22 38 -21 31 2 -3 9 1 6 9 -8 9 -14 11 -27 7 -30
-5 -3 -8 -16 -7 -28 2 -34 19 -9 20 32 1 20 2 36 4 36 1 0 10 -16 18 -37 8
-20 18 -34 21 -30 3 3 1 14 -4 24 -10 20 -6 43 9 43 5 0 9 -10 9 -22 0 -29 12
-15 16 18 2 24 0 26 -31 22 -26 -3 -35 0 -38 14 -6 21 1 28 25 28 10 0 18 -7
18 -17 0 -15 2 -16 10 -3 7 11 5 18 -5 26 -8 6 -15 22 -15 35 -1 13 -7 35 -16
49 l-14 25 2 -30 c1 -16 6 -35 10 -41 10 -14 -17 -38 -32 -29 -8 5 -8 11 1 21
9 11 9 21 1 37 -11 22 -19 55 -29 115 -3 18 -10 35 -15 39 -11 6 -8 -21 11
-92 16 -60 14 -115 -4 -122 -20 -7 -32 4 -18 18 12 12 5 99 -10 114 -6 7 -8
-5 -4 -36 6 -43 -4 -69 -25 -69 -12 0 -10 38 2 45 6 4 3 15 -7 30 -10 12 -22
21 -26 18 -5 -3 -5 3 1 13 11 23 5 44 -13 44 -13 0 -15 24 -3 36 11 10 -3 34
-19 34 -8 0 -20 -6 -28 -13 -11 -11 -10 -16 6 -25 12 -8 19 -24 19 -41 0 -17
5 -33 10 -36 15 -9 12 -35 -4 -35 -18 0 -33 23 -19 27 6 2 0 15 -14 29 -13 13
-22 28 -18 33 8 14 -16 62 -29 58 -15 -5 -20 -47 -7 -60 6 -6 11 -18 11 -26 0
-9 7 -28 14 -43 14 -26 13 -28 -5 -28 -16 0 -19 5 -14 19 4 14 0 23 -15 31
-16 8 -20 18 -16 34 4 15 -1 28 -15 39 -11 10 -17 22 -14 27 8 13 -141 13
-165 0 -13 -7 -21 -7 -25 0 -7 11 -35 14 -35 3z"/>
</g>
</svg>
