<?xml version="1.0" standalone="no"?>
<!DOCTYPE svg PUBLIC "-//W3C//DTD SVG 20010904//EN"
 "http://www.w3.org/TR/2001/REC-SVG-20010904/DTD/svg10.dtd">
<svg version="1.0" xmlns="http://www.w3.org/2000/svg"
 width="650.000000pt" height="650.000000pt" viewBox="0 0 650.000000 650.000000"
 preserveAspectRatio="xMidYMid meet">
<metadata>
Created by potrace 1.16, written by Peter Selinger 2001-2019
</metadata>
<g transform="translate(0.000000,650.000000) scale(0.100000,-0.100000)"
fill="#000000" stroke="none">
<path d="M2750 6451 c0 -42 -6 -56 -39 -98 -57 -71 -159 -166 -227 -209 -32
-22 -105 -75 -162 -118 -105 -81 -122 -107 -87 -136 10 -8 15 -27 13 -51 -1
-24 4 -45 15 -57 9 -10 17 -23 17 -29 0 -14 47 -63 53 -56 3 3 3 -4 0 -15 -3
-11 2 -25 12 -33 9 -8 30 -26 46 -40 16 -15 47 -29 70 -33 23 -4 39 -12 38
-19 -7 -52 32 -74 104 -57 27 6 83 7 132 4 l85 -7 1 -36 c1 -20 1 -99 0 -176
-3 -133 -1 -143 24 -200 15 -33 32 -63 37 -66 7 -5 7 -22 -1 -55 -6 -27 -12
-71 -12 -99 -1 -52 -24 -125 -79 -255 -17 -41 -51 -133 -75 -205 -24 -71 -64
-190 -89 -264 -46 -132 -98 -365 -131 -573 -9 -59 -32 -154 -51 -210 -43 -125
-55 -272 -33 -384 7 -38 12 -73 11 -78 -2 -5 2 -140 7 -300 7 -187 7 -343 1
-436 -5 -80 -12 -194 -15 -255 -4 -60 -11 -180 -16 -265 -6 -85 -15 -240 -20
-345 -11 -223 -18 -285 -30 -285 -5 0 -38 -28 -72 -63 -34 -35 -84 -73 -110
-86 -27 -13 -60 -34 -74 -47 -14 -13 -44 -29 -67 -34 -143 -36 -234 -62 -256
-73 -63 -32 -63 -119 1 -178 29 -27 36 -38 27 -47 -17 -17 -9 -20 68 -32 104
-15 311 -12 427 6 73 12 150 15 272 13 465 -10 506 -5 554 66 l23 34 -35 88
c-19 48 -40 124 -47 168 -15 105 -38 183 -59 204 -12 12 -17 32 -15 76 0 33 4
67 7 75 13 34 17 89 8 111 -5 13 -14 47 -21 76 -10 46 -9 59 9 107 27 72 40
186 42 376 1 85 6 207 10 270 22 299 15 739 -13 864 l-13 59 36 31 c47 41 52
51 83 185 21 88 36 126 66 170 21 31 66 113 101 183 34 70 66 125 70 123 14
-9 97 -250 118 -345 106 -463 225 -886 284 -1010 l32 -65 3 -355 c2 -221 -1
-402 -8 -480 -6 -69 -13 -206 -15 -305 l-4 -180 -48 -53 c-26 -30 -50 -58 -52
-64 -13 -37 -135 -157 -186 -183 -27 -15 -68 -39 -90 -55 -56 -41 -180 -111
-239 -135 -27 -11 -58 -32 -69 -47 -27 -36 -26 -101 2 -139 20 -27 21 -30 5
-27 -11 2 -20 -4 -22 -13 -4 -23 42 -37 162 -50 151 -17 371 2 603 51 103 22
256 52 338 65 171 29 247 49 264 69 10 12 6 12 -29 0 -23 -8 -130 -30 -239
-49 -109 -19 -263 -48 -342 -65 -234 -50 -452 -60 -601 -29 -40 9 -97 48 -72
50 5 0 60 0 123 -1 82 -1 120 -5 135 -16 43 -30 203 -12 481 56 110 27 232 56
270 64 39 9 112 28 163 42 87 25 94 25 117 10 33 -22 33 -5 0 66 -23 50 -68
225 -60 238 2 3 9 94 15 202 20 318 -10 1199 -51 1543 -11 94 -52 323 -69 384
-5 20 -14 117 -19 216 -6 99 -15 223 -21 275 -5 52 -19 208 -31 345 -11 138
-25 275 -30 305 -6 30 -14 154 -19 275 -8 209 -8 224 13 305 18 72 21 114 22
270 0 134 3 189 13 198 19 20 15 46 -30 218 -23 87 -41 170 -40 184 1 14 4 50
8 81 l6 56 228 76 c125 43 237 77 249 77 41 0 89 28 107 62 19 36 21 57 29
242 4 105 2 134 -10 152 -8 13 -15 37 -15 55 0 17 -8 69 -17 115 l-18 84 -982
0 -983 0 0 -49z m39 -537 c42 -14 83 -28 91 -31 8 -4 17 -7 20 -8 3 -1 16 -6
30 -12 14 -6 52 -13 85 -17 33 -4 74 -12 92 -17 28 -9 120 -2 173 12 11 3 14
-5 12 -36 l-1 -40 14 33 c9 20 22 32 34 32 20 0 36 26 20 34 -5 2 -4 3 3 2 7
-2 12 -15 11 -31 -2 -23 0 -25 10 -13 13 16 79 58 91 58 4 0 4 -4 1 -10 -3 -5
-1 -10 4 -10 6 0 11 6 11 13 0 9 3 8 9 -2 7 -11 15 -11 41 -2 41 14 43 14 34
-1 -5 -7 -2 -9 9 -5 12 4 14 0 11 -19 -2 -13 -1 -24 3 -24 13 1 59 45 66 63 7
18 27 24 27 7 0 -5 -5 -10 -11 -10 -5 0 -7 -5 -4 -10 4 -6 10 -8 15 -5 4 3 10
-5 14 -18 8 -32 7 -49 -3 -42 -5 3 -9 -8 -9 -23 1 -37 -8 -52 -33 -52 -12 0
-19 7 -19 20 0 27 -14 25 -28 -2 l-11 -23 -1 25 -1 25 -17 -24 c-9 -13 -22
-38 -29 -55 -11 -30 -12 -30 -12 -5 -1 37 -21 53 -38 31 -13 -15 -13 -15 -4 4
6 12 8 24 5 27 -3 3 -1 14 5 24 10 17 10 16 11 -4 0 -16 4 -21 15 -17 9 4 15
0 16 -7 0 -8 7 4 15 25 8 22 12 42 9 44 -3 3 -5 -1 -5 -9 -1 -10 -4 -9 -11 4
-8 13 -7 22 1 33 23 26 -5 14 -42 -20 -21 -19 -38 -43 -38 -54 0 -12 -4 -24
-10 -27 -14 -9 -12 -45 2 -43 7 2 14 -6 16 -18 2 -13 -2 -21 -13 -21 -8 0 -15
5 -15 10 0 5 -7 4 -15 -3 -8 -7 -15 -24 -15 -39 -1 -23 -2 -24 -11 -8 -7 13
-14 15 -23 8 -6 -5 -24 -8 -39 -7 -20 2 -32 -4 -45 -22 -12 -15 -28 -24 -45
-24 -41 0 -56 18 -51 60 5 35 4 36 -10 18 -8 -10 -14 -28 -12 -39 4 -30 -39
-67 -79 -67 -23 0 -35 -5 -35 -13 0 -17 -3 -18 -129 -24 l-105 -4 25 21 24 21
-40 -6 c-46 -7 -125 -8 -132 -1 -2 2 -4 23 -5 47 0 24 -6 59 -13 76 -8 18 -10
35 -5 38 12 7 1 34 -22 59 -14 15 -17 29 -12 55 4 20 7 38 7 41 0 3 -6 18 -13
33 -12 24 -12 30 1 38 22 14 47 11 128 -17z m-959 -5349 c25 -4 54 -15 65 -25
45 -42 223 -51 396 -20 84 15 163 20 299 21 102 0 228 4 280 8 86 6 100 5 144
-16 l50 -22 -30 -12 c-35 -15 -197 -17 -434 -5 -144 7 -192 5 -272 -8 -120
-20 -301 -20 -389 -2 -86 19 -167 54 -180 78 -9 17 -8 19 8 15 10 -3 38 -9 63
-12z"/>
</g>
</svg>
